SplineFontDB: 3.0
FontName: Signika-Light
FullName: Signika Light
FamilyName: Signika
Weight: Light
Copyright: Copyright (c) 2011 by Anna Giedrys (http://ancymonic.com), with Reserved Font Names "Signika".
Version: 001.001
ItalicAngle: 0
UnderlinePosition: -100
UnderlineWidth: 50
Ascent: 800
Descent: 200
sfntRevision: 0x00010042
LayerCount: 2
Layer: 0 1 "Back"  1
Layer: 1 1 "Fore"  0
NeedsXUIDChange: 1
XUID: [1021 288 713564382 15218765]
FSType: 0
OS2Version: 2
OS2_WeightWidthSlopeOnly: 0
OS2_UseTypoMetrics: 1
CreationTime: 1321815040
ModificationTime: 1321846639
PfmFamily: 17
TTFWeight: 300
TTFWidth: 5
LineGap: 0
VLineGap: 0
Panose: 2 1 0 3 2 6 0 0 0 4
OS2TypoAscent: 140
OS2TypoAOffset: 1
OS2TypoDescent: -92
OS2TypoDOffset: 1
OS2TypoLinegap: 0
OS2WinAscent: 56
OS2WinAOffset: 1
OS2WinDescent: 44
OS2WinDOffset: 1
HheadAscent: 56
HheadAOffset: 1
HheadDescent: -44
HheadDOffset: 1
OS2SubXSize: 700
OS2SubYSize: 650
OS2SubXOff: 0
OS2SubYOff: 140
OS2SupXSize: 700
OS2SupYSize: 650
OS2SupXOff: 0
OS2SupYOff: 477
OS2StrikeYSize: 50
OS2StrikeYPos: 250
OS2CodePages: 00000093.00000000
OS2UnicodeRanges: a00000af.00000003.00000000.00000000
Lookup: 1 0 0 "'aalt' Access All Alternates lookup 0"  {"'aalt' Access All Alternates lookup 0 subtable"  } ['aalt' ('    ' <'dflt' > 'latn' <'dflt' > ) ]
Lookup: 3 0 0 "'aalt' Access All Alternates lookup 1"  {"'aalt' Access All Alternates lookup 1 subtable"  } ['aalt' ('    ' <'dflt' > 'latn' <'dflt' > ) ]
Lookup: 1 0 0 "'smcp' Lowercase to Small Capitals lookup 2"  {"'smcp' Lowercase to Small Capitals lookup 2 subtable"  } ['smcp' ('    ' <'dflt' > 'latn' <'dflt' > ) ]
Lookup: 1 0 0 "'c2sc' Capitals to Small Capitals lookup 3"  {"'c2sc' Capitals to Small Capitals lookup 3 subtable"  } ['c2sc' ('    ' <'dflt' > 'latn' <'dflt' > ) ]
Lookup: 4 0 0 "'frac' Diagonal Fractions lookup 4"  {"'frac' Diagonal Fractions lookup 4 subtable"  } ['frac' ('    ' <'dflt' > 'latn' <'dflt' > ) ]

StartChar: a
Encoding: 97 97 5
Width: 504
Flags: HMW
HStem: -12 63<179.5 228 179.5 228> 238 56<204.5 255 182.5 257> 437 64<230.5 285.5>
VStem: 51 75<114 170 114 188.5> 348 72<131 231 231 231 285 334>
LayerCount: 2
Fore
SplineSet
448 31 m 1,0,1
 438 4 438 4 414 -7 c 1,2,3
 365 11 365 11 352 63 c 1,4,5
 275 -12 275 -12 201 -12 c 128,-1,6
 127 -12 127 -12 89 31.5 c 128,-1,7
 51 75 51 75 51 133 c 0,8,9
 51 214 51 214 101 254 c 128,-1,10
 151 294 151 294 226.5 294 c 128,-1,11
 302 294 302 294 348 285 c 1,12,-1
 348 335 l 2,13,14
 348 437 348 437 258 437 c 0,15,16
 188 437 188 437 95 396 c 1,17,18
 69 418 69 418 69 454 c 1,19,20
 176 501 176 501 265 501 c 0,21,22
 420 501 420 501 420 334 c 2,23,-1
 420 128 l 2,24,25
 420 58 420 58 448 31 c 1,0,1
147 75.5 m 128,-1,27
 168 51 168 51 204.5 51 c 128,-1,28
 241 51 241 51 279.5 71.5 c 128,-1,29
 318 92 318 92 348 131 c 1,30,-1
 348 231 l 1,31,32
 300 238 300 238 243.5 238 c 128,-1,33
 187 238 187 238 156.5 211.5 c 128,-1,34
 126 185 126 185 126 142.5 c 128,-1,26
 126 100 126 100 147 75.5 c 128,-1,27
EndSplineSet
Substitution2: "'ordn' Ordinals lookup 6 subtable" ordfeminine
Substitution2: "'smcp' Lowercase to Small Capitals lookup 2 subtable" a.smcp
AlternateSubs2: "'aalt' Access All Alternates lookup 1 subtable" a.smcp ordfeminine
EndChar

StartChar: b
Encoding: 98 98 6
Width: 524
Flags: HMW
HStem: -7 57<242 298.5 242 315.5> 434 65<272 319.5>
VStem: 88 73<67 364 438 685> 398 75<182.5 316>
LayerCount: 2
Fore
SplineSet
428.5 431 m 128,-1,1
 473 363 473 363 473 243 c 128,-1,2
 473 123 473 123 411.5 58 c 128,-1,3
 350 -7 350 -7 262.5 -7 c 128,-1,4
 175 -7 175 -7 88 25 c 1,5,-1
 88 729 l 1,6,-1
 94 735 l 1,7,-1
 121 735 l 2,8,9
 145 735 145 735 153 723.5 c 128,-1,10
 161 712 161 712 161 685 c 2,11,-1
 161 438 l 1,12,13
 224 499 224 499 304 499 c 128,-1,0
 384 499 384 499 428.5 431 c 128,-1,1
367.5 388.5 m 128,-1,15
 337 434 337 434 296 434 c 128,-1,16
 255 434 255 434 220 414.5 c 128,-1,17
 185 395 185 395 161 364 c 1,18,-1
 161 67 l 1,19,20
 205 50 205 50 262.5 50 c 128,-1,21
 320 50 320 50 359 101.5 c 128,-1,22
 398 153 398 153 398 248 c 128,-1,14
 398 343 398 343 367.5 388.5 c 128,-1,15
EndSplineSet
Substitution2: "'smcp' Lowercase to Small Capitals lookup 2 subtable" b.smcp
Substitution2: "'aalt' Access All Alternates lookup 0 subtable" b.smcp
EndChar

StartChar: c
Encoding: 99 99 7
Width: 469
Flags: HMW
HStem: -12 64<217 281.5 217 282> 443 60<214.5 293>
VStem: 52 77<178 307.5 177.5 331.5> 355 71
LayerCount: 2
Fore
SplineSet
355 317 m 1,0,1
 358 368 358 368 333.5 405.5 c 128,-1,2
 309 443 309 443 252 443 c 128,-1,3
 195 443 195 443 162 391 c 128,-1,4
 129 339 129 339 129 243 c 128,-1,5
 129 147 129 147 162.5 99.5 c 128,-1,6
 196 52 196 52 253 52 c 128,-1,7
 310 52 310 52 385 107 c 1,8,9
 413 90 413 90 420 60 c 1,10,11
 343 -12 343 -12 247 -12 c 0,12,13
 179 -12 179 -12 133.5 26 c 0,14,15
 52 94.0659340659 52 94.0659340659 52 231.532967033 c 128,-1,16
 52 369 52 369 110.5 436 c 128,-1,17
 169 503 169 503 254 503 c 128,-1,18
 339 503 339 503 382.5 456.5 c 128,-1,19
 426 410 426 410 426 362 c 128,-1,20
 426 314 426 314 387 314 c 0,21,22
 373 314 373 314 355 317 c 1,0,1
EndSplineSet
Substitution2: "'smcp' Lowercase to Small Capitals lookup 2 subtable" c.smcp
Substitution2: "'aalt' Access All Alternates lookup 0 subtable" c.smcp
EndChar

StartChar: d
Encoding: 100 100 8
Width: 525
Flags: HMW
HStem: -12 64<205 251> 435 64<215 260.5 194 267>
VStem: 51 75<172.5 308.5 172.5 330.5> 363 72<129 138 138 390 390 390 458 685>
LayerCount: 2
Fore
SplineSet
94.5 56 m 128,-1,1
 51 124 51 124 51 245 c 128,-1,2
 51 366 51 366 107.5 432.5 c 128,-1,3
 164 499 164 499 238 499 c 0,4,5
 298 499 298 499 363 458 c 1,6,-1
 363 729 l 1,7,-1
 369 735 l 1,8,-1
 396 735 l 2,9,10
 419 735 419 735 427 723.5 c 128,-1,11
 435 712 435 712 435 685 c 2,12,-1
 435 138 l 2,13,14
 435 59 435 59 463 31 c 1,15,16
 452 3 452 3 430 -7 c 1,17,18
 384 9 384 9 369 60 c 1,19,20
 308 -12 308 -12 223 -12 c 128,-1,0
 138 -12 138 -12 94.5 56 c 128,-1,1
233 52 m 0,21,22
 267 52 267 52 302.5 72.5 c 128,-1,23
 338 93 338 93 363 129 c 1,24,-1
 363 390 l 1,25,26
 296 435 296 435 245.5 435 c 128,-1,27
 195 435 195 435 160.5 386 c 128,-1,28
 126 337 126 337 126 241 c 128,-1,29
 126 145 126 145 156.5 98.5 c 128,-1,30
 187 52 187 52 233 52 c 0,21,22
EndSplineSet
Substitution2: "'smcp' Lowercase to Small Capitals lookup 2 subtable" d.smcp
Substitution2: "'aalt' Access All Alternates lookup 0 subtable" d.smcp
EndChar

StartChar: e
Encoding: 101 101 9
Width: 503
Flags: HMW
HStem: -12 65<212.5 283> 223 57<130 370 130 440 130 370> 446 57<214.5 294.5>
VStem: 52 78<223 223 223 280 223 320> 370 75<280 293 293 334.5>
LayerCount: 2
Fore
SplineSet
440 223 m 1,0,-1
 130 223 l 1,1,2
 135 53 135 53 259 53 c 0,3,4
 327 53 327 53 404 95 c 1,5,6
 427 75 427 75 431 44 c 1,7,8
 350 -12 350 -12 247.5 -12 c 128,-1,9
 145 -12 145 -12 98.5 60 c 128,-1,10
 52 132 52 132 52 246 c 128,-1,11
 52 360 52 360 105 431.5 c 128,-1,12
 158 503 158 503 251 503 c 128,-1,13
 344 503 344 503 394.5 442.5 c 128,-1,14
 445 382 445 382 445 289 c 0,15,16
 445 253 445 253 440 223 c 1,0,-1
341 403.5 m 128,-1,18
 312 446 312 446 254.5 446 c 128,-1,19
 197 446 197 446 165.5 401 c 128,-1,20
 134 356 134 356 130 280 c 1,21,-1
 370 280 l 1,22,-1
 370 293 l 2,23,17
 370 361 370 361 341 403.5 c 128,-1,18
EndSplineSet
Substitution2: "'smcp' Lowercase to Small Capitals lookup 2 subtable" e.smcp
Substitution2: "'aalt' Access All Alternates lookup 0 subtable" e.smcp
EndChar

StartChar: f
Encoding: 102 102 10
Width: 320
Flags: HMW
HStem: 434 56 683 56<221.5 259 194 260.5>
VStem: 108 72<0 435 0 435>
LayerCount: 2
Fore
SplineSet
108 0 m 1,0,-1
 108 435 l 1,1,-1
 22 434 l 1,2,3
 19 449 19 449 19 462.5 c 0,4,5
 19 476 19 476 22 491 c 1,6,-1
 105 489 l 1,7,8
 98 578 98 578 98 593 c 0,9,10
 98 657 98 657 135.5 698 c 128,-1,11
 173 739 173 739 236.5 739 c 0,12,13
 300 739 300 739 355 718 c 1,14,15
 355 687 355 687 337 667 c 1,16,17
 277 683 277 683 243 683 c 0,18,19
 209 683 209 683 188 658.5 c 128,-1,20
 167 634 167 634 167 594 c 0,21,22
 167 554 167 554 176 489 c 1,23,-1
 322 491 l 1,24,25
 325 476 325 476 325 462.5 c 0,26,27
 325 449 325 449 322 434 c 1,28,-1
 180 435 l 1,29,-1
 180 0 l 1,30,31
 165 -3 165 -3 144.5 -3 c 0,32,33
 124 -3 124 -3 108 0 c 1,0,-1
EndSplineSet
Substitution2: "'smcp' Lowercase to Small Capitals lookup 2 subtable" f.smcp
Substitution2: "'aalt' Access All Alternates lookup 0 subtable" f.smcp
EndChar

StartChar: g
Encoding: 103 103 11
Width: 524
Flags: HMW
HStem: -220 60<212.5 274> -8 64<203 252> 439 64<215 268> 478 20G
VStem: 51 75<177.5 313 177.5 334.5> 366 70<0 38 38 58 58 58 130 352>
LayerCount: 2
Fore
SplineSet
95 59.5 m 128,-1,1
 51 127 51 127 51 248.5 c 128,-1,2
 51 370 51 370 107 436.5 c 128,-1,3
 163 503 163 503 240 503 c 128,-1,4
 317 503 317 503 378 449 c 1,5,6
 392 484 392 484 431 498 c 1,7,8
 455 485 455 485 464 459 c 1,9,10
 436 432 436 432 436 352 c 2,11,-1
 436 38 l 2,12,13
 436 -102 436 -102 387.5 -161 c 128,-1,14
 339 -220 339 -220 245.5 -220 c 128,-1,15
 152 -220 152 -220 73 -186 c 1,16,17
 75 -150 75 -150 94 -128 c 1,18,19
 160 -160 160 -160 231 -160 c 0,20,21
 314.9375 -160 314.9375 -160 342.5 -111 c 0,22,23
 366 -69.2222222222 366 -69.2222222222 366 0 c 2,24,-1
 366 58 l 1,25,26
 302 -8 302 -8 220.5 -8 c 128,-1,0
 139 -8 139 -8 95 59.5 c 128,-1,1
366 130 m 1,27,-1
 366 389 l 1,28,29
 307 439 307 439 251 439 c 128,-1,30
 195 439 195 439 160.5 390.5 c 128,-1,31
 126 342 126 342 126 245.5 c 128,-1,32
 126 149 126 149 155.5 102.5 c 128,-1,33
 185 56 185 56 227 56 c 128,-1,34
 269 56 269 56 305 76.5 c 128,-1,35
 341 97 341 97 366 130 c 1,27,-1
EndSplineSet
Substitution2: "'smcp' Lowercase to Small Capitals lookup 2 subtable" g.smcp
Substitution2: "'aalt' Access All Alternates lookup 0 subtable" g.smcp
EndChar

StartChar: h
Encoding: 104 104 12
Width: 544
Flags: HMW
HStem: 431 68<301.5 343>
VStem: 88 73<0 354 427 685> 388 73<78.5 95 95 319 319 342>
LayerCount: 2
Fore
SplineSet
461 342 m 2,0,-1
 461 95 l 2,1,2
 461 39 461 39 473 10 c 1,3,4
 455 -6 455 -6 426 -6 c 0,5,6
 388 -6 388 -6 388 43 c 2,7,-1
 388 319 l 2,8,9
 388 380 388 380 372 405.5 c 128,-1,10
 356 431 356 431 316 431 c 0,11,12
 276 431 276 431 233 409.5 c 128,-1,13
 190 388 190 388 161 354 c 1,14,-1
 161 0 l 1,15,16
 146 -3 146 -3 124.5 -3 c 0,17,18
 103 -3 103 -3 88 0 c 1,19,-1
 88 729 l 1,20,-1
 94 735 l 1,21,-1
 121 735 l 2,22,23
 145 735 145 735 153 723.5 c 128,-1,24
 161 712 161 712 161 685 c 2,25,-1
 161 427 l 1,26,27
 195 459 195 459 241 479 c 128,-1,28
 287 499 287 499 333 499 c 0,29,30
 400 499 400 499 430.5 455.5 c 128,-1,31
 461 412 461 412 461 342 c 2,0,-1
EndSplineSet
Substitution2: "'smcp' Lowercase to Small Capitals lookup 2 subtable" h.smcp
Substitution2: "'aalt' Access All Alternates lookup 0 subtable" h.smcp
EndChar

StartChar: j
Encoding: 106 106 14
Width: 263
Flags: HMW
HStem: -219 21G 434 60<44 113> 588 74<79 79 169 169>
VStem: 72 97 103 74<-48 13 13 386 386 404.5>
LayerCount: 2
Fore
SplineSet
177 422 m 2,0,-1
 177 13 l 2,1,2
 177 9 177 9 177 -17 c 128,-1,3
 177 -43 177 -43 176 -63.5 c 128,-1,4
 175 -84 175 -84 169.5 -114 c 128,-1,5
 164 -144 164 -144 151.5 -160 c 0,6,7
 120.834319527 -199.252071006 120.834319527 -199.252071006 58 -219 c 1,8,9
 41 -202 41 -202 35 -172 c 1,10,11
 75 -151 75 -151 89 -125 c 128,-1,12
 103 -99 103 -99 103 -48 c 2,13,-1
 103 386 l 2,14,15
 103 414 103 414 94 424 c 128,-1,16
 85 434 85 434 62 434 c 2,17,-1
 44 434 l 1,18,19
 40 454 40 454 40 461.5 c 128,-1,20
 40 469 40 469 44 489 c 1,21,22
 81 494 81 494 105 494 c 2,23,-1
 113 494 l 2,24,25
 143 494 143 494 160 474.5 c 128,-1,26
 177 455 177 455 177 422 c 2,0,-1
72 625 m 128,-1,28
 72 648 72 648 79 662 c 1,29,30
 96 672 96 672 125 672 c 128,-1,31
 154 672 154 672 169 662 c 1,32,33
 176 648 176 648 176 625 c 128,-1,34
 176 602 176 602 169 588 c 1,35,36
 154 577 154 577 125.5 577 c 128,-1,37
 97 577 97 577 79 588 c 1,38,27
 72 602 72 602 72 625 c 128,-1,28
EndSplineSet
Substitution2: "'smcp' Lowercase to Small Capitals lookup 2 subtable" j.smcp
Substitution2: "'aalt' Access All Alternates lookup 0 subtable" j.smcp
EndChar

StartChar: k
Encoding: 107 107 15
Width: 490
Flags: HMW
HStem: 224 61<208.5 209 204 243> 484 10
VStem: 88 73<0 220 0 283 283 685>
LayerCount: 2
Fore
SplineSet
381 179 m 2,0,-1
 420 91 l 2,1,2
 446 32 446 32 468 16 c 1,3,4
 452 -6 452 -6 424 -6 c 0,5,6
 396 -6 396 -6 384.5 6 c 128,-1,7
 373 18 373 18 361 46 c 2,8,-1
 315 150 l 2,9,10
 296 194 296 194 276 209 c 128,-1,11
 256 224 256 224 223 224 c 0,12,13
 190 224 190 224 161 220 c 1,14,-1
 161 0 l 1,15,16
 146 -3 146 -3 124.5 -3 c 0,17,18
 103 -3 103 -3 88 0 c 1,19,-1
 88 729 l 1,20,-1
 94 735 l 1,21,-1
 121 735 l 2,22,23
 145 735 145 735 153 723.5 c 128,-1,24
 161 712 161 712 161 685 c 2,25,-1
 161 283 l 1,26,-1
 204 285 l 2,27,28
 218 285 218 285 227 299 c 2,29,-1
 334 457 l 2,30,31
 347 477 347 477 358 485.5 c 128,-1,32
 369 494 369 494 384 494 c 0,33,34
 399 494 399 494 427 492 c 1,35,-1
 433 484 l 1,36,-1
 306 299 l 2,37,38
 293 280 293 280 282 271 c 1,39,40
 316 264 316 264 339 242.5 c 128,-1,41
 362 221 362 221 381 179 c 2,0,-1
EndSplineSet
Substitution2: "'smcp' Lowercase to Small Capitals lookup 2 subtable" k.smcp
Substitution2: "'aalt' Access All Alternates lookup 0 subtable" k.smcp
EndChar

StartChar: l
Encoding: 108 108 16
Width: 283
Flags: HMW
HStem: -4 61<145.5 238>
VStem: 86 73<85.5 100 100 685>
LayerCount: 2
Fore
SplineSet
196 57 m 2,0,-1
 238 57 l 1,1,2
 245 43 245 43 245 24.5 c 0,3,4
 245 6 245 6 244 2 c 1,5,6
 204 -4 204 -4 168 -4 c 0,7,8
 132 -4 132 -4 109 17.5 c 128,-1,9
 86 39 86 39 86 79 c 2,10,-1
 86 729 l 1,11,-1
 92 735 l 1,12,-1
 119 735 l 2,13,14
 143 735 143 735 151 723.5 c 128,-1,15
 159 712 159 712 159 685 c 2,16,-1
 159 100 l 2,17,18
 159 57 159 57 196 57 c 2,0,-1
EndSplineSet
Substitution2: "'smcp' Lowercase to Small Capitals lookup 2 subtable" l.smcp
Substitution2: "'aalt' Access All Alternates lookup 0 subtable" l.smcp
EndChar

StartChar: m
Encoding: 109 109 17
Width: 791
Flags: HMW
HStem: 432 67<283 318 554 591.5>
VStem: 88 74<0 354 0 427 427 442> 361 74<0 320 320 345 345 356 0 359.5> 635 73<78.5 95 95 321 321 345>
LayerCount: 2
Fore
SplineSet
361 320 m 2,0,1
 361 380 361 380 345.5 406 c 128,-1,2
 330 432 330 432 295.5 432 c 128,-1,3
 261 432 261 432 224.5 411 c 128,-1,4
 188 390 188 390 162 354 c 1,5,-1
 162 0 l 1,6,7
 147 -3 147 -3 125 -3 c 128,-1,8
 103 -3 103 -3 88 0 c 1,9,-1
 88 487 l 1,10,-1
 94 494 l 1,11,-1
 122 494 l 2,12,13
 146 494 146 494 154 481.5 c 128,-1,14
 162 469 162 469 162 442 c 2,15,-1
 162 427 l 1,16,17
 225 499 225 499 308 499 c 128,-1,18
 391 499 391 499 421 424 c 1,19,20
 503 499 503 499 583 499 c 0,21,22
 645 499 645 499 676.5 456 c 128,-1,23
 708 413 708 413 708 345 c 2,24,-1
 708 95 l 2,25,26
 708 39 708 39 720 10 c 1,27,28
 702 -6 702 -6 673 -6 c 0,29,30
 635 -6 635 -6 635 43 c 2,31,-1
 635 321 l 2,32,33
 635 380 635 380 619.5 406 c 128,-1,34
 604 432 604 432 569.5 432 c 128,-1,35
 535 432 535 432 499 412 c 128,-1,36
 463 392 463 392 435 356 c 1,37,-1
 435 0 l 1,38,39
 420 -3 420 -3 398 -3 c 128,-1,40
 376 -3 376 -3 361 0 c 1,41,-1
 361 320 l 2,0,1
EndSplineSet
Substitution2: "'smcp' Lowercase to Small Capitals lookup 2 subtable" m.smcp
Substitution2: "'aalt' Access All Alternates lookup 0 subtable" m.smcp
EndChar

StartChar: n
Encoding: 110 110 18
Width: 545
Flags: HMW
HStem: 432 67<302.5 344.5> 474 20G<94 122 122 139>
VStem: 88 74<0 355 0 428 428 442> 389 74<78.5 95 95 320 320 343>
LayerCount: 2
Fore
SplineSet
463 343 m 2,0,-1
 463 95 l 2,1,2
 463 37 463 37 474 10 c 1,3,4
 458 -6 458 -6 427 -6 c 0,5,6
 389 -6 389 -6 389 43 c 2,7,-1
 389 320 l 2,8,9
 389 381 389 381 373.5 406.5 c 128,-1,10
 358 432 358 432 317.5 432 c 0,11,12
 277 432 277 432 234 410.5 c 128,-1,13
 191 389 191 389 162 355 c 1,14,-1
 162 0 l 1,15,16
 147 -3 147 -3 125 -3 c 0,17,18
 103 -3 103 -3 88 0 c 1,19,-1
 88 488 l 1,20,-1
 94 494 l 1,21,-1
 122 494 l 2,22,23
 146 494 146 494 154 481.5 c 128,-1,24
 162 469 162 469 162 442 c 2,25,-1
 162 428 l 1,26,27
 196 460 196 460 242 479.5 c 128,-1,28
 288 499 288 499 334 499 c 0,29,30
 401 499 401 499 432 456 c 128,-1,31
 463 413 463 413 463 343 c 2,0,-1
EndSplineSet
Substitution2: "'smcp' Lowercase to Small Capitals lookup 2 subtable" n.smcp
Substitution2: "'aalt' Access All Alternates lookup 0 subtable" n.smcp
EndChar

StartChar: o
Encoding: 111 111 19
Width: 519
Flags: HMW
HStem: -12 58<231 287.5> 445 58<231 287.5 231 309.5>
VStem: 52 77<205 285> 391 76<205 285 205 294>
LayerCount: 2
Fore
SplineSet
467 245 m 128,-1,1
 467 112 467 112 397 41 c 0,2,3
 344 -12 344 -12 259.5 -12 c 128,-1,4
 175 -12 175 -12 122 41 c 0,5,6
 52 112 52 112 52 245 c 128,-1,7
 52 378 52 378 122 449 c 0,8,9
 174 503 174 503 259.25 503 c 128,-1,10
 344.5 503 344.5 503 397 449 c 0,11,0
 467 378 467 378 467 245 c 128,-1,1
129 245 m 128,-1,13
 129 160 129 160 160 103 c 128,-1,14
 191 46 191 46 260 46 c 0,15,16
 307 46 307 46 337.5 76 c 0,17,18
 391 128.62295082 391 128.62295082 391 245 c 0,19,20
 391 329 391 329 359.5 387 c 128,-1,21
 328 445 328 445 259.5 445 c 128,-1,22
 191 445 191 445 160 387.5 c 128,-1,12
 129 330 129 330 129 245 c 128,-1,13
EndSplineSet
Substitution2: "'ordn' Ordinals lookup 6 subtable" ordmasculine
Substitution2: "'smcp' Lowercase to Small Capitals lookup 2 subtable" o.smcp
AlternateSubs2: "'aalt' Access All Alternates lookup 1 subtable" o.smcp ordmasculine
EndChar

StartChar: p
Encoding: 112 112 20
Width: 526
Flags: HMW
HStem: -215 21G<94 121 94 94> -209 21G<88 88> -8 64<264.5 311 258 331.5> 438 65<276.5 320.5> 474 20G<94 120 120 137>
VStem: 88 73<-181.5 -165 -165 33 101 358 436 441> 400 75<182 318>
LayerCount: 2
Fore
SplineSet
431.5 434.5 m 128,-1,1
 475 366 475 366 475 245.5 c 128,-1,2
 475 125 475 125 418.5 58.5 c 128,-1,3
 362 -8 362 -8 292.5 -8 c 128,-1,4
 223 -8 223 -8 161 33 c 1,5,-1
 161 -165 l 2,6,7
 161 -192 161 -192 153 -203.5 c 128,-1,8
 145 -215 145 -215 121 -215 c 2,9,-1
 94 -215 l 1,10,-1
 88 -209 l 1,11,-1
 88 488 l 1,12,-1
 94 494 l 1,13,-1
 120 494 l 2,14,15
 144 494 144 494 152.5 481.5 c 128,-1,16
 161 469 161 469 161 441 c 2,17,-1
 161 436 l 1,18,19
 221 503 221 503 304.5 503 c 128,-1,0
 388 503 388 503 431.5 434.5 c 128,-1,1
369 391.5 m 128,-1,21
 338 438 338 438 297.5 438 c 128,-1,22
 257 438 257 438 221 417 c 128,-1,23
 185 396 185 396 161 358 c 1,24,-1
 161 101 l 1,25,26
 226 56 226 56 278.5 56 c 128,-1,27
 331 56 331 56 365.5 105 c 128,-1,28
 400 154 400 154 400 249.5 c 128,-1,20
 400 345 400 345 369 391.5 c 128,-1,21
EndSplineSet
Substitution2: "'smcp' Lowercase to Small Capitals lookup 2 subtable" p.smcp
Substitution2: "'aalt' Access All Alternates lookup 0 subtable" p.smcp
EndChar

StartChar: q
Encoding: 113 113 21
Width: 524
Flags: HMW
HStem: -215 21G<386.5 403 403 430> -209 21G<436 436> -8 64<204 251.5> 439 64<216 267.5> 478 20G
VStem: 51 75<177.5 313 177.5 334.5> 364 72<-165 54 54 54 127 352 -209 376 -209 391>
LayerCount: 2
Fore
SplineSet
364 -165 m 2,0,-1
 364 54 l 1,1,2
 302 -8 302 -8 220.5 -8 c 128,-1,3
 139 -8 139 -8 95 59.5 c 128,-1,4
 51 127 51 127 51 248.5 c 128,-1,5
 51 370 51 370 107 436.5 c 128,-1,6
 163 503 163 503 240 503 c 128,-1,7
 317 503 317 503 378 451 c 1,8,9
 394 484 394 484 431 498 c 1,10,11
 455 485 455 485 464 459 c 1,12,13
 436 432 436 432 436 352 c 2,14,-1
 436 -209 l 1,15,-1
 430 -215 l 1,16,-1
 403 -215 l 2,17,18
 380 -215 380 -215 372 -203.5 c 128,-1,19
 364 -192 364 -192 364 -165 c 2,0,-1
156 103 m 128,-1,21
 186 56 186 56 227 56 c 128,-1,22
 268 56 268 56 303.5 75.5 c 128,-1,23
 339 95 339 95 364 127 c 1,24,-1
 364 391 l 1,25,26
 307 439 307 439 251.5 439 c 128,-1,27
 196 439 196 439 161 390 c 128,-1,28
 126 341 126 341 126 245.5 c 128,-1,20
 126 150 126 150 156 103 c 128,-1,21
EndSplineSet
Substitution2: "'smcp' Lowercase to Small Capitals lookup 2 subtable" q.smcp
Substitution2: "'aalt' Access All Alternates lookup 0 subtable" q.smcp
EndChar

StartChar: r
Encoding: 114 114 22
Width: 353
Flags: HMW
HStem: 424 73<265 298.5>
VStem: 97 74<0 333 0 354 0 379>
LayerCount: 2
Fore
SplineSet
61 456 m 1,0,1
 68 482 68 482 93 498 c 1,2,3
 149 477 149 477 165 409 c 1,4,5
 206 497 206 497 299 497 c 0,6,7
 320 497 320 497 345 493 c 1,8,9
 345 450 345 450 328 423 c 1,10,11
 316 424 316 424 293 424 c 0,12,13
 212 424 212 424 171 333 c 1,14,-1
 171 0 l 1,15,16
 156 -3 156 -3 134 -3 c 0,17,18
 112 -3 112 -3 97 0 c 1,19,-1
 97 354 l 2,20,21
 97 422 97 422 61 456 c 1,0,1
EndSplineSet
Substitution2: "'smcp' Lowercase to Small Capitals lookup 2 subtable" r.smcp
Substitution2: "'aalt' Access All Alternates lookup 0 subtable" r.smcp
EndChar

StartChar: s
Encoding: 115 115 23
Width: 434
Flags: HMW
HStem: -12 58<182.5 239.5 182.5 260.5> 443 60<196 247.5>
VStem: 57 76<353 392 353 408> 314 77<124 140.5>
LayerCount: 2
Fore
SplineSet
37 38 m 1,0,1
 39 70 39 70 66 92 c 1,2,3
 148 46 148 46 201.5 46 c 128,-1,4
 255 46 255 46 284 67.5 c 128,-1,5
 313 89 313 89 313.5 119 c 0,6,7
 314.461902508 176.714150497 314.461902508 176.714150497 241 204 c 1,8,-1
 185 226 l 1,9,10
 57 274 57 274 57 365 c 0,11,12
 57 428 57 428 105 465.5 c 128,-1,13
 153 503 153 503 228 503 c 128,-1,14
 303 503 303 503 376 470 c 1,15,16
 376 435 376 435 353 412 c 1,17,18
 282 443 282 443 232.5 443 c 128,-1,19
 183 443 183 443 158 423 c 128,-1,20
 133 403 133 403 133 374 c 128,-1,21
 133 345 133 345 151 328.5 c 128,-1,22
 169 312 169 312 208 297 c 2,23,-1
 267 274 l 2,24,25
 391 225 391 225 391 129 c 0,26,27
 391 63 391 63 340 25.5 c 128,-1,28
 289 -12 289 -12 202.5 -12 c 128,-1,29
 116 -12 116 -12 37 38 c 1,0,1
EndSplineSet
Substitution2: "'smcp' Lowercase to Small Capitals lookup 2 subtable" s.smcp
Substitution2: "'aalt' Access All Alternates lookup 0 subtable" s.smcp
EndChar

StartChar: t
Encoding: 116 116 24
Width: 337
Flags: HMW
HStem: -4 61<169 293> 434 56
VStem: 106 72<86.5 99 99 435 490 595 595 611.5>
LayerCount: 2
Fore
SplineSet
305 491 m 1,0,1
 308 476 308 476 308 462.5 c 128,-1,2
 308 449 308 449 305 434 c 1,3,-1
 178 435 l 1,4,-1
 178 99 l 2,5,6
 178 57 178 57 217 57 c 2,7,-1
 293 57 l 1,8,9
 300 40 300 40 300 23 c 128,-1,10
 300 6 300 6 298 2 c 1,11,12
 252 -4 252 -4 203 -4 c 0,13,14
 106 -4 106 -4 106 79 c 2,15,-1
 106 435 l 1,16,-1
 35 434 l 1,17,18
 32 449 32 449 32 462.5 c 128,-1,19
 32 476 32 476 35 491 c 1,20,-1
 106 490 l 1,21,-1
 106 595 l 2,22,23
 106 622 106 622 114 633.5 c 128,-1,24
 122 645 122 645 145 645 c 2,25,-1
 172 645 l 1,26,-1
 178 639 l 1,27,-1
 178 489 l 1,28,-1
 305 491 l 1,0,1
EndSplineSet
Substitution2: "'smcp' Lowercase to Small Capitals lookup 2 subtable" t.smcp
Substitution2: "'aalt' Access All Alternates lookup 0 subtable" t.smcp
EndChar

StartChar: u
Encoding: 117 117 25
Width: 546
Flags: HMW
HStem: -9 67<201 243.5> 470 20G<383 383 457 457> 477 20G<109 132>
VStem: 83 73<147 171 171 396 396 412> 383 74<135 138 138 490>
LayerCount: 2
Fore
SplineSet
83 147 m 2,0,-1
 83 396 l 2,1,2
 83 450 83 450 71 481 c 1,3,4
 89 497 89 497 118 497 c 0,5,6
 156 497 156 497 156 448 c 2,7,-1
 156 171 l 2,8,9
 156 109 156 109 172 83.5 c 128,-1,10
 188 58 188 58 228 58 c 0,11,12
 268 58 268 58 311 79.5 c 128,-1,13
 354 101 354 101 383 135 c 1,14,-1
 383 490 l 1,15,16
 396 494 396 494 420 494 c 0,17,18
 444 494 444 494 457 490 c 1,19,-1
 457 138 l 2,20,21
 457 58 457 58 485 31 c 1,22,23
 476 4 476 4 451 -7 c 1,24,25
 402 10 402 10 388 67 c 1,26,27
 354 33 354 33 306.5 12 c 128,-1,28
 259 -9 259 -9 211 -9 c 0,29,30
 144 -9 144 -9 113.5 34 c 128,-1,31
 83 77 83 77 83 147 c 2,0,-1
EndSplineSet
Substitution2: "'smcp' Lowercase to Small Capitals lookup 2 subtable" u.smcp
Substitution2: "'aalt' Access All Alternates lookup 0 subtable" u.smcp
EndChar

StartChar: v
Encoding: 118 118 26
Width: 442
Flags: HMW
HStem: -5 69<201 229> 478 20G<50 65> 486 9
VStem: 11 421<485 486>
LayerCount: 2
Fore
SplineSet
229 64 m 1,0,-1
 363 491 l 1,1,2
 379 495 379 495 392.5 495 c 0,3,4
 406 495 406 495 430 489 c 1,5,-1
 432 486 l 1,6,7
 340 200 340 200 268 0 c 1,8,9
 248 -5 248 -5 220 -5 c 0,10,11
 192 -5 192 -5 181.5 3.5 c 128,-1,12
 171 12 171 12 160 43 c 2,13,-1
 11 485 l 1,14,15
 37 498 37 498 56 498 c 0,16,17
 85 498 85 498 93 469 c 1,18,-1
 173 231 l 1,19,20
 203 137 203 137 220 72 c 0,21,22
 222 64 222 64 229 64 c 1,0,-1
EndSplineSet
Substitution2: "'smcp' Lowercase to Small Capitals lookup 2 subtable" v.smcp
Substitution2: "'aalt' Access All Alternates lookup 0 subtable" v.smcp
EndChar

StartChar: w
Encoding: 119 119 27
Width: 704
Flags: HMW
HStem: -4 59<181.5 209 500.5 503> 418 72<310 356 310 352> 478 20G<72 85.5> 486 9
VStem: 32 644<486 486>
LayerCount: 2
Fore
SplineSet
140 43 m 2,0,-1
 32 486 l 1,1,2
 59 498 59 498 78 498 c 0,3,4
 106 498 106 498 112 468 c 2,5,-1
 165 236 l 2,6,7
 179 174 179 174 201 64 c 0,8,9
 203 55 203 55 209 55 c 1,10,-1
 310 490 l 1,11,12
 325 493 325 493 355 493 c 128,-1,13
 385 493 385 493 400 490 c 1,14,-1
 495 64 l 2,15,16
 497 55 497 55 503 55 c 1,17,18
 522 144 522 144 544 236 c 2,19,-1
 604 491 l 1,20,21
 616 495 616 495 638 495 c 0,22,23
 660 495 660 495 674 489 c 1,24,-1
 676 486 l 1,25,-1
 552 -1 l 1,26,27
 531 -4 531 -4 500.5 -4 c 0,28,29
 470 -4 470 -4 456.5 5 c 128,-1,30
 443 14 443 14 437 43 c 2,31,-1
 402 199 l 2,32,33
 398 215 398 215 382 295.5 c 128,-1,34
 366 376 366 376 356 418 c 1,35,-1
 352 418 l 1,36,37
 347 391 347 391 304 200 c 1,38,-1
 256 0 l 1,39,40
 233 -4 233 -4 203 -4 c 0,41,42
 173 -4 173 -4 160 5 c 128,-1,43
 147 14 147 14 140 43 c 2,0,-1
EndSplineSet
Substitution2: "'smcp' Lowercase to Small Capitals lookup 2 subtable" w.smcp
Substitution2: "'aalt' Access All Alternates lookup 0 subtable" w.smcp
EndChar

StartChar: x
Encoding: 120 120 28
Width: 449
Flags: HMW
HStem: 475 20G<360.5 374> 479 20G<78.5 96> 482 13
VStem: 22 405<8 11>
LayerCount: 2
Fore
SplineSet
334 490 m 1,0,1
 344 495 344 495 367 495 c 0,2,3
 390 495 390 495 402 488 c 1,4,-1
 405 482 l 1,5,-1
 264 260 l 1,6,-1
 427 11 l 1,7,8
 399 -7 399 -7 375.5 -7 c 0,9,10
 352 -7 352 -7 338 15 c 2,11,-1
 219 199 l 1,12,-1
 94 -1 l 1,13,14
 84 -5 84 -5 61.5 -5 c 0,15,16
 39 -5 39 -5 25 2 c 1,17,-1
 22 8 l 1,18,-1
 181 257 l 1,19,-1
 36 481 l 1,20,21
 62 499 62 499 85.5 499 c 0,22,23
 109 499 109 499 124 476 c 2,24,-1
 227 317 l 1,25,-1
 334 490 l 1,0,1
EndSplineSet
Substitution2: "'smcp' Lowercase to Small Capitals lookup 2 subtable" x.smcp
Substitution2: "'aalt' Access All Alternates lookup 0 subtable" x.smcp
EndChar

StartChar: y
Encoding: 121 121 29
Width: 452
Flags: HMW
HStem: -218 56<78.5 128 78.5 149> -4 53<225 241> 478 20G<61 75.5> 486 9
VStem: 8 428
LayerCount: 2
Fore
SplineSet
436 486 m 1,0,-1
 299 17 l 2,1,2
 261 -112 261 -112 218 -165 c 128,-1,3
 175 -218 175 -218 89 -218 c 0,4,5
 45 -218 45 -218 8 -205 c 1,6,7
 5 -177 5 -177 24 -151 c 1,8,9
 55 -162 55 -162 90 -162 c 0,10,11
 143 -162 143 -162 171 -126 c 128,-1,12
 199 -90 199 -90 222 -14 c 2,13,-1
 225 -4 l 1,14,15
 199 -2 199 -2 185.5 8 c 128,-1,16
 172 18 172 18 163 45 c 2,17,-1
 23 485 l 1,18,19
 54 498 54 498 67 498 c 0,20,21
 96 498 96 498 106 463 c 2,22,-1
 185 212 l 2,23,24
 189 200 189 200 231 56 c 0,25,26
 233 49 233 49 241 49 c 1,27,-1
 363 491 l 1,28,29
 376 495 376 495 397.5 495 c 0,30,31
 419 495 419 495 434 489 c 1,32,-1
 436 486 l 1,0,-1
EndSplineSet
Substitution2: "'smcp' Lowercase to Small Capitals lookup 2 subtable" y.smcp
Substitution2: "'aalt' Access All Alternates lookup 0 subtable" y.smcp
EndChar

StartChar: z
Encoding: 122 122 30
Width: 444
Flags: HMW
HStem: 0 61<124 124 227 282 282 309> 430 60<61 179 59 387>
VStem: 41 363<40 43.5 26 50>
LayerCount: 2
Fore
SplineSet
54 77 m 2,0,-1
 242 335 l 2,1,2
 250 345 250 345 320 432 c 1,3,-1
 317 435 l 1,4,5
 277 430 277 430 179 430 c 2,6,-1
 59 430 l 1,7,8
 57 439 57 439 57 456.5 c 0,9,10
 57 474 57 474 61 490 c 1,11,-1
 387 490 l 1,12,13
 400 459 400 459 400 445 c 0,14,15
 400 431 400 431 388 414 c 2,16,-1
 203 162 l 2,17,18
 180 131 180 131 124 61 c 1,19,-1
 127 58 l 1,20,21
 180 61 180 61 227 61 c 2,22,-1
 282 61 l 2,23,24
 366 61 366 61 398 73 c 1,25,26
 404 57 404 57 404 38 c 0,27,28
 404 0 404 0 350 0 c 2,29,-1
 53 0 l 1,30,31
 41 35 41 35 41 47.5 c 0,32,33
 41 60 41 60 54 77 c 2,0,-1
EndSplineSet
Substitution2: "'smcp' Lowercase to Small Capitals lookup 2 subtable" z.smcp
Substitution2: "'aalt' Access All Alternates lookup 0 subtable" z.smcp
EndChar

StartChar: A
Encoding: 65 65 31
Width: 596
Flags: HMW
HStem: -4 8 177 67<223.5 352 237 352 352 354.5 237 361> 600 83<255 296 255 291>
VStem: 26 544<4 4>
LayerCount: 2
Fore
SplineSet
431 178 m 1,0,-1
 361 177 l 1,1,-1
 227 177 l 1,2,-1
 157 178 l 1,3,-1
 99 -1 l 1,4,5
 86 -4 86 -4 67 -4 c 128,-1,6
 48 -4 48 -4 28 1 c 1,7,-1
 26 4 l 1,8,-1
 255 683 l 1,9,10
 272 686 272 686 300 686 c 128,-1,11
 328 686 328 686 341 683 c 1,12,-1
 570 4 l 1,13,14
 554 -6 554 -6 530 -6 c 128,-1,15
 506 -6 506 -6 496 2 c 128,-1,16
 486 10 486 10 479 34 c 2,17,-1
 431 178 l 1,0,-1
179 243 m 1,18,-1
 237 244 l 1,19,-1
 352 244 l 2,20,21
 353 244 353 244 376.5 243.5 c 128,-1,22
 400 243 400 243 410 243 c 1,23,-1
 347 433 l 2,24,25
 309 550 309 550 296 600 c 1,26,-1
 291 600 l 1,27,28
 272 526 272 526 257 481 c 2,29,-1
 179 243 l 1,18,-1
EndSplineSet
Substitution2: "'c2sc' Capitals to Small Capitals lookup 3 subtable" a.smcp
Substitution2: "'aalt' Access All Alternates lookup 0 subtable" a.smcp
EndChar

StartChar: B
Encoding: 66 66 32
Width: 600
Flags: HMW
HStem: -3 64<293.5 378.5 293.5 398> 327 64<175 298 298 308 175 298> 622 64<284.5 356>
VStem: 99 76<60 327 60 391 391 623> 430 80<481 534> 462 81<166 220.5>
LayerCount: 2
Fore
SplineSet
311 -3 m 1,0,-1
 105 0 l 1,1,-1
 99 6 l 1,2,-1
 99 677 l 1,3,-1
 105 683 l 1,4,-1
 300 686 l 1,5,6
 409 686 409 686 459.5 638 c 128,-1,7
 510 590 510 590 510 506 c 0,8,9
 510 457 510 457 484 418.5 c 128,-1,10
 458 380 458 380 412 364 c 1,11,12
 467 349 467 349 505 301 c 128,-1,13
 543 253 543 253 543 180 c 128,-1,14
 543 107 543 107 487.5 52 c 128,-1,15
 432 -3 432 -3 311 -3 c 1,0,-1
175 60 m 1,16,-1
 317 61 l 2,17,18
 399 61 399 61 430.5 100.5 c 128,-1,19
 462 140 462 140 462 194 c 0,20,21
 462 239.3125 462 239.3125 431 280 c 0,22,23
 415 301 415 301 383 314 c 128,-1,24
 351 327 351 327 308 327 c 2,25,-1
 175 327 l 1,26,-1
 175 60 l 1,16,-1
175 623 m 1,27,-1
 175 391 l 1,28,-1
 298 391 l 2,29,30
 372 391 372 391 401 425 c 128,-1,31
 430 459 430 459 430 507 c 0,32,33
 430 622 430 622 301 622 c 0,34,35
 212 622 212 622 175 623 c 1,27,-1
EndSplineSet
Substitution2: "'c2sc' Capitals to Small Capitals lookup 3 subtable" b.smcp
Substitution2: "'aalt' Access All Alternates lookup 0 subtable" b.smcp
EndChar

StartChar: C
Encoding: 67 67 33
Width: 600
Flags: HMW
HStem: -12 67<263 348.5 263 357> 631 64<262 379>
VStem: 57 81<249 434 249 461.5>
LayerCount: 2
Fore
SplineSet
476 467 m 1,0,1
 478 530 478 530 439.5 580.5 c 128,-1,2
 401 631 401 631 316.5 631 c 128,-1,3
 232 631 232 631 185 556 c 128,-1,4
 138 481 138 481 138 343 c 128,-1,5
 138 205 138 205 186.5 130 c 128,-1,6
 235 55 235 55 322.5 55 c 128,-1,7
 410 55 410 55 502 134 c 1,8,9
 533 116 533 116 544 84 c 1,10,11
 502 41 502 41 440 14.5 c 128,-1,12
 378 -12 378 -12 310.5 -12 c 128,-1,13
 243 -12 243 -12 193 17 c 128,-1,14
 143 46 143 46 114 96 c 0,15,16
 57 194.275862069 57 194.275862069 57 338 c 0,17,18
 57 514 57 514 131.5 604.5 c 128,-1,19
 206 695 206 695 315 695 c 128,-1,20
 424 695 424 695 488.5 638 c 128,-1,21
 553 581 553 581 553 507 c 0,22,23
 553 462 553 462 510 462 c 0,24,25
 494 462 494 462 476 467 c 1,0,1
EndSplineSet
Substitution2: "'c2sc' Capitals to Small Capitals lookup 3 subtable" c.smcp
Substitution2: "'aalt' Access All Alternates lookup 0 subtable" c.smcp
EndChar

StartChar: D
Encoding: 68 68 34
Width: 638
Flags: HMW
HStem: -4 64<283.5 333.5> 622 64<283.5 333.5 268.5 390.5>
VStem: 99 76<61 623 61 677 61 677> 498 81<282.5 399 282.5 405.5>
LayerCount: 2
Fore
SplineSet
557.5 512.5 m 128,-1,1
 579 441 579 441 579 340.5 c 128,-1,2
 579 240 579 240 558 169 c 128,-1,3
 537 98 537 98 476 47 c 0,4,5
 447 22 447 22 399 9 c 128,-1,6
 351 -4 351 -4 315 -4 c 128,-1,7
 279 -4 279 -4 105 0 c 1,8,-1
 99 6 l 1,9,-1
 99 677 l 1,10,-1
 105 683 l 1,11,12
 192 686 192 686 308 686 c 0,13,14
 351 686 351 686 399 673 c 128,-1,15
 447 660 447 660 476 635 c 0,16,0
 536 584 536 584 557.5 512.5 c 128,-1,1
175 61 m 1,17,-1
 307 60 l 2,18,19
 355 60 355 60 390.5 77.5 c 128,-1,20
 426 95 426 95 446.5 121.5 c 128,-1,21
 467 148 467 148 479 187.5 c 0,22,23
 498 250.041666667 498 250.041666667 498 317.520833333 c 128,-1,24
 498 385 498 385 494.5 420.5 c 128,-1,25
 491 456 491 456 479 495 c 128,-1,26
 467 534 467 534 446.5 560.5 c 128,-1,27
 426 587 426 587 390.5 604.5 c 128,-1,28
 355 622 355 622 307 622 c 2,29,-1
 175 623 l 1,30,-1
 175 61 l 1,17,-1
EndSplineSet
Substitution2: "'c2sc' Capitals to Small Capitals lookup 3 subtable" d.smcp
Substitution2: "'aalt' Access All Alternates lookup 0 subtable" d.smcp
EndChar

StartChar: E
Encoding: 69 69 35
Width: 563
Flags: HMW
HStem: 0 67<234 457> 313 66<225 440 233 440> 617 66<172 233 233 488>
VStem: 99 74<96 103 103 314 378 555>
LayerCount: 2
Fore
SplineSet
173 103 m 1,0,-1
 172 65 l 1,1,2
 206 67 206 67 234 67 c 2,3,-1
 508 67 l 1,4,5
 508 46 508 46 506 35 c 0,6,7
 499 0 499 0 457 0 c 2,8,-1
 142 0 l 2,9,10
 122 0 122 0 110.5 13.5 c 128,-1,11
 99 27 99 27 99 50 c 2,12,-1
 99 677 l 1,13,-1
 105 683 l 1,14,-1
 491 683 l 1,15,16
 493 671 493 671 493 651.5 c 128,-1,17
 493 632 493 632 488 617 c 1,18,-1
 172 617 l 1,19,-1
 173 555 l 1,20,-1
 173 378 l 1,21,22
 233 379 l 1,23,-1
 440 379 l 1,24,25
 443 361 443 361 443 345.5 c 128,-1,26
 443 330 443 330 440 313 c 1,27,-1
 233 313 l 2,28,29
 195 313 195 313 173 314 c 1,30,-1
 173 103 l 1,0,-1
EndSplineSet
Substitution2: "'c2sc' Capitals to Small Capitals lookup 3 subtable" e.smcp
Substitution2: "'aalt' Access All Alternates lookup 0 subtable" e.smcp
EndChar

StartChar: F
Encoding: 70 70 36
Width: 514
Flags: HMW
HStem: 313 66<222.5 435 230 435> 616 67<261.5 283 283 442>
VStem: 99 76<0 314 378 478>
LayerCount: 2
Fore
SplineSet
175 378 m 1,0,-1
 230 379 l 1,1,-1
 435 379 l 1,2,3
 438 361 438 361 438 345.5 c 128,-1,4
 438 330 438 330 435 313 c 1,5,-1
 230 313 l 2,6,7
 195 313 195 313 175 314 c 1,8,-1
 175 0 l 1,9,10
 160 -3 160 -3 137 -3 c 128,-1,11
 114 -3 114 -3 99 0 c 1,12,-1
 99 677 l 1,13,-1
 105 683 l 1,14,-1
 484 683 l 1,15,16
 489 668 489 668 489 651 c 0,17,18
 489 616 489 616 442 616 c 2,19,-1
 283 616 l 2,20,21
 204 616 204 616 174 618 c 1,22,-1
 175 478 l 1,23,-1
 175 378 l 1,0,-1
EndSplineSet
Substitution2: "'c2sc' Capitals to Small Capitals lookup 3 subtable" f.smcp
Substitution2: "'aalt' Access All Alternates lookup 0 subtable" f.smcp
EndChar

StartChar: G
Encoding: 71 71 37
Width: 637
Flags: HMW
HStem: -12 67<275 375 275 375.5> 275 69<372.5 384 384 493> 626 69<284.5 373>
VStem: 57 81<251 445 243.5 467> 492 75<78 214 214 226>
LayerCount: 2
Fore
SplineSet
355 344 m 1,0,-1
 507 344 l 2,1,2
 539 344 539 344 553 331.5 c 128,-1,3
 567 319 567 319 567 291 c 2,4,-1
 567 32 l 1,5,6
 460 -12 460 -12 329 -12 c 0,7,8
 255 -12 255 -12 200 17.5 c 128,-1,9
 145 47 145 47 115 98.5 c 0,10,11
 57 198.066666667 57 198.066666667 57 337 c 0,12,13
 57 431 57 431 81.5 502 c 128,-1,14
 106 573 106 573 147 614 c 0,15,16
 228 695 228 695 341 695 c 0,17,18
 402 695 402 695 463 675 c 128,-1,19
 524 655 524 655 566 620 c 1,20,21
 558 583 558 583 525 561 c 1,22,23
 444 626 444 626 336 626 c 0,24,25
 250 626 250 626 194 557 c 128,-1,26
 138 488 138 488 138 336 c 0,27,28
 138 55 138 55 343 55 c 0,29,30
 423 55 423 55 492 78 c 1,31,-1
 492 214 l 2,32,33
 492 258 492 258 493 275 c 1,34,-1
 384 275 l 2,35,36
 349 275 349 275 349 311 c 0,37,38
 349 324 349 324 355 344 c 1,0,-1
EndSplineSet
Substitution2: "'c2sc' Capitals to Small Capitals lookup 3 subtable" g.smcp
Substitution2: "'aalt' Access All Alternates lookup 0 subtable" g.smcp
EndChar

StartChar: H
Encoding: 72 72 38
Width: 668
Flags: HMW
HStem: 319 68<231.5 433 235 433>
VStem: 99 76<0 246 446 460 460 683> 493 76<0 246 246 260 460 683 0 683>
LayerCount: 2
Fore
SplineSet
494 386 m 1,0,-1
 493 460 l 1,1,-1
 493 683 l 1,2,3
 506 686 506 686 529 686 c 128,-1,4
 552 686 552 686 569 683 c 1,5,-1
 569 0 l 1,6,7
 552.5 -3 552.5 -3 530.25 -3 c 128,-1,8
 508 -3 508 -3 493 0 c 1,9,-1
 493 246 l 1,10,-1
 494 320 l 1,11,-1
 433 319 l 1,12,-1
 235 319 l 1,13,-1
 174 320 l 1,14,-1
 175 246 l 1,15,-1
 175 0 l 1,16,17
 160 -3 160 -3 137 -3 c 128,-1,18
 114 -3 114 -3 99 0 c 1,19,-1
 99 683 l 1,20,21
 114 686 114 686 137 686 c 128,-1,22
 160 686 160 686 175 683 c 1,23,-1
 175 460 l 1,24,-1
 174 386 l 1,25,-1
 235 387 l 1,26,-1
 433 387 l 1,27,-1
 494 386 l 1,0,-1
EndSplineSet
Substitution2: "'c2sc' Capitals to Small Capitals lookup 3 subtable" h.smcp
Substitution2: "'aalt' Access All Alternates lookup 0 subtable" h.smcp
EndChar

StartChar: I
Encoding: 73 73 39
Width: 282
Flags: HMW
HStem: -3 689<133.5 147>
VStem: 103 76<0 683 0 683>
LayerCount: 2
Fore
SplineSet
103 0 m 1,0,-1
 103 683 l 1,1,2
 117 686 117 686 139.5 686 c 0,3,4
 162 686 162 686 179 683 c 1,5,-1
 179 0 l 1,6,7
 162 -3 162 -3 139.5 -3 c 0,8,9
 117 -3 117 -3 103 0 c 1,0,-1
EndSplineSet
Substitution2: "'c2sc' Capitals to Small Capitals lookup 3 subtable" i.smcp
Substitution2: "'aalt' Access All Alternates lookup 0 subtable" i.smcp
EndChar

StartChar: J
Encoding: 74 74 40
Width: 436
Flags: HMW
HStem: -10 66<138 201.5 138 244.5>
VStem: 274 77<226 241 241 683>
LayerCount: 2
Fore
SplineSet
41 90 m 1,0,1
 96 56 96 56 159.5 56 c 128,-1,2
 223 56 223 56 248.5 94.5 c 128,-1,3
 274 133 274 133 274 226 c 2,4,-1
 274 683 l 1,5,6
 291 686 291 686 313.5 686 c 128,-1,7
 336 686 336 686 351 683 c 1,8,-1
 351 241 l 2,9,10
 351 146.833333333 351 146.833333333 335.5 102.916666667 c 128,-1,11
 320 59 320 59 300 37.5 c 0,12,13
 255.813953488 -10 255.813953488 -10 166.406976744 -10 c 128,-1,14
 77 -10 77 -10 10 31 c 1,15,16
 17 65 17 65 41 90 c 1,0,1
EndSplineSet
Substitution2: "'c2sc' Capitals to Small Capitals lookup 3 subtable" j.smcp
Substitution2: "'aalt' Access All Alternates lookup 0 subtable" j.smcp
EndChar

StartChar: K
Encoding: 75 75 41
Width: 583
Flags: HMW
HStem: 318 68<250 256.5 248 289> 675 10
VStem: 99 76<0 316 0 384 384 683>
LayerCount: 2
Fore
SplineSet
561 21 m 1,0,1
 544 -5 544 -5 514.5 -5 c 0,2,3
 485 -5 485 -5 474 6.5 c 128,-1,4
 463 18 463 18 453 45 c 2,5,-1
 389 208 l 2,6,7
 365 269 365 269 335.5 293.5 c 128,-1,8
 306 318 306 318 261.5 318 c 0,9,10
 217 318 217 318 175 316 c 1,11,-1
 175 0 l 1,12,13
 160 -3 160 -3 137 -3 c 0,14,15
 114 -3 114 -3 99 0 c 1,16,-1
 99 683 l 1,17,18
 114 686 114 686 137 686 c 0,19,20
 160 686 160 686 175 683 c 1,21,-1
 175 384 l 1,22,-1
 248 386 l 2,23,24
 267 386 267 386 282 410 c 2,25,-1
 429 648 l 2,26,27
 442 669 442 669 452 677 c 128,-1,28
 462 685 462 685 478 685 c 0,29,30
 494 685 494 685 524 683 c 1,31,-1
 530 675 l 1,32,-1
 362 403 l 2,33,34
 347 379 347 379 331 366 c 1,35,36
 379 359 379 359 406 329.5 c 128,-1,37
 433 300 433 300 459 238 c 1,38,-1
 520 82 l 2,39,40
 537 40 537 40 561 21 c 1,0,1
EndSplineSet
Substitution2: "'c2sc' Capitals to Small Capitals lookup 3 subtable" k.smcp
Substitution2: "'aalt' Access All Alternates lookup 0 subtable" k.smcp
EndChar

StartChar: L
Encoding: 76 76 42
Width: 506
Flags: HMW
HStem: 0 68<262 423>
VStem: 99 76<65 636 65 680 65 680>
LayerCount: 2
Fore
SplineSet
262 68 m 2,0,-1
 475 68 l 1,1,2
 475 46 475 46 472 35 c 1,3,4
 466 0 466 0 423 0 c 2,5,-1
 143 0 l 2,6,7
 124 0 124 0 111.5 13.5 c 128,-1,8
 99 27 99 27 99 51 c 2,9,-1
 99 680 l 1,10,-1
 105 686 l 1,11,-1
 135 686 l 2,12,13
 159 686 159 686 167 674.5 c 128,-1,14
 175 663 175 663 175 636 c 2,15,-1
 175 65 l 1,16,17
 220 68 220 68 262 68 c 2,0,-1
EndSplineSet
Substitution2: "'c2sc' Capitals to Small Capitals lookup 3 subtable" l.smcp
Substitution2: "'aalt' Access All Alternates lookup 0 subtable" l.smcp
EndChar

StartChar: M
Encoding: 77 77 43
Width: 793
Flags: HMW
HStem: -19 20G<84 84 709 709> 107 79<359 399 394 435> 602 81<137 200 137 195>
VStem: 84 625<1 1>
LayerCount: 2
Fore
SplineSet
84 1 m 1,0,-1
 137 683 l 1,1,2
 156 686 156 686 188.5 686 c 0,3,4
 221 686 221 686 238 683 c 1,5,-1
 353 332 l 2,6,7
 362 307 362 307 377 252 c 128,-1,8
 392 197 392 197 394 186 c 1,9,-1
 399 186 l 1,10,11
 413 255 413 255 440 332 c 1,12,-1
 555 683 l 1,13,14
 576 686 576 686 605.5 686 c 0,15,16
 635 686 635 686 656 683 c 1,17,-1
 709 1 l 1,18,19
 691 -4 691 -4 671.5 -4 c 0,20,21
 652 -4 652 -4 635 -1 c 1,22,-1
 606 413 l 2,23,24
 603 458 603 458 598 602 c 1,25,-1
 593 602 l 1,26,-1
 435 107 l 1,27,28
 411 103 411 103 395 103 c 0,29,30
 379 103 379 103 359 107 c 1,31,-1
 200 602 l 1,32,-1
 195 602 l 1,33,34
 194 577 194 577 191.5 507.5 c 128,-1,35
 189 438 189 438 187 413 c 2,36,-1
 159 -1 l 1,37,38
 141 -4 141 -4 121 -4 c 0,39,40
 101 -4 101 -4 84 1 c 1,0,-1
EndSplineSet
Substitution2: "'c2sc' Capitals to Small Capitals lookup 3 subtable" m.smcp
Substitution2: "'aalt' Access All Alternates lookup 0 subtable" m.smcp
EndChar

StartChar: N
Encoding: 78 78 44
Width: 671
Flags: HMW
HStem: 0 89<478 508 505 573> 591 92<99 167 99 164>
VStem: 99 71<0 375 0 683> 501 72<317 636 636 653>
LayerCount: 2
Fore
SplineSet
567 686 m 1,0,-1
 573 681 l 1,1,-1
 573 0 l 1,2,3
 554 -3 554 -3 526 -3 c 128,-1,4
 498 -3 498 -3 478 0 c 1,5,-1
 235 453 l 2,6,7
 205 509 205 509 167 591 c 1,8,-1
 164 591 l 1,9,10
 170 405 170 405 170 375 c 2,11,-1
 170 0 l 1,12,13
 149 -3 149 -3 133 -3 c 128,-1,14
 117 -3 117 -3 99 0 c 1,15,-1
 99 683 l 1,16,17
 117 686 117 686 144.5 686 c 128,-1,18
 172 686 172 686 192 683 c 1,19,-1
 435 230 l 2,20,21
 458.846153846 187.076923077 458.846153846 187.076923077 505 89 c 1,22,-1
 508 89 l 1,23,24
 501 217 501 217 501 317 c 2,25,-1
 501 636 l 2,26,27
 501 663 501 663 509 674.5 c 128,-1,28
 517 686 517 686 541 686 c 2,29,-1
 567 686 l 1,0,-1
EndSplineSet
Substitution2: "'c2sc' Capitals to Small Capitals lookup 3 subtable" n.smcp
Substitution2: "'aalt' Access All Alternates lookup 0 subtable" n.smcp
EndChar

StartChar: O
Encoding: 79 79 45
Width: 653
Flags: HMW
HStem: -12 64<289 363.5> 631 64<289 363.5 289 402.5>
VStem: 57 81<286 397> 514 82<286 397 286 407>
LayerCount: 2
Fore
SplineSet
138 342 m 128,-1,1
 138 288 138 288 146.5 241 c 128,-1,2
 155 194 155 194 174.5 149 c 128,-1,3
 194 104 194 104 233 78 c 128,-1,4
 272 52 272 52 326.5 52 c 128,-1,5
 381 52 381 52 419.5 78 c 128,-1,6
 458 104 458 104 477.5 149 c 128,-1,7
 497 194 497 194 505.5 241 c 128,-1,8
 514 288 514 288 514 342 c 128,-1,9
 514 396 514 396 505.5 443 c 128,-1,10
 497 490 497 490 477.5 534.5 c 128,-1,11
 458 579 458 579 419.5 605 c 128,-1,12
 381 631 381 631 326.5 631 c 128,-1,13
 272 631 272 631 233 605 c 128,-1,14
 194 579 194 579 174.5 534.5 c 128,-1,15
 155 490 155 490 146.5 443 c 128,-1,0
 138 396 138 396 138 342 c 128,-1,1
163 46 m 0,16,17
 57 140 57 140 57 341.5 c 128,-1,18
 57 543 57 543 163 637 c 0,19,20
 228 695 228 695 326.5 695 c 128,-1,21
 425 695 425 695 490 637 c 0,22,23
 544 589 544 589 570 510 c 128,-1,24
 596 431 596 431 596 342 c 0,25,26
 596 141 596 141 490 46 c 0,27,28
 425 -12 425 -12 326.5 -12 c 128,-1,29
 228 -12 228 -12 163 46 c 0,16,17
EndSplineSet
Substitution2: "'c2sc' Capitals to Small Capitals lookup 3 subtable" o.smcp
Substitution2: "'aalt' Access All Alternates lookup 0 subtable" o.smcp
EndChar

StartChar: P
Encoding: 80 80 46
Width: 556
Flags: HMW
HStem: 257 64<285 296> 622 64<281.5 353>
VStem: 99 76<0 257 0 320 320 623> 435 81<438.5 506.5>
LayerCount: 2
Fore
SplineSet
105 683 m 1,0,-1
 296 686 l 1,1,2
 395 686 395 686 455.5 630.5 c 128,-1,3
 516 575 516 575 516 472 c 128,-1,4
 516 369 516 369 456 313 c 128,-1,5
 396 257 396 257 296 257 c 2,6,-1
 175 257 l 1,7,-1
 175 0 l 1,8,9
 160 -3 160 -3 137 -3 c 128,-1,10
 114 -3 114 -3 99 0 c 1,11,-1
 99 677 l 1,12,-1
 105 683 l 1,0,-1
175 623 m 1,13,-1
 175 320 l 1,14,15
 216 321 216 321 298 321 c 0,16,17
 377.914893617 321 377.914893617 321 408 371.5 c 0,18,19
 435 416.821428571 435 416.821428571 435 475.410714286 c 128,-1,20
 435 534 435 534 404 578 c 128,-1,21
 373 622 373 622 292.5 622 c 128,-1,22
 212 622 212 622 175 623 c 1,13,-1
EndSplineSet
Substitution2: "'c2sc' Capitals to Small Capitals lookup 3 subtable" p.smcp
Substitution2: "'aalt' Access All Alternates lookup 0 subtable" p.smcp
EndChar

StartChar: Q
Encoding: 81 81 47
Width: 642
Flags: HMW
HStem: -118 57 -12 67<289 328.5> 631 64<283.5 358.5 283.5 397.5>
VStem: 57 81<287.5 395.5> 503 82<288 395.5 288 408>
LayerCount: 2
Fore
SplineSet
462 -98 m 2,0,-1
 340 -11 l 1,1,2
 336 -12 336 -12 326 -12 c 0,3,4
 222 -12 222 -12 158 44 c 0,5,6
 57 134 57 134 57 341.5 c 0,7,8
 57 549 57 549 158 639 c 0,9,10
 220 695 220 695 320.5 695 c 0,11,12
 421 695 421 695 483 639 c 0,13,14
 585 549 585 549 585 344.5 c 0,15,16
 585 140 585 140 487 51 c 0,17,18
 456 23 456 23 430 14 c 1,19,-1
 452 -1 l 2,20,21
 502 -36 502 -36 528 -48 c 128,-1,22
 554 -60 554 -60 579 -61 c 1,23,24
 577 -90 577 -90 560.5 -104 c 128,-1,25
 544 -118 544 -118 517.5 -118 c 0,26,27
 491 -118 491 -118 462 -98 c 2,0,-1
138 343 m 0,28,29
 138 55 138 55 320.5 55 c 0,30,31
 503 55 503 55 503 343 c 0,32,33
 503 631 503 631 320.5 631 c 0,34,35
 138 631 138 631 138 343 c 0,28,29
EndSplineSet
Substitution2: "'c2sc' Capitals to Small Capitals lookup 3 subtable" q.smcp
Substitution2: "'aalt' Access All Alternates lookup 0 subtable" q.smcp
EndChar

StartChar: R
Encoding: 82 82 48
Width: 592
Flags: HMW
HStem: 288 66<175 361> 622 64<289.5 361>
VStem: 99 76<0 288 0 352 352 623> 444 80<456.5 520.5>
LayerCount: 2
Fore
SplineSet
105 683 m 1,0,-1
 307 686 l 1,1,2
 410 686 410 686 467 633.5 c 128,-1,3
 524 581 524 581 524 488 c 0,4,5
 524 421 524 421 489 372.5 c 128,-1,6
 454 324 454 324 393 306 c 1,7,8
 435 292 435 292 460 225 c 2,9,-1
 512 90 l 1,10,11
 534 36 534 36 555 19 c 1,12,13
 539 -6 539 -6 502 -6 c 0,14,15
 480 -6 480 -6 469 5.5 c 128,-1,16
 458 17 458 17 447 44 c 2,17,-1
 389 196 l 2,18,19
 372 241 372 241 348.5 264.5 c 128,-1,20
 325 288 325 288 279 288 c 2,21,-1
 175 288 l 1,22,-1
 175 0 l 1,23,24
 158 -3 158 -3 136 -3 c 128,-1,25
 114 -3 114 -3 99 0 c 1,26,-1
 99 677 l 1,27,-1
 105 683 l 1,0,-1
175 623 m 1,28,-1
 175 352 l 1,29,30
 217 354 217 354 299 354 c 128,-1,31
 381 354 381 354 412.5 393 c 128,-1,32
 444 432 444 432 444 488.5 c 128,-1,33
 444 545 444 545 412.5 583.5 c 128,-1,34
 381 622 381 622 296.5 622 c 128,-1,35
 212 622 212 622 175 623 c 1,28,-1
EndSplineSet
Substitution2: "'c2sc' Capitals to Small Capitals lookup 3 subtable" r.smcp
Substitution2: "'aalt' Access All Alternates lookup 0 subtable" r.smcp
EndChar

StartChar: S
Encoding: 83 83 49
Width: 555
Flags: HMW
HStem: -12 67<240.5 320.5 240.5 351> 627 20G 630 65<247 314>
VStem: 69 78<489.5 550 489.5 560> 427 79
LayerCount: 2
Fore
SplineSet
39 63 m 1,0,1
 42 100 42 100 74 124 c 1,2,3
 176 55 176 55 274 55 c 0,4,5
 344 55 344 55 385 84.5 c 128,-1,6
 426 114 426 114 427 165 c 0,7,8
 428 244 428 244 321 291 c 2,9,-1
 204 342 l 2,10,11
 69 401 69 401 69 510 c 0,12,13
 69 587 69 587 129 641 c 128,-1,14
 189 695 189 695 287 695 c 0,15,16
 385 695 385 695 485 647 c 1,17,18
 485 609 485 609 454 583 c 1,19,20
 362 630 362 630 294 630 c 0,21,22
 226 630 226 630 186.5 598.5 c 128,-1,23
 147 567 147 567 147 523 c 0,24,25
 147 479 147 479 172.5 455 c 128,-1,26
 198 431 198 431 244 411 c 2,27,-1
 357 362 l 2,28,29
 506 298 506 298 506 181 c 0,30,31
 506 93 506 93 446.5 40.5 c 128,-1,32
 387 -12 387 -12 264.5 -12 c 0,33,34
 142 -12 142 -12 39 63 c 1,0,1
EndSplineSet
Substitution2: "'c2sc' Capitals to Small Capitals lookup 3 subtable" s.smcp
Substitution2: "'aalt' Access All Alternates lookup 0 subtable" s.smcp
EndChar

StartChar: T
Encoding: 84 84 50
Width: 483
Flags: HMW
HStem: 617 66<21 149 21 461 329 335 335 420>
VStem: 203 77<0 618 0 618>
LayerCount: 2
Fore
SplineSet
335 617 m 1,0,-1
 280 618 l 1,1,-1
 280 0 l 1,2,3
 264 -3 264 -3 242 -3 c 128,-1,4
 220 -3 220 -3 203 0 c 1,5,-1
 203 618 l 1,6,-1
 149 617 l 1,7,-1
 21 617 l 1,8,9
 18 634 18 634 18 649.5 c 128,-1,10
 18 665 18 665 21 683 c 1,11,-1
 461 683 l 1,12,13
 467 670 467 670 467 651 c 0,14,15
 467 617 467 617 420 617 c 2,16,-1
 335 617 l 1,0,-1
EndSplineSet
Substitution2: "'c2sc' Capitals to Small Capitals lookup 3 subtable" t.smcp
Substitution2: "'aalt' Access All Alternates lookup 0 subtable" t.smcp
EndChar

StartChar: U
Encoding: 85 85 51
Width: 666
Flags: HMW
HStem: -12 63<281 385.5 281 403.5>
VStem: 91 76<233 234 234 636> 499 77<234 683>
LayerCount: 2
Fore
SplineSet
576 683 m 1,0,-1
 576 233 l 2,1,2
 576 114 576 114 509.5 51 c 128,-1,3
 443 -12 443 -12 333 -12 c 0,4,5
 223 -12 223 -12 157 51 c 128,-1,6
 91 114 91 114 91 233 c 2,7,-1
 91 680 l 1,8,-1
 97 686 l 1,9,-1
 127 686 l 2,10,11
 151 686 151 686 159 674.5 c 128,-1,12
 167 663 167 663 167 636 c 2,13,-1
 167 234 l 2,14,15
 167 146 167 146 210.5 98.5 c 128,-1,16
 254 51 254 51 333 51 c 128,-1,17
 412 51 412 51 455.5 98 c 128,-1,18
 499 145 499 145 499 234 c 2,19,-1
 499 683 l 1,20,21
 514 686 514 686 537 686 c 0,22,23
 560 686 560 686 576 683 c 1,0,-1
EndSplineSet
Substitution2: "'c2sc' Capitals to Small Capitals lookup 3 subtable" u.smcp
Substitution2: "'aalt' Access All Alternates lookup 0 subtable" u.smcp
EndChar

StartChar: V
Encoding: 86 86 52
Width: 557
Flags: HMW
HStem: -4 78<262 290> 676 10
VStem: 27 509<676 677>
LayerCount: 2
Fore
SplineSet
290 74 m 1,0,-1
 464 683 l 1,1,2
 477.5 686 477.5 686 496.75 686 c 0,3,4
 516 686 516 686 532 682 c 1,5,-1
 536 676 l 1,6,-1
 332 -1 l 1,7,8
 302 -4 302 -4 277.5 -4 c 0,9,10
 253 -4 253 -4 240.5 3.5 c 128,-1,11
 228 11 228 11 220 36 c 2,12,-1
 27 677 l 1,13,14
 53 689 53 689 75 689 c 0,15,16
 107 689 107 689 117 652 c 2,17,-1
 236 249 l 2,18,19
 252 196 252 196 282 83 c 0,20,21
 284 74 284 74 290 74 c 1,0,-1
EndSplineSet
Substitution2: "'c2sc' Capitals to Small Capitals lookup 3 subtable" v.smcp
Substitution2: "'aalt' Access All Alternates lookup 0 subtable" v.smcp
EndChar

StartChar: W
Encoding: 87 87 53
Width: 821
Flags: HMW
HStem: -4 67<210 240> 588 80<363 416 363 410> 677 9
VStem: 39 749<677 680>
LayerCount: 2
Fore
SplineSet
168 38 m 2,0,-1
 39 680 l 1,1,2
 58 689 58 689 79.5 689 c 0,3,4
 101 689 101 689 109.5 680 c 128,-1,5
 118 671 118 671 123 648 c 2,6,-1
 197 265 l 1,7,-1
 231 73 l 2,8,9
 232 66 232 66 233.5 64.5 c 128,-1,10
 235 63 235 63 240 63 c 1,11,-1
 363 668 l 1,12,13
 385 671 385 671 416 671 c 0,14,15
 447 671 447 671 464 668 c 1,16,-1
 577 73 l 2,17,18
 579 63 579 63 585 63 c 1,19,20
 594 113 594 113 624 265 c 1,21,-1
 712 683 l 1,22,23
 727 686 727 686 748 686 c 0,24,25
 769 686 769 686 784 682 c 1,26,-1
 788 677 l 1,27,-1
 639 1 l 1,28,29
 614 -4 614 -4 580.5 -4 c 0,30,31
 547 -4 547 -4 535 4.5 c 128,-1,32
 523 13 523 13 519 37 c 2,33,-1
 463 333 l 2,34,35
 431 504 431 504 416 588 c 1,36,-1
 410 588 l 1,37,38
 381 429 381 429 360 333 c 2,39,-1
 290 0 l 1,40,41
 263 -4 263 -4 219.5 -4 c 0,42,43
 176 -4 176 -4 168 38 c 2,0,-1
EndSplineSet
Substitution2: "'c2sc' Capitals to Small Capitals lookup 3 subtable" w.smcp
Substitution2: "'aalt' Access All Alternates lookup 0 subtable" w.smcp
EndChar

StartChar: X
Encoding: 88 88 54
Width: 572
Flags: HMW
HStem: -6 695<95 504>
VStem: 23 525<9 12>
LayerCount: 2
Fore
SplineSet
452 683 m 1,0,1
 464 687 464 687 487.5 687 c 0,2,3
 511 687 511 687 523 680 c 1,4,-1
 526 674 l 1,5,-1
 333 362 l 1,6,-1
 548 12 l 1,7,8
 526 -6 526 -6 497 -6 c 0,9,10
 468 -6 468 -6 448 26 c 2,11,-1
 281 297 l 1,12,-1
 100 0 l 1,13,14
 88 -4 88 -4 64 -4 c 0,15,16
 40 -4 40 -4 26 3 c 1,17,-1
 23 9 l 1,18,-1
 242 360 l 1,19,-1
 51 671 l 1,20,21
 75 689 75 689 103.5 689 c 0,22,23
 132 689 132 689 151 657 c 2,24,-1
 294 425 l 1,25,-1
 452 683 l 1,0,1
EndSplineSet
Substitution2: "'c2sc' Capitals to Small Capitals lookup 3 subtable" x.smcp
Substitution2: "'aalt' Access All Alternates lookup 0 subtable" x.smcp
EndChar

StartChar: Y
Encoding: 89 89 55
Width: 481
Flags: HMW
HStem: -3 693<58.5 248>
VStem: 203 77<0 222 0 225 0 225>
LayerCount: 2
Fore
SplineSet
290 421 m 1,0,-1
 394 683 l 1,1,2
 409 687 409 687 428 687 c 128,-1,3
 447 687 447 687 465 682 c 1,4,-1
 468 676 l 1,5,-1
 280 222 l 1,6,-1
 280 0 l 1,7,8
 264 -3 264 -3 241 -3 c 128,-1,9
 218 -3 218 -3 203 0 c 1,10,-1
 203 225 l 1,11,-1
 15 674 l 1,12,13
 41 690 41 690 67.5 690 c 0,14,15
 94 690 94 690 107 653 c 1,16,-1
 203 421 l 1,17,18
 218 388 218 388 244 306 c 1,19,-1
 249 306 l 1,20,21
 254 324 254 324 290 421 c 1,0,-1
EndSplineSet
Substitution2: "'c2sc' Capitals to Small Capitals lookup 3 subtable" y.smcp
Substitution2: "'aalt' Access All Alternates lookup 0 subtable" y.smcp
EndChar

StartChar: Z
Encoding: 90 90 56
Width: 553
Flags: HMW
HStem: 0 69<241 372 372 399 241 443> 615 68<84 251 81 480>
VStem: 53 446<47 52 31.5 57.5>
LayerCount: 2
Fore
SplineSet
65 90 m 2,0,-1
 334 509 l 2,1,2
 349 532 349 532 411 619 c 1,3,-1
 408 622 l 1,4,5
 374 615 374 615 251 615 c 2,6,-1
 81 615 l 1,7,8
 78 628.5 78 628.5 78 645.25 c 0,9,10
 78 662 78 662 84 683 c 1,11,-1
 480 683 l 1,12,13
 491 644 491 644 491 630 c 128,-1,14
 491 616 491 616 479 595 c 1,15,-1
 212 181 l 2,16,17
 203 166 203 166 133 67 c 1,18,-1
 136 64 l 1,19,20
 188 69 188 69 241 69 c 2,21,-1
 372 69 l 2,22,23
 457 69 457 69 492 85 c 1,24,25
 499 64 499 64 499 45 c 0,26,27
 499 0 499 0 443 0 c 2,28,-1
 64 0 l 1,29,30
 53 36 53 36 53 53.5 c 0,31,32
 53 71 53 71 65 90 c 2,0,-1
EndSplineSet
Substitution2: "'c2sc' Capitals to Small Capitals lookup 3 subtable" z.smcp
Substitution2: "'aalt' Access All Alternates lookup 0 subtable" z.smcp
EndChar

StartChar: ampersand
Encoding: 38 38 57
Width: 604
Flags: HMW
HStem: -12 64<220 274> 331 66<235 481 302 407 479 481 481 498 302 515 479 479> 631 64<249.5 316.5>
VStem: 56 81<141.5 214 141.5 225.5> 84 81<483.5 549 481 566.5> 406 74<128.5 147 147 267 267 268>
LayerCount: 2
Fore
SplineSet
480 147 m 1,0,-1
 486 0 l 1,1,2
 472.5 -3 472.5 -3 450.75 -3 c 128,-1,3
 429 -3 429 -3 414 0 c 1,4,-1
 408 39 l 1,5,6
 331 -12 331 -12 242.5 -12 c 128,-1,7
 154 -12 154 -12 105 40.5 c 128,-1,8
 56 93 56 93 56 180 c 0,9,10
 56 246 56 246 95 297.5 c 128,-1,11
 134 349 134 349 189 366 c 1,12,13
 144 382 144 382 114 424.5 c 128,-1,14
 84 467 84 467 84 519 c 0,15,16
 84 594 84 594 139 644.5 c 128,-1,17
 194 695 194 695 289 695 c 128,-1,18
 384 695 384 695 456 668 c 1,19,20
 458 629 458 629 435 606 c 1,21,22
 350 631 350 631 290.5 631 c 128,-1,23
 231 631 231 631 198 599 c 128,-1,24
 165 567 165 567 165 514 c 128,-1,25
 165 461 165 461 199 429 c 128,-1,26
 233 397 233 397 302 397 c 2,27,-1
 481 397 l 2,28,29
 541 397 541 397 570 410 c 1,30,31
 580 397 580 397 580 373 c 0,32,33
 580 331 580 331 515 331 c 2,34,-1
 479 331 l 1,35,-1
 480 268 l 1,36,-1
 480 147 l 1,0,-1
406 267 m 2,37,38
 406 308 406 308 407 331 c 1,39,-1
 293 331 l 2,40,41
 214 331 214 331 175.5 285.5 c 128,-1,42
 137 240 137 240 137 180.5 c 128,-1,43
 137 121 137 121 169 86.5 c 128,-1,44
 201 52 201 52 258 52 c 0,45,46
 344 52 344 52 406 103 c 1,47,-1
 406 267 l 2,37,38
EndSplineSet
Substitution2: "'c2sc' Capitals to Small Capitals lookup 3 subtable" ampersand.smcp
Substitution2: "'aalt' Access All Alternates lookup 0 subtable" ampersand.smcp
EndChar

StartChar: zero
Encoding: 48 48 58
Width: 530
Flags: HMW
HStem: -12 61<247.5 282.5 247.5 296> 599 61<247.5 282.5>
VStem: 55 80<260 388 260 391> 395 80<260 388>
LayerCount: 2
Fore
SplineSet
55 324 m 128,-1,1
 55 432 55 432 70.5 497 c 128,-1,2
 86 562 86 562 129 606 c 0,3,4
 181 660 181 660 264 660 c 0,5,6
 347 660 347 660 401 606 c 0,7,8
 444 562 444 562 459.5 496.5 c 128,-1,9
 475 431 475 431 475 323.5 c 0,10,11
 475 216 475 216 459.5 151 c 128,-1,12
 444 86 444 86 401 41 c 1,13,14
 346 -12 346 -12 265 -12 c 128,-1,15
 184 -12 184 -12 129 41 c 1,16,17
 86 86 86 86 70.5 151 c 128,-1,0
 55 216 55 216 55 324 c 128,-1,1
135 324 m 128,-1,19
 135 140 135 140 184 83 c 1,20,21
 215 49 215 49 265 49 c 128,-1,22
 315 49 315 49 346 83 c 1,23,24
 395 140 395 140 395 324 c 128,-1,25
 395 508 395 508 346 565 c 1,26,27
 315 599 315 599 265 599 c 128,-1,28
 215 599 215 599 184 565 c 1,29,18
 135 508 135 508 135 324 c 128,-1,19
EndSplineSet
Substitution2: "'c2sc' Capitals to Small Capitals lookup 3 subtable" zero.smcp
Substitution2: "'aalt' Access All Alternates lookup 0 subtable" zero.smcp
EndChar

StartChar: one
Encoding: 49 49 59
Width: 530
Flags: HMW
HStem: 0 64<105 202 202 208 382 459 105 202> 628 20G<329 329>
VStem: 255 74<126 408 408 419.5>
LayerCount: 2
Fore
SplineSet
256 63 m 1,0,-1
 255 126 l 1,1,-1
 255 408 l 2,2,3
 255 409 255 409 258 532 c 1,4,5
 202 456 202 456 108 416 c 1,6,7
 82 433 82 433 75 462 c 1,8,9
 143 503 143 503 191.5 554 c 128,-1,10
 240 605 240 605 258 648 c 1,11,12
 274 652 274 652 293.5 652 c 128,-1,13
 313 652 313 652 329 648 c 1,14,-1
 329 126 l 1,15,-1
 328 63 l 1,16,-1
 382 64 l 1,17,-1
 459 64 l 1,18,19
 462 47 462 47 462 31.5 c 128,-1,20
 462 16 462 16 459 0 c 1,21,-1
 105 0 l 1,22,23
 102 16 102 16 102 32 c 128,-1,24
 102 48 102 48 105 64 c 1,25,-1
 202 64 l 1,26,-1
 256 63 l 1,0,-1
EndSplineSet
Substitution2: "'sups' Superscript lookup 5 subtable" onesuperior
Substitution2: "'c2sc' Capitals to Small Capitals lookup 3 subtable" one.smcp
AlternateSubs2: "'aalt' Access All Alternates lookup 1 subtable" one.smcp onesuperior
EndChar

StartChar: two
Encoding: 50 50 60
Width: 530
Flags: HMW
HStem: 0 68<258 415> 597 63<231.5 293>
VStem: 63 75 373 79<449.5 517.5>
LayerCount: 2
Fore
SplineSet
467 68 m 1,0,1
 467 49 467 49 466 39 c 0,2,3
 461 0 461 0 415 0 c 2,4,-1
 98 0 l 1,5,6
 63 27 63 27 63 50 c 0,7,8
 63 135 63 135 194 246 c 1,9,-1
 286 326 l 2,10,11
 330 364 330 364 351.5 400 c 128,-1,12
 373 436 373 436 373 485.5 c 128,-1,13
 373 535 373 535 341.5 566 c 128,-1,14
 310 597 310 597 264 597 c 128,-1,15
 218 597 218 597 182 570 c 128,-1,16
 146 543 146 543 125 498 c 1,17,18
 84 502 84 502 70 527 c 1,19,20
 94 583 94 583 146 621.5 c 128,-1,21
 198 660 198 660 274.5 660 c 128,-1,22
 351 660 351 660 401.5 610 c 128,-1,23
 452 560 452 560 452 482 c 0,24,25
 452 406.744186047 452 406.744186047 411.5 354 c 0,26,27
 390 326 390 326 373.5 310 c 128,-1,28
 357 294 357 294 325 266 c 2,29,-1
 245 197 l 2,30,31
 145 111 145 111 138 63 c 1,32,33
 194 68 194 68 258 68 c 2,34,-1
 467 68 l 1,0,1
EndSplineSet
Substitution2: "'sups' Superscript lookup 5 subtable" twosuperior
Substitution2: "'c2sc' Capitals to Small Capitals lookup 3 subtable" two.smcp
AlternateSubs2: "'aalt' Access All Alternates lookup 1 subtable" two.smcp twosuperior
EndChar

StartChar: three
Encoding: 51 51 61
Width: 530
Flags: HMW
HStem: -12 62<208 277.5 208 297.5> 338 55<265 277 277 299.5> 581 67<83 234 80 425>
VStem: 386 79<154.5 248.5>
LayerCount: 2
Fore
SplineSet
426 560 m 2,0,-1
 306 429 l 2,1,2
 295 417 295 417 265 393 c 1,3,-1
 277 393 l 2,4,5
 357 393 357 393 411 345 c 128,-1,6
 465 297 465 297 465 198.5 c 0,7,8
 465 100 465 100 398.5 44 c 128,-1,9
 332 -12 332 -12 246 -12 c 0,10,11
 130 -12 130 -12 55 49 c 1,12,13
 62 81 62 81 90 102 c 1,14,15
 160 50 160 50 230.5 50 c 0,16,17
 301 50 301 50 343.5 91 c 128,-1,18
 386 132 386 132 386 200.5 c 0,19,20
 386 269 386 269 352.5 303.5 c 128,-1,21
 319 338 319 338 267 338 c 0,22,23
 215 338 215 338 184 319 c 1,24,25
 159 332 159 332 151 360 c 1,26,-1
 294 518 l 2,27,28
 336 564 336 564 362 585 c 1,29,-1
 359 589 l 1,30,31
 328 581 328 581 234 581 c 2,32,-1
 80 581 l 1,33,34
 77 594 77 594 77 610.5 c 0,35,36
 77 627 77 627 83 648 c 1,37,-1
 425 648 l 1,38,39
 443 616 443 616 443 597 c 128,-1,40
 443 578 443 578 426 560 c 2,0,-1
EndSplineSet
Substitution2: "'sups' Superscript lookup 5 subtable" threesuperior
Substitution2: "'c2sc' Capitals to Small Capitals lookup 3 subtable" three.smcp
AlternateSubs2: "'aalt' Access All Alternates lookup 1 subtable" three.smcp threesuperior
EndChar

StartChar: four
Encoding: 52 52 62
Width: 530
Flags: HMW
HStem: 151 64<124 124 231 262 66 124> 633 20G<243 243>
VStem: 303 74<0 109 0 114.5 254 257 257 358 358 376>
LayerCount: 2
Fore
SplineSet
376 152 m 1,0,-1
 377 109 l 1,1,-1
 377 0 l 1,2,3
 360 -3 360 -3 339 -3 c 128,-1,4
 318 -3 318 -3 303 0 c 1,5,-1
 303 109 l 1,6,-1
 304 152 l 1,7,-1
 262 151 l 1,8,-1
 66 151 l 1,9,10
 48 183 48 183 48 194 c 128,-1,11
 48 205 48 205 69 256 c 1,12,-1
 243 653 l 1,13,14
 258 657 258 657 279.5 653 c 128,-1,15
 301 649 301 649 314 641 c 1,16,-1
 172 317 l 1,17,18
 134 234 134 234 124 215 c 1,19,-1
 126 212 l 1,20,21
 183 215 183 215 231 215 c 2,22,-1
 304 215 l 1,23,24
 303 254 l 1,25,-1
 303 358 l 2,26,27
 303 412 303 412 350 412 c 2,28,-1
 373 412 l 1,29,-1
 377 409 l 1,30,-1
 377 257 l 1,31,-1
 376 215 l 1,32,-1
 416 216 l 1,33,-1
 483 216 l 1,34,35
 485 204 485 204 485 185 c 128,-1,36
 485 166 485 166 480 151 c 1,37,-1
 416 151 l 1,38,-1
 376 152 l 1,0,-1
EndSplineSet
Substitution2: "'c2sc' Capitals to Small Capitals lookup 3 subtable" four.smcp
Substitution2: "'aalt' Access All Alternates lookup 0 subtable" four.smcp
EndChar

StartChar: five
Encoding: 53 53 63
Width: 530
Flags: HMW
HStem: -12 62<215.5 281 215.5 302> 367 62<250 281> 581 67<214 224 224 403>
VStem: 94 74 386 80<160 278>
LayerCount: 2
Fore
SplineSet
432 648 m 1,0,1
 437 631 437 631 437 617 c 0,2,3
 437 581 437 581 403 581 c 2,4,-1
 224 581 l 2,5,6
 186 581 186 581 169 582 c 1,7,-1
 169 518 l 1,8,-1
 165 436 l 1,9,-1
 162 401 l 1,10,11
 215 429 215 429 269 429 c 0,12,13
 357 429 357 429 411.5 374.5 c 128,-1,14
 466 320 466 320 466 214.5 c 0,15,16
 466 109 466 109 401.5 48.5 c 128,-1,17
 337 -12 337 -12 240 -12 c 0,18,19
 143 -12 143 -12 66 48 c 1,20,21
 71 80 71 80 100 100 c 1,22,23
 173 50 173 50 238.5 50 c 0,24,25
 304 50 304 50 345 93 c 128,-1,26
 386 136 386 136 386 217.5 c 0,27,28
 386 299 386 299 346 333 c 128,-1,29
 306 367 306 367 244 367 c 0,30,31
 182 367 182 367 123 316 c 1,32,33
 101 319 101 319 88 341 c 1,34,-1
 101 642 l 1,35,-1
 107 648 l 1,36,-1
 432 648 l 1,0,1
EndSplineSet
Substitution2: "'c2sc' Capitals to Small Capitals lookup 3 subtable" five.smcp
Substitution2: "'aalt' Access All Alternates lookup 0 subtable" five.smcp
EndChar

StartChar: six
Encoding: 54 54 64
Width: 530
Flags: HMW
HStem: -12 61<254 313 254 334.5> 365 66<265.5 311> 598 62<250.5 333.5>
VStem: 60 79<253 277 277 293 253 430.5> 399 79<161 269>
LayerCount: 2
Fore
SplineSet
421.5 52 m 128,-1,1
 365 -12 365 -12 275 -12 c 128,-1,2
 185 -12 185 -12 133 46 c 1,3,-1
 118 64 l 2,4,5
 113 70 113 70 100 95 c 128,-1,6
 87 120 87 120 80 147.5 c 0,7,8
 60 226.071428571 60 226.071428571 60 332 c 0,9,10
 60 484 60 484 123.5 572 c 128,-1,11
 187 660 187 660 309 660 c 0,12,13
 394 660 394 660 443 630 c 1,14,15
 439 592 439 592 413 575 c 1,16,17
 363 598 363 598 311 598 c 0,18,19
 225 598 225 598 183 533 c 128,-1,20
 141 468 141 468 139 364 c 1,21,22
 206 431 206 431 293 431 c 128,-1,23
 380 431 380 431 429 376 c 128,-1,24
 478 321 478 321 478 218.5 c 128,-1,0
 478 116 478 116 421.5 52 c 128,-1,1
277 365 m 0,25,26
 242 365 242 365 204 345.5 c 128,-1,27
 166 326 166 326 139 293 c 1,28,-1
 139 277 l 2,29,30
 139 153 139 153 187 91 c 0,31,32
 220 49 220 49 276 49 c 128,-1,33
 332 49 332 49 365.5 92.5 c 128,-1,34
 399 136 399 136 399 210 c 0,35,36
 399 365 399 365 277 365 c 0,25,26
EndSplineSet
Substitution2: "'c2sc' Capitals to Small Capitals lookup 3 subtable" six.smcp
Substitution2: "'aalt' Access All Alternates lookup 0 subtable" six.smcp
EndChar

StartChar: seven
Encoding: 55 55 65
Width: 530
Flags: HMW
HStem: 581 67<75 239 72 462>
VStem: 164 79
LayerCount: 2
Fore
SplineSet
75 648 m 1,0,-1
 462 648 l 1,1,2
 477 621 477 621 477 602.5 c 0,3,4
 477 584 477 584 464 564 c 2,5,-1
 433 519 l 1,6,7
 349 392 349 392 304.5 284 c 128,-1,8
 260 176 260 176 245 30 c 2,9,-1
 242 0 l 1,10,11
 227 -4 227 -4 201 -4 c 0,12,13
 175 -4 175 -4 162 0 c 1,14,-1
 166 38 l 2,15,16
 192 279 192 279 341 499 c 1,17,-1
 351 514 l 2,18,19
 365 535 365 535 403 585 c 1,20,-1
 400 588 l 1,21,22
 372 581 372 581 239 581 c 2,23,-1
 72 581 l 1,24,25
 69 594.5 69 594.5 69 611.25 c 0,26,27
 69 628 69 628 75 648 c 1,0,-1
EndSplineSet
Substitution2: "'c2sc' Capitals to Small Capitals lookup 3 subtable" seven.smcp
Substitution2: "'aalt' Access All Alternates lookup 0 subtable" seven.smcp
EndChar

StartChar: eight
Encoding: 56 56 66
Width: 530
Flags: HMW
HStem: -12 58<227.5 298 227.5 318.5> 602 58<232.5 295.5>
VStem: 54 78<127 198 127 202> 72 78<461 527 461 542> 380 77<467 528> 396 79<131 211.5 113 212.5>
LayerCount: 2
Fore
SplineSet
54 162 m 0,0,1
 54 219 54 219 88.5 266 c 128,-1,2
 123 313 123 313 176 339 c 1,3,4
 72 391 72 391 72 492 c 0,5,6
 72 566 72 566 127.5 613 c 128,-1,7
 183 660 183 660 265.5 660 c 0,8,9
 348 660 348 660 402.5 614.5 c 128,-1,10
 457 569 457 569 457 497 c 0,11,12
 457 447 457 447 429 408 c 128,-1,13
 401 369 401 369 356 346 c 1,14,15
 475 287 475 287 475 170 c 0,16,17
 475 87 475 87 413 37.5 c 128,-1,18
 351 -12 351 -12 259 -12 c 0,19,20
 167 -12 167 -12 110.5 34 c 128,-1,21
 54 80 54 80 54 162 c 0,0,1
238 316 m 1,22,-1
 237 316 l 1,23,24
 188 295 188 295 160 254.5 c 128,-1,25
 132 214 132 214 132 161.5 c 0,26,27
 132 109 132 109 169.5 77.5 c 128,-1,28
 207 46 207 46 262.5 46 c 0,29,30
 318 46 318 46 357 79.5 c 128,-1,31
 396 113 396 113 396 170.5 c 0,32,33
 396 228 396 228 354.5 262.5 c 128,-1,34
 313 297 313 297 251 313 c 1,35,-1
 238 316 l 1,22,-1
283 372 m 1,36,-1
 295 368 l 1,37,38
 334 387 334 387 357 420.5 c 128,-1,39
 380 454 380 454 380 499 c 0,40,41
 380 544 380 544 346.5 573 c 128,-1,42
 313 602 313 602 264.5 602 c 0,43,44
 216 602 216 602 183 572 c 128,-1,45
 150 542 150 542 150 494 c 0,46,47
 150 405 150 405 283 372 c 1,36,-1
EndSplineSet
Substitution2: "'c2sc' Capitals to Small Capitals lookup 3 subtable" eight.smcp
Substitution2: "'aalt' Access All Alternates lookup 0 subtable" eight.smcp
EndChar

StartChar: nine
Encoding: 57 57 67
Width: 530
Flags: HMW
HStem: -12 62<196.5 279 196.5 304> 217 66<219 264> 599 61<217 276>
VStem: 52 79<379 487 379 498> 391 79<354 371 371 395>
LayerCount: 2
Fore
SplineSet
108.5 596 m 128,-1,1
 165 660 165 660 255 660 c 128,-1,2
 345 660 345 660 397 602 c 1,3,-1
 412 584 l 2,4,5
 417 578 417 578 430 553 c 128,-1,6
 443 528 443 528 450 500.5 c 0,7,8
 470 421.928571429 470 421.928571429 470 316 c 0,9,10
 470 164 470 164 406.5 76 c 128,-1,11
 343 -12 343 -12 221 -12 c 0,12,13
 136 -12 136 -12 87 18 c 1,14,15
 91 56 91 56 117 73 c 1,16,17
 167 50 167 50 219 50 c 0,18,19
 304 50 304 50 346.5 115 c 128,-1,20
 389 180 389 180 391 284 c 1,21,22
 324 217 324 217 237 217 c 128,-1,23
 150 217 150 217 101 272 c 128,-1,24
 52 327 52 327 52 429.5 c 128,-1,0
 52 532 52 532 108.5 596 c 128,-1,1
253 283 m 0,25,26
 288 283 288 283 326 302 c 128,-1,27
 364 321 364 321 391 354 c 1,28,-1
 391 371 l 2,29,30
 391 495 391 495 343 557 c 1,31,32
 308 599 308 599 253 599 c 128,-1,33
 198 599 198 599 164.5 555.5 c 128,-1,34
 131 512 131 512 131 438 c 0,35,36
 131 283 131 283 253 283 c 0,25,26
EndSplineSet
Substitution2: "'c2sc' Capitals to Small Capitals lookup 3 subtable" nine.smcp
Substitution2: "'aalt' Access All Alternates lookup 0 subtable" nine.smcp
EndChar

StartChar: period
Encoding: 46 46 68
Width: 250
Flags: HMW
HStem: 3 88<73 73 177 177>
VStem: 65 112
LayerCount: 2
Fore
SplineSet
73 3 m 1,0,1
 65 17 65 17 65 47.5 c 128,-1,2
 65 78 65 78 73 91 c 1,3,4
 95 102 95 102 126 102 c 128,-1,5
 157 102 157 102 177 91 c 1,6,7
 185 78 185 78 185 47.5 c 128,-1,8
 185 17 185 17 177 3 c 1,9,10
 161 -7 161 -7 127 -7 c 128,-1,11
 93 -7 93 -7 73 3 c 1,0,1
EndSplineSet
EndChar

StartChar: periodcentered
Encoding: 183 183 69
Width: 291
Flags: HMW
HStem: 238 88<97 97 194 194>
VStem: 89 105
LayerCount: 2
Fore
SplineSet
97 238 m 1,0,1
 89 252 89 252 89 282.5 c 128,-1,2
 89 313 89 313 97 326 c 1,3,4
 117 337 117 337 146.5 337 c 128,-1,5
 176 337 176 337 194 326 c 1,6,7
 202 313 202 313 202 282.5 c 128,-1,8
 202 252 202 252 194 238 c 1,9,10
 180 228 180 228 147.5 228 c 128,-1,11
 115 228 115 228 97 238 c 1,0,1
EndSplineSet
EndChar

StartChar: bullet
Encoding: 8226 8226 70
Width: 438
Flags: HMW
HStem: 192 158<131 131 307 307>
VStem: 118 189
LayerCount: 2
Fore
SplineSet
131 192 m 1,0,1
 118 218 118 218 118 272.5 c 128,-1,2
 118 327 118 327 131 350 c 1,3,4
 169 370 169 370 219 370 c 0,5,6
 240 370 240 370 267.5 363.5 c 128,-1,7
 295 357 295 357 307 350 c 1,8,9
 321 328 321 328 321 272.5 c 128,-1,10
 321 217 321 217 307 192 c 1,11,12
 297 185 297 185 269 179.5 c 128,-1,13
 241 174 241 174 219 174 c 0,14,15
 165 174 165 174 131 192 c 1,0,1
EndSplineSet
EndChar

StartChar: comma
Encoding: 44 44 71
Width: 254
Flags: HMW
HStem: -9 100
VStem: 79 113
LayerCount: 2
Fore
SplineSet
181 91 m 1,0,1
 192 71 192 71 192 32 c 0,2,3
 192 -29 192 -29 158.5 -78 c 128,-1,4
 125 -127 125 -127 61 -151 c 1,5,6
 38 -138 38 -138 40 -110 c 1,7,8
 115 -73 115 -73 117 -9 c 1,9,10
 90 -4 90 -4 79 4 c 1,11,12
 70 17 70 17 70 48.5 c 0,13,14
 70 80 70 80 79 91 c 1,15,16
 101 102 101 102 133.5 102 c 0,17,18
 166 102 166 102 181 91 c 1,0,1
EndSplineSet
EndChar

StartChar: colon
Encoding: 58 58 72
Width: 254
Flags: HMW
HStem: 3 88<75 75 179 179> 343 88<75 75 179 179>
VStem: 67 112
LayerCount: 2
Fore
SplineSet
75 3 m 1,0,1
 67 17 67 17 67 47.5 c 128,-1,2
 67 78 67 78 75 91 c 1,3,4
 97 102 97 102 128 102 c 128,-1,5
 159 102 159 102 179 91 c 1,6,7
 187 78 187 78 187 47.5 c 128,-1,8
 187 17 187 17 179 3 c 1,9,10
 163 -7 163 -7 129 -7 c 128,-1,11
 95 -7 95 -7 75 3 c 1,0,1
75 343 m 1,12,13
 67 357 67 357 67 387.5 c 128,-1,14
 67 418 67 418 75 431 c 1,15,16
 97 442 97 442 128 442 c 128,-1,17
 159 442 159 442 179 431 c 1,18,19
 187 418 187 418 187 387.5 c 128,-1,20
 187 357 187 357 179 343 c 1,21,22
 163 333 163 333 129 333 c 128,-1,23
 95 333 95 333 75 343 c 1,12,13
EndSplineSet
EndChar

StartChar: semicolon
Encoding: 59 59 73
Width: 258
Flags: HMW
HStem: -9 100 343 88<77 77 181 181>
VStem: 69 112 77 113
LayerCount: 2
Fore
SplineSet
179 91 m 1,0,1
 190 71 190 71 190 32 c 0,2,3
 190 -29 190 -29 156.5 -78 c 128,-1,4
 123 -127 123 -127 59 -151 c 1,5,6
 36 -138 36 -138 38 -110 c 1,7,8
 113 -73 113 -73 115 -9 c 1,9,10
 88 -4 88 -4 77 4 c 1,11,12
 68 17 68 17 68 48.5 c 128,-1,13
 68 80 68 80 77 91 c 1,14,15
 99 102 99 102 131.5 102 c 128,-1,16
 164 102 164 102 179 91 c 1,0,1
77 343 m 1,17,18
 69 357 69 357 69 387.5 c 128,-1,19
 69 418 69 418 77 431 c 1,20,21
 99 442 99 442 130 442 c 128,-1,22
 161 442 161 442 181 431 c 1,23,24
 189 418 189 418 189 387.5 c 128,-1,25
 189 357 189 357 181 343 c 1,26,27
 165 333 165 333 131 333 c 128,-1,28
 97 333 97 333 77 343 c 1,17,18
EndSplineSet
EndChar

StartChar: exclam
Encoding: 33 33 74
Width: 277
Flags: HMW
HStem: 3 91
VStem: 104 72
LayerCount: 2
Fore
SplineSet
108 186 m 1,0,-1
 101 667 l 1,1,2
 131 689 131 689 181 689 c 1,3,-1
 186 684 l 1,4,-1
 167 186 l 1,5,6
 156 182 156 182 138 182 c 128,-1,7
 120 182 120 182 108 186 c 1,0,-1
91 83 m 1,8,9
 111 94 111 94 139 94 c 128,-1,10
 167 94 167 94 185 83 c 1,11,12
 192 71 192 71 192 43 c 128,-1,13
 192 15 192 15 185 3 c 1,14,15
 168 -7 168 -7 138.5 -7 c 128,-1,16
 109 -7 109 -7 91 3 c 1,17,18
 84 15 84 15 84 43 c 128,-1,19
 84 71 84 71 91 83 c 1,8,9
EndSplineSet
EndChar

StartChar: exclamdown
Encoding: 161 161 75
Width: 277
Flags: HMW
HStem: 397 90
VStem: 99 73
LayerCount: 2
Fore
SplineSet
169 304 m 1,0,-1
 176 -177 l 1,1,2
 144 -199 144 -199 96 -199 c 1,3,-1
 90 -193 l 1,4,-1
 109 304 l 1,5,6
 121 308 121 308 139 308 c 128,-1,7
 157 308 157 308 169 304 c 1,0,-1
186 407 m 1,8,9
 168 397 168 397 138.5 397 c 128,-1,10
 109 397 109 397 92 407 c 1,11,12
 84 418 84 418 84 447 c 128,-1,13
 84 476 84 476 92 487 c 1,14,15
 108 498 108 498 138.5 498 c 128,-1,16
 169 498 169 498 186 487 c 1,17,18
 193 475 193 475 193 447 c 128,-1,19
 193 419 193 419 186 407 c 1,8,9
EndSplineSet
EndChar

StartChar: question
Encoding: 63 63 76
Width: 382
Flags: HMW
HStem: 3 90 626 68<166 216>
VStem: 96 94<3 3 83 83> 111 64 292 80<491 554.5>
LayerCount: 2
Fore
SplineSet
16 648 m 1,0,1
 106 694 106 694 190.5 694 c 128,-1,2
 275 694 275 694 323.5 649.5 c 128,-1,3
 372 605 372 605 372 530 c 0,4,5
 372 415 372 415 242 339 c 2,6,-1
 179 302 l 1,7,-1
 171 186 l 1,8,9
 160 182 160 182 142.5 182 c 128,-1,10
 125 182 125 182 113 186 c 1,11,-1
 109 335 l 1,12,-1
 115 345 l 1,13,-1
 161 369 l 1,14,15
 292 439 292 439 292 524 c 0,16,17
 292 570 292 570 262.5 598 c 128,-1,18
 233 626 233 626 177.5 626 c 128,-1,19
 122 626 122 626 44 589 c 1,20,21
 19 612 19 612 16 648 c 1,0,1
96 83 m 1,22,23
 114 93 114 93 143.5 93 c 128,-1,24
 173 93 173 93 190 83 c 1,25,26
 197 71 197 71 197 43 c 128,-1,27
 197 15 197 15 190 3 c 1,28,29
 173 -7 173 -7 143.5 -7 c 128,-1,30
 114 -7 114 -7 96 3 c 1,31,32
 89 15 89 15 89 43 c 128,-1,33
 89 71 89 71 96 83 c 1,22,23
EndSplineSet
EndChar

StartChar: questiondown
Encoding: 191 191 77
Width: 382
Flags: HMW
HStem: -204 68<166.5 216.5> 397 90
VStem: 10 81<-64 -0.5 -64 4.5> 192 94<407 407 487 487> 207 64
LayerCount: 2
Fore
SplineSet
366 -157 m 1,0,1
 277 -204 277 -204 192 -204 c 128,-1,2
 107 -204 107 -204 58.5 -159.5 c 128,-1,3
 10 -115 10 -115 10 -40 c 0,4,5
 10 77 10 77 140 151 c 1,6,-1
 204 188 l 1,7,-1
 211 304 l 1,8,9
 223 308 223 308 240.5 308 c 128,-1,10
 258 308 258 308 270 304 c 1,11,-1
 274 155 l 1,12,-1
 267 146 l 1,13,-1
 222 122 l 2,14,15
 91 52 91 52 91 -33 c 0,16,17
 91 -80 91 -80 120.5 -108 c 128,-1,18
 150 -136 150 -136 205.5 -136 c 128,-1,19
 261 -136 261 -136 339 -98 c 1,20,21
 363 -122 363 -122 366 -157 c 1,0,1
286 407 m 1,22,23
 269 397 269 397 239.5 397 c 128,-1,24
 210 397 210 397 192 407 c 1,25,26
 185 419 185 419 185 447 c 128,-1,27
 185 475 185 475 192 487 c 1,28,29
 209 498 209 498 239.5 498 c 128,-1,30
 270 498 270 498 286 487 c 1,31,32
 294 476 294 476 294 447 c 128,-1,33
 294 418 294 418 286 407 c 1,22,23
EndSplineSet
EndChar

StartChar: quoteleft
Encoding: 8216 8216 78
Width: 206
Flags: HMW
HStem: 526 97
VStem: 45 113
LayerCount: 2
Fore
SplineSet
55 526 m 1,0,1
 45 548 45 548 45 594 c 0,2,3
 45 640 45 640 73.5 682 c 128,-1,4
 102 724 102 724 156 747 c 1,5,6
 166 742 166 742 173 730.5 c 128,-1,7
 180 719 180 719 179 708 c 1,8,9
 118 674 118 674 117 623 c 1,10,11
 148 620 148 620 158 613 c 1,12,13
 166 597 166 597 166 567 c 0,14,15
 166 537 166 537 158 526 c 1,16,17
 138 515 138 515 103 515 c 0,18,19
 68 515 68 515 55 526 c 1,0,1
EndSplineSet
EndChar

StartChar: quoteright
Encoding: 8217 8217 79
Width: 206
Flags: HMW
HStem: 532 20G 637 97
VStem: 48 113
LayerCount: 2
Fore
SplineSet
151 734 m 1,0,1
 161 714 161 714 161 675 c 0,2,3
 161 560 161 560 49 513 c 1,4,5
 39 518 39 518 32.5 529.5 c 128,-1,6
 26 541 26 541 27 552 c 1,7,8
 86 585 86 585 88 637 c 1,9,10
 57 640 57 640 48 648 c 1,11,12
 40 662 40 662 40 692.5 c 0,13,14
 40 723 40 723 48 734 c 1,15,16
 66 745 66 745 101.5 745 c 0,17,18
 137 745 137 745 151 734 c 1,0,1
EndSplineSet
EndChar

StartChar: quotedblleft
Encoding: 8220 8220 80
Width: 377
Flags: HMW
HStem: 526 97
VStem: 45 113 216 113
LayerCount: 2
Fore
SplineSet
55 526 m 1,0,1
 45 548 45 548 45 594 c 0,2,3
 45 640 45 640 73.5 682 c 128,-1,4
 102 724 102 724 156 747 c 1,5,6
 166 742 166 742 173 730.5 c 128,-1,7
 180 719 180 719 179 708 c 1,8,9
 118 674 118 674 117 623 c 1,10,11
 148 620 148 620 158 613 c 1,12,13
 166 597 166 597 166 567 c 0,14,15
 166 537 166 537 158 526 c 1,16,17
 138 515 138 515 103 515 c 0,18,19
 68 515 68 515 55 526 c 1,0,1
226 526 m 1,20,21
 216 548 216 548 216 594 c 0,22,23
 216 640 216 640 244.5 682 c 128,-1,24
 273 724 273 724 327 747 c 1,25,26
 337 742 337 742 344 730.5 c 128,-1,27
 351 719 351 719 350 708 c 1,28,29
 289 674 289 674 288 623 c 1,30,31
 319 620 319 620 329 613 c 1,32,33
 337 597 337 597 337 567 c 0,34,35
 337 537 337 537 329 526 c 1,36,37
 309 515 309 515 274 515 c 0,38,39
 239 515 239 515 226 526 c 1,20,21
EndSplineSet
EndChar

StartChar: quotedblright
Encoding: 8221 8221 81
Width: 377
Flags: HMW
HStem: 532 20G 637 97
VStem: 48 113 220 113
LayerCount: 2
Fore
SplineSet
151 734 m 1,0,1
 161 714 161 714 161 675 c 0,2,3
 161 560 161 560 49 513 c 1,4,5
 39 518 39 518 32.5 529.5 c 128,-1,6
 26 541 26 541 27 552 c 1,7,8
 86 585 86 585 88 637 c 1,9,10
 57 640 57 640 48 648 c 1,11,12
 40 662 40 662 40 692.5 c 0,13,14
 40 723 40 723 48 734 c 1,15,16
 66 745 66 745 101.5 745 c 0,17,18
 137 745 137 745 151 734 c 1,0,1
323 734 m 1,19,20
 333 714 333 714 333 675 c 0,21,22
 333 560 333 560 221 513 c 1,23,24
 211 518 211 518 204.5 529.5 c 128,-1,25
 198 541 198 541 199 552 c 1,26,27
 258 585 258 585 260 637 c 1,28,29
 229 640 229 640 220 648 c 1,30,31
 212 662 212 662 212 692.5 c 0,32,33
 212 723 212 723 220 734 c 1,34,35
 238 745 238 745 273.5 745 c 0,36,37
 309 745 309 745 323 734 c 1,19,20
EndSplineSet
EndChar

StartChar: quotesingle
Encoding: 39 39 82
Width: 194
Flags: HMW
HStem: 512 224 512 235
VStem: 45 97<688 702>
LayerCount: 2
Fore
SplineSet
45 702.5 m 128,-1,1
 45 715 45 715 51 736 c 1,2,3
 68 747 68 747 93.5 747 c 128,-1,4
 119 747 119 747 136 736 c 1,5,6
 142 715 142 715 142 702.5 c 128,-1,7
 142 690 142 690 137.5 666.5 c 0,8,9
 122.426573427 587.783216783 122.426573427 587.783216783 114 517 c 1,10,11
 107 512 107 512 94 512 c 128,-1,12
 81 512 81 512 72 517 c 1,13,14
 65.9368421053 580.663157895 65.9368421053 580.663157895 55.4684210526 635.331578947 c 128,-1,0
 45 690 45 690 45 702.5 c 128,-1,1
EndSplineSet
EndChar

StartChar: quotesinglbase
Encoding: 8218 8218 83
Width: 207
Flags: HMW
HStem: -9 97
VStem: 55 113
LayerCount: 2
Fore
SplineSet
158 88 m 1,0,1
 168 66 168 66 168 20 c 0,2,3
 168 -26 168 -26 139.5 -68 c 128,-1,4
 111 -110 111 -110 57 -133 c 1,5,6
 47 -129 47 -129 40 -117 c 128,-1,7
 33 -105 33 -105 34 -94 c 1,8,9
 94 -62 94 -62 96 -9 c 1,10,11
 65 -6 65 -6 55 1 c 1,12,13
 47 17 47 17 47 47 c 0,14,15
 47 77 47 77 55 88 c 1,16,17
 80 99 80 99 111.5 99 c 0,18,19
 143 99 143 99 158 88 c 1,0,1
EndSplineSet
EndChar

StartChar: quotedbl
Encoding: 34 34 84
Width: 355
Flags: HMW
HStem: 512 224 512 235
VStem: 50 97<688 702> 209 97<688 702>
LayerCount: 2
Fore
SplineSet
209 702.5 m 128,-1,1
 209 715 209 715 215 736 c 1,2,3
 231 747 231 747 257.5 747 c 128,-1,4
 284 747 284 747 300 736 c 1,5,6
 306 715 306 715 306 702.5 c 128,-1,7
 306 690 306 690 301.5 666.5 c 0,8,9
 286.426573427 587.783216783 286.426573427 587.783216783 278 517 c 1,10,11
 271 512 271 512 258 512 c 128,-1,12
 245 512 245 512 236 517 c 1,13,14
 229.936842105 580.663157895 229.936842105 580.663157895 219.468421053 635.331578947 c 128,-1,0
 209 690 209 690 209 702.5 c 128,-1,1
50 702.5 m 128,-1,16
 50 715 50 715 56 736 c 1,17,18
 73 747 73 747 98.5 747 c 128,-1,19
 124 747 124 747 141 736 c 1,20,21
 147 715 147 715 147 702.5 c 128,-1,22
 147 690 147 690 142.5 666.5 c 0,23,24
 127.426573427 587.783216783 127.426573427 587.783216783 119 517 c 1,25,26
 112 512 112 512 99 512 c 128,-1,27
 86 512 86 512 77 517 c 1,28,29
 70.9368421053 580.663157895 70.9368421053 580.663157895 60.4684210526 635.331578947 c 128,-1,15
 50 690 50 690 50 702.5 c 128,-1,16
EndSplineSet
EndChar

StartChar: quotedblbase
Encoding: 8222 8222 85
Width: 378
Flags: HMW
HStem: -9 97
VStem: 55 113 227 113
LayerCount: 2
Fore
SplineSet
158 88 m 1,0,1
 168 66 168 66 168 20 c 0,2,3
 168 -26 168 -26 139.5 -68 c 128,-1,4
 111 -110 111 -110 57 -133 c 1,5,6
 47 -129 47 -129 40 -117 c 128,-1,7
 33 -105 33 -105 34 -94 c 1,8,9
 94 -62 94 -62 96 -9 c 1,10,11
 65 -6 65 -6 55 1 c 1,12,13
 47 17 47 17 47 47 c 0,14,15
 47 77 47 77 55 88 c 1,16,17
 80 99 80 99 111.5 99 c 0,18,19
 143 99 143 99 158 88 c 1,0,1
330 88 m 1,20,21
 340 66 340 66 340 20 c 0,22,23
 340 -26 340 -26 311.5 -68 c 128,-1,24
 283 -110 283 -110 229 -133 c 1,25,26
 219 -129 219 -129 212 -117 c 128,-1,27
 205 -105 205 -105 206 -94 c 1,28,29
 266 -62 266 -62 268 -9 c 1,30,31
 237 -6 237 -6 227 1 c 1,32,33
 219 17 219 17 219 47 c 0,34,35
 219 77 219 77 227 88 c 1,36,37
 252 99 252 99 283.5 99 c 0,38,39
 315 99 315 99 330 88 c 1,20,21
EndSplineSet
EndChar

StartChar: guilsinglleft
Encoding: 8249 8249 86
Width: 322
Flags: HMW
HStem: 43 420<233 239>
VStem: 39 243
LayerCount: 2
Fore
SplineSet
276 422 m 1,0,-1
 129 256 l 1,1,-1
 282 84 l 1,2,3
 270 55 270 55 239 43 c 1,4,-1
 43 229 l 1,5,6
 34 255 34 255 43 281 c 1,7,-1
 233 463 l 1,8,9
 264 451 264 451 276 422 c 1,0,-1
EndSplineSet
EndChar

StartChar: guilsinglright
Encoding: 8250 8250 87
Width: 322
Flags: HMW
HStem: 43 420<83 89>
VStem: 39 244
LayerCount: 2
Fore
SplineSet
45 84 m 1,0,-1
 193 250 l 1,1,-1
 39 422 l 1,2,3
 53 451 53 451 83 463 c 1,4,-1
 278 277 l 1,5,6
 282 267 282 267 282 251 c 128,-1,7
 282 235 282 235 278 225 c 1,8,-1
 89 43 l 1,9,10
 59 55 59 55 45 84 c 1,0,-1
EndSplineSet
EndChar

StartChar: guillemotleft
Encoding: 171 171 88
Width: 526
Flags: HMW
HStem: 43 420<233 239 233 444>
VStem: 39 243 244 243
LayerCount: 2
Fore
SplineSet
481 422 m 1,0,-1
 334 256 l 1,1,-1
 487 84 l 1,2,3
 475 55 475 55 444 43 c 1,4,-1
 248 229 l 1,5,6
 239 255 239 255 248 281 c 1,7,-1
 438 463 l 1,8,9
 469 451 469 451 481 422 c 1,0,-1
276 422 m 1,10,-1
 129 256 l 1,11,-1
 282 84 l 1,12,13
 270 55 270 55 239 43 c 1,14,-1
 43 229 l 1,15,16
 34 255 34 255 43 281 c 1,17,-1
 233 463 l 1,18,19
 264 451 264 451 276 422 c 1,10,-1
EndSplineSet
EndChar

StartChar: guillemotright
Encoding: 187 187 89
Width: 526
Flags: HMW
HStem: 43 420<83 89 83 294>
VStem: 39 244 244 244
LayerCount: 2
Fore
SplineSet
45 84 m 1,0,-1
 193 250 l 1,1,-1
 39 422 l 1,2,3
 53 451 53 451 83 463 c 1,4,-1
 278 277 l 1,5,6
 282 267 282 267 282 251 c 128,-1,7
 282 235 282 235 278 225 c 1,8,-1
 89 43 l 1,9,10
 59 55 59 55 45 84 c 1,0,-1
250 84 m 1,11,-1
 398 250 l 1,12,-1
 244 422 l 1,13,14
 258 451 258 451 288 463 c 1,15,-1
 483 277 l 1,16,17
 488 267 488 267 488 251.5 c 128,-1,18
 488 236 488 236 483 225 c 1,19,-1
 294 43 l 1,20,21
 264 55 264 55 250 84 c 1,11,-1
EndSplineSet
EndChar

StartChar: onesuperior
Encoding: 185 185 90
Width: 420
Flags: HMW
HStem: 352 56<95 152 152 157.5 310 346 95 152>
VStem: 198 65<407 608 608 615.5>
LayerCount: 2
Fore
SplineSet
152 408 m 1,0,-1
 198 407 l 1,1,-1
 198 608 l 2,2,3
 198 623 198 623 200 661 c 1,4,5
 167 617 167 617 101 588 c 1,6,7
 77 601 77 601 74 631 c 1,8,9
 164 683 164 683 201 763 c 1,10,11
 216 767 216 767 231 767 c 128,-1,12
 246 767 246 767 263 763 c 1,13,-1
 263 407 l 1,14,-1
 310 408 l 1,15,-1
 346 408 l 1,16,17
 349 396 349 396 349 381.5 c 128,-1,18
 349 367 349 367 346 352 c 1,19,-1
 95 352 l 1,20,21
 92 368 92 368 92 382 c 128,-1,22
 92 396 92 396 95 408 c 1,23,-1
 152 408 l 1,0,-1
EndSplineSet
EndChar

StartChar: twosuperior
Encoding: 178 178 91
Width: 420
Flags: HMW
HStem: 350 60<206 309> 712 58<182.5 218.5>
VStem: 264 69<632 667>
LayerCount: 2
Fore
SplineSet
344 410 m 1,0,1
 344 390 344 390 343 381 c 0,2,3
 338 350 338 350 309 350 c 2,4,-1
 87 350 l 1,5,6
 64 376 64 376 64 390 c 0,7,8
 64 447 64 447 146 511 c 1,9,-1
 209 563 l 2,10,11
 239 587 239 587 251.5 605.5 c 128,-1,12
 264 624 264 624 264 650 c 0,13,14
 264 676 264 676 246 694 c 128,-1,15
 228 712 228 712 200 712 c 0,16,17
 149 712 149 712 121 650 c 1,18,19
 86 655 86 655 71 676 c 1,20,21
 86 717 86 717 121 743.5 c 128,-1,22
 156 770 156 770 209 770 c 0,23,24
 262 770 262 770 297.5 734.5 c 128,-1,25
 333 699 333 699 333 653 c 0,26,27
 333 607 333 607 313 578 c 128,-1,28
 293 549 293 549 251 515 c 2,29,-1
 195 470 l 1,30,31
 146 429 146 429 137 406 c 1,32,33
 170 410 170 410 206 410 c 2,34,-1
 344 410 l 1,0,1
EndSplineSet
EndChar

StartChar: threesuperior
Encoding: 179 179 92
Width: 420
Flags: HMW
HStem: 345 56<165 208.5 165 227> 563 46<219 223.5> 707 56<78 166 77 314>
VStem: 245 69
LayerCount: 2
Fore
SplineSet
314 703 m 2,0,-1
 248 634 l 2,1,2
 237 622 237 622 219 609 c 1,3,-1
 225 609 l 2,4,5
 275 609 275 609 309 574.5 c 128,-1,6
 343 540 343 540 343 478 c 0,7,8
 343 416 343 416 297 380.5 c 128,-1,9
 251 345 251 345 181 345 c 0,10,11
 111 345 111 345 59 386 c 1,12,13
 63 415 63 415 84 434 c 1,14,15
 136 401 136 401 179.5 401 c 0,16,17
 223 401 223 401 249 421.5 c 128,-1,18
 275 442 275 442 275 480 c 0,19,20
 275 518 275 518 255 540.5 c 128,-1,21
 235 563 235 563 204.5 563 c 0,22,23
 174 563 174 563 150 551 c 1,24,25
 130 559 130 559 125 587 c 1,26,-1
 211 678 l 2,27,28
 228 697 228 697 246 709 c 1,29,-1
 244 712 l 1,30,31
 217 707 217 707 166 707 c 2,32,-1
 77 707 l 1,33,34
 74 722 74 722 74 737 c 0,35,36
 74 752 74 752 78 763 c 1,37,-1
 314 763 l 1,38,39
 325 745 325 745 325 729.5 c 0,40,41
 325 714 325 714 314 703 c 2,0,-1
EndSplineSet
EndChar

StartChar: onequarter
Encoding: 188 188 93
Width: 886
Flags: HMW
HStem: -20 20G<254 254 254 329 710 710 773 773> 82 58<664 710 664 710 773 836> 272 56<62 119 119 124.5 277 313 62 119>
VStem: 165 65<327 528 528 535.5> 254 451 550 55<141 165> 710 63<0 82 0 82 140 212 212 226>
LayerCount: 2
Fore
SplineSet
119 328 m 1,0,-1
 165 327 l 1,1,-1
 165 528 l 2,2,3
 165 543 165 543 167 581 c 1,4,5
 134 537 134 537 68 508 c 1,6,7
 44 521 44 521 41 551 c 1,8,9
 131 603 131 603 168 683 c 1,10,11
 183 687 183 687 198 687 c 128,-1,12
 213 687 213 687 230 683 c 1,13,-1
 230 327 l 1,14,-1
 277 328 l 1,15,-1
 313 328 l 1,16,17
 316 316 316 316 316 301.5 c 128,-1,18
 316 287 316 287 313 272 c 1,19,-1
 62 272 l 1,20,21
 59 288 59 288 59 302 c 128,-1,22
 59 316 59 316 62 328 c 1,23,-1
 119 328 l 1,0,-1
254 0 m 1,24,-1
 631 683 l 1,25,26
 643 688 643 688 668 688 c 128,-1,27
 693 688 693 688 705 683 c 1,28,-1
 329 0 l 1,29,30
 316 -5 316 -5 291 -5 c 128,-1,31
 266 -5 266 -5 254 0 c 1,24,-1
710 0 m 1,32,-1
 710 82 l 1,33,-1
 550 82 l 1,34,35
 535 106 535 106 535 120.5 c 128,-1,36
 535 135 535 135 550 165 c 2,37,-1
 669 415 l 1,38,39
 684 417 684 417 703 413 c 128,-1,40
 722 409 722 409 730 400 c 1,41,-1
 641 207 l 2,42,43
 618 159 618 159 605 141 c 1,44,-1
 606 139 l 1,45,46
 628 140 628 140 664 140 c 2,47,-1
 710 140 l 1,48,-1
 710 212 l 2,49,50
 710 233 710 233 721 245 c 128,-1,51
 732 257 732 257 750 257 c 2,52,-1
 772 257 l 1,53,-1
 773 255 l 1,54,-1
 773 140 l 1,55,-1
 839 140 l 1,56,57
 842 130 842 130 842 112 c 128,-1,58
 842 94 842 94 836 82 c 1,59,-1
 773 82 l 1,60,-1
 773 0 l 1,61,62
 764 -4 764 -4 743 -4 c 128,-1,63
 722 -4 722 -4 710 0 c 1,32,-1
EndSplineSet
Ligature2: "'frac' Diagonal Fractions lookup 4 subtable" one fraction four
Ligature2: "'frac' Diagonal Fractions lookup 4 subtable" one slash four
EndChar

StartChar: onehalf
Encoding: 189 189 94
Width: 886
Flags: HMW
HStem: -20 20G<238 238 238 313> -3 60<696 799> 272 56<62 119 119 124.5 277 313 62 119> 359 58<672.5 708.5>
VStem: 165 65<327 528 528 535.5> 238 451 754 69<279 314>
LayerCount: 2
Fore
SplineSet
238 0 m 1,0,-1
 615 683 l 1,1,2
 627 688 627 688 652 688 c 128,-1,3
 677 688 677 688 689 683 c 1,4,-1
 313 0 l 1,5,6
 300 -5 300 -5 275 -5 c 128,-1,7
 250 -5 250 -5 238 0 c 1,0,-1
119 328 m 1,8,-1
 165 327 l 1,9,-1
 165 528 l 2,10,11
 165 543 165 543 167 581 c 1,12,13
 134 537 134 537 68 508 c 1,14,15
 44 521 44 521 41 551 c 1,16,17
 131 603 131 603 168 683 c 1,18,19
 183 687 183 687 198 687 c 128,-1,20
 213 687 213 687 230 683 c 1,21,-1
 230 327 l 1,22,-1
 277 328 l 1,23,-1
 313 328 l 1,24,25
 316 316 316 316 316 301.5 c 128,-1,26
 316 287 316 287 313 272 c 1,27,-1
 62 272 l 1,28,29
 59 288 59 288 59 302 c 128,-1,30
 59 316 59 316 62 328 c 1,31,-1
 119 328 l 1,8,-1
834 57 m 1,32,33
 834 37 834 37 833 28 c 0,34,35
 828 -3 828 -3 799 -3 c 2,36,-1
 577 -3 l 1,37,38
 554 23 554 23 554 37 c 0,39,40
 554 94 554 94 636 158 c 1,41,-1
 699 210 l 2,42,43
 729 234 729 234 741.5 252.5 c 128,-1,44
 754 271 754 271 754 297 c 128,-1,45
 754 323 754 323 736 341 c 128,-1,46
 718 359 718 359 690 359 c 0,47,48
 639 359 639 359 611 297 c 1,49,50
 576 302 576 302 561 323 c 1,51,52
 576 364 576 364 611 390.5 c 128,-1,53
 646 417 646 417 699 417 c 128,-1,54
 752 417 752 417 787.5 381.5 c 128,-1,55
 823 346 823 346 823 300 c 128,-1,56
 823 254 823 254 803 225 c 128,-1,57
 783 196 783 196 741 162 c 2,58,-1
 685 117 l 1,59,60
 636 76 636 76 627 53 c 1,61,62
 660 57 660 57 696 57 c 2,63,-1
 834 57 l 1,32,33
EndSplineSet
Ligature2: "'frac' Diagonal Fractions lookup 4 subtable" one fraction two
Ligature2: "'frac' Diagonal Fractions lookup 4 subtable" one slash two
EndChar

StartChar: threequarters
Encoding: 190 190 95
Width: 886
Flags: HMW
HStem: -20 20G<247 247 247 322 714 714 777 777> 267 56<161 204.5 161 223> 485 46<215 219.5> 629 56<74 162 73 310>
VStem: 241 69 247 451
LayerCount: 2
Fore
SplineSet
247 0 m 1,0,-1
 624 683 l 1,1,2
 636 688 636 688 661 688 c 128,-1,3
 686 688 686 688 698 683 c 1,4,-1
 322 0 l 1,5,6
 309 -5 309 -5 284 -5 c 128,-1,7
 259 -5 259 -5 247 0 c 1,0,-1
310 625 m 2,8,-1
 244 556 l 2,9,10
 233 544 233 544 215 531 c 1,11,-1
 221 531 l 2,12,13
 271 531 271 531 305 496.5 c 128,-1,14
 339 462 339 462 339 400 c 0,15,16
 339 338 339 338 293 302.5 c 128,-1,17
 247 267 247 267 177 267 c 0,18,19
 107 267 107 267 55 308 c 1,20,21
 59 337 59 337 80 356 c 1,22,23
 132 323 132 323 175.5 323 c 0,24,25
 219 323 219 323 245 343.5 c 128,-1,26
 271 364 271 364 271 402 c 0,27,28
 271 440 271 440 251 462.5 c 128,-1,29
 231 485 231 485 200.5 485 c 0,30,31
 170 485 170 485 146 473 c 1,32,33
 126 481 126 481 121 509 c 1,34,-1
 207 600 l 2,35,36
 224 619 224 619 242 631 c 1,37,-1
 240 634 l 1,38,39
 213 629 213 629 162 629 c 2,40,-1
 73 629 l 1,41,42
 70 644 70 644 70 659 c 0,43,44
 70 674 70 674 74 685 c 1,45,-1
 310 685 l 1,46,47
 321 667 321 667 321 651.5 c 0,48,49
 321 636 321 636 310 625 c 2,8,-1
714 0 m 1,50,-1
 714 82 l 1,51,-1
 554 82 l 1,52,53
 539 106 539 106 539 120.5 c 0,54,55
 539 135 539 135 554 165 c 2,56,-1
 673 415 l 1,57,58
 688 417 688 417 707 413 c 128,-1,59
 726 409 726 409 734 400 c 1,60,-1
 645 207 l 2,61,62
 622 159 622 159 609 141 c 1,63,-1
 610 139 l 1,64,65
 632 140 632 140 668 140 c 2,66,-1
 714 140 l 1,67,-1
 714 212 l 2,68,69
 714 233 714 233 725 245 c 128,-1,70
 736 257 736 257 754 257 c 2,71,-1
 776 257 l 1,72,-1
 777 255 l 1,73,-1
 777 140 l 1,74,-1
 843 140 l 1,75,76
 846 130 846 130 846 112 c 0,77,78
 846 94 846 94 840 82 c 1,79,-1
 777 82 l 1,80,-1
 777 0 l 1,81,82
 768 -4 768 -4 747 -4 c 128,-1,83
 726 -4 726 -4 714 0 c 1,50,-1
EndSplineSet
Ligature2: "'frac' Diagonal Fractions lookup 4 subtable" three fraction four
Ligature2: "'frac' Diagonal Fractions lookup 4 subtable" three slash four
EndChar

StartChar: ordfeminine
Encoding: 170 170 96
Width: 406
Flags: HMW
HStem: 304 53<146 179.5> 490 49<162 200> 638 57<183.5 226>
VStem: 40 67<404 442 404 458.5> 271 62<413 415 415 484 484 484 534 564 564 567>
LayerCount: 2
Fore
SplineSet
356 340 m 1,0,1
 350 320 350 320 325 307 c 1,2,3
 287 320 287 320 276 357 c 1,4,5
 217 304 217 304 158.5 304 c 0,6,7
 100 304 100 304 70 337.5 c 128,-1,8
 40 371 40 371 40 416 c 0,9,10
 40 478 40 478 79 508.5 c 128,-1,11
 118 539 118 539 187 539 c 0,12,13
 224 539 224 539 271 534 c 1,14,-1
 271 564 l 2,15,16
 271 638 271 638 206 638 c 0,17,18
 144 638 144 638 76 608 c 1,19,20
 53 629 53 629 53 659 c 1,21,22
 138 695 138 695 210 695 c 0,23,24
 333 695 333 695 333 567 c 2,25,-1
 333 415 l 2,26,27
 333 362 333 362 356 340 c 1,0,1
164 357 m 0,28,29
 221 357 221 357 271 413 c 1,30,-1
 271 484 l 1,31,32
 217 490 217 490 183.5 490 c 0,33,34
 150 490 150 490 128.5 471 c 128,-1,35
 107 452 107 452 107 423 c 0,36,37
 107 394 107 394 122.5 375.5 c 128,-1,38
 138 357 138 357 164 357 c 0,28,29
EndSplineSet
EndChar

StartChar: ordmasculine
Encoding: 186 186 97
Width: 389
Flags: HMW
HStem: 304 55<172.5 215.5> 642 53<172.5 215.5 172.5 229.5>
VStem: 32 69<469.5 529.5> 288 68<469.5 529.5 469.5 536>
LayerCount: 2
Fore
SplineSet
302 656 m 1,0,1
 356 598 356 598 356 499.5 c 128,-1,2
 356 401 356 401 302 343 c 1,3,4
 260 304 260 304 194.5 304 c 128,-1,5
 129 304 129 304 87 343 c 1,6,7
 32 401 32 401 32 499.5 c 128,-1,8
 32 598 32 598 87 656 c 1,9,10
 129 695 129 695 194.5 695 c 128,-1,11
 260 695 260 695 302 656 c 1,0,1
101 500 m 128,-1,13
 101 439 101 439 123.5 399 c 128,-1,14
 146 359 146 359 194.5 359 c 128,-1,15
 243 359 243 359 265.5 399 c 128,-1,16
 288 439 288 439 288 500 c 128,-1,17
 288 561 288 561 265.5 601.5 c 128,-1,18
 243 642 243 642 194.5 642 c 128,-1,19
 146 642 146 642 123.5 601.5 c 128,-1,12
 101 561 101 561 101 500 c 128,-1,13
EndSplineSet
EndChar

StartChar: degree
Encoding: 176 176 98
Width: 314
Flags: HMW
HStem: 392 56<134 179.5 134 196> 614 56<134 179.5>
VStem: 20 62<507 554.5 507 570.5> 231 63<507 554.5>
LayerCount: 2
Fore
SplineSet
20 531 m 128,-1,1
 20 590 20 590 59.5 630 c 128,-1,2
 99 670 99 670 157 670 c 128,-1,3
 215 670 215 670 254.5 630 c 128,-1,4
 294 590 294 590 294 531 c 128,-1,5
 294 472 294 472 254.5 432 c 128,-1,6
 215 392 215 392 157 392 c 128,-1,7
 99 392 99 392 59.5 432 c 128,-1,0
 20 472 20 472 20 531 c 128,-1,1
102.5 590.5 m 128,-1,9
 82 567 82 567 82 530.5 c 128,-1,10
 82 494 82 494 102.5 471 c 128,-1,11
 123 448 123 448 156.5 448 c 128,-1,12
 190 448 190 448 210.5 471.5 c 128,-1,13
 231 495 231 495 231 531 c 128,-1,14
 231 567 231 567 210.5 590.5 c 128,-1,15
 190 614 190 614 156.5 614 c 128,-1,8
 123 614 123 614 102.5 590.5 c 128,-1,9
EndSplineSet
EndChar

StartChar: less
Encoding: 60 60 99
Width: 530
Flags: HMW
HStem: 52 475<432 432>
VStem: 55 78<286 293 286 321 286 321>
LayerCount: 2
Fore
SplineSet
55 321 m 1,0,-1
 432 527 l 1,1,2
 464 505 464 505 468 467 c 1,3,-1
 200 326 l 2,4,5
 190 321 190 321 162.5 307.5 c 128,-1,6
 135 294 135 294 133 293 c 1,7,-1
 133 286 l 1,8,9
 135 285 135 285 162.5 271.5 c 128,-1,10
 190 258 190 258 200 253 c 2,11,-1
 468 112 l 1,12,13
 462 73 462 73 432 52 c 1,14,-1
 55 258 l 1,15,16
 46 295 46 295 55 321 c 1,0,-1
EndSplineSet
EndChar

StartChar: greater
Encoding: 62 62 100
Width: 530
Flags: HMW
HStem: 53 475<97 98>
VStem: 397 78<287 294 294 294>
LayerCount: 2
Fore
SplineSet
475 259 m 1,0,-1
 97 53 l 1,1,2
 66 76 66 76 62 113 c 1,3,-1
 330 254 l 2,4,5
 340 259 340 259 367.5 272.5 c 128,-1,6
 395 286 395 286 397 287 c 1,7,-1
 397 294 l 1,8,9
 395 295 395 295 367.5 308.5 c 128,-1,10
 340 322 340 322 330 327 c 2,11,-1
 62 468 l 1,12,13
 66 506 66 506 98 528 c 1,14,-1
 475 322 l 1,15,16
 484 285 484 285 475 259 c 1,0,-1
EndSplineSet
EndChar

StartChar: plus
Encoding: 43 43 101
Width: 530
Flags: HMW
HStem: 256 69<59 192 59 192 338 471>
VStem: 228 74<75 219 75 224 362 506>
LayerCount: 2
Fore
SplineSet
229 324 m 1,0,-1
 228 362 l 1,1,-1
 228 506 l 1,2,3
 243 510 243 510 266 510 c 128,-1,4
 289 510 289 510 302 506 c 1,5,-1
 302 362 l 1,6,7
 301 324 l 1,8,-1
 338 325 l 1,9,-1
 471 325 l 1,10,11
 475 303 475 303 475 288.5 c 128,-1,12
 475 274 475 274 471 256 c 1,13,-1
 338 256 l 1,14,-1
 301 257 l 1,15,-1
 302 219 l 1,16,-1
 302 75 l 1,17,18
 289 71 289 71 266 71 c 128,-1,19
 243 71 243 71 228 75 c 1,20,-1
 228 219 l 1,21,-1
 229 257 l 1,22,-1
 192 256 l 1,23,-1
 59 256 l 1,24,25
 55 268 55 268 55 290 c 128,-1,26
 55 312 55 312 59 325 c 1,27,-1
 192 325 l 1,28,-1
 229 324 l 1,0,-1
EndSplineSet
EndChar

StartChar: plusminus
Encoding: 177 177 102
Width: 530
Flags: HMW
HStem: 0 69<69 461 69 461> 300 68<69 192 69 192 338 461>
VStem: 228 74<136 263 136 268 405 530>
LayerCount: 2
Fore
SplineSet
229 367 m 1,0,-1
 228 405 l 1,1,-1
 228 530 l 1,2,3
 244 533 244 533 265.5 533 c 128,-1,4
 287 533 287 533 302 530 c 1,5,-1
 302 405 l 1,6,7
 301 367 l 1,8,-1
 338 368 l 1,9,-1
 461 368 l 1,10,11
 464 351 464 351 464 332.5 c 128,-1,12
 464 314 464 314 461 300 c 1,13,-1
 338 300 l 1,14,-1
 301 301 l 1,15,-1
 302 263 l 1,16,-1
 302 136 l 1,17,18
 287 133 287 133 265.5 133 c 128,-1,19
 244 133 244 133 228 136 c 1,20,-1
 228 263 l 1,21,-1
 229 301 l 1,22,-1
 192 300 l 1,23,-1
 69 300 l 1,24,25
 66 314 66 314 66 333 c 128,-1,26
 66 352 66 352 69 368 c 1,27,-1
 192 368 l 1,28,-1
 229 367 l 1,0,-1
461 0 m 1,29,-1
 69 0 l 1,30,31
 66 18 66 18 66 34 c 128,-1,32
 66 50 66 50 69 69 c 1,33,-1
 461 69 l 1,34,35
 464 50 464 50 464 34 c 128,-1,36
 464 18 464 18 461 0 c 1,29,-1
EndSplineSet
EndChar

StartChar: hyphen
Encoding: 45 45 103
Width: 335
Flags: HMW
HStem: 231 69<53 283 53 283>
VStem: 53 230<231 231 231 300>
LayerCount: 2
Fore
SplineSet
283 231 m 1,0,-1
 53 231 l 1,1,2
 49 243 49 243 49 264 c 128,-1,3
 49 285 49 285 53 300 c 1,4,-1
 283 300 l 1,5,6
 286 284 286 284 286 264.25 c 0,7,8
 286 244.5 286 244.5 283 231 c 1,0,-1
EndSplineSet
EndChar

StartChar: equal
Encoding: 61 61 104
Width: 530
Flags: HMW
HStem: 171 69<59 471 59 471> 343 70<59 471 59 471>
VStem: 55 420<198.5 212 370.5 384>
LayerCount: 2
Fore
SplineSet
471 171 m 1,0,-1
 59 171 l 1,1,2
 55 184 55 184 55 205.5 c 0,3,4
 55 227 55 227 59 240 c 1,5,-1
 471 240 l 1,6,7
 475 227 475 227 475 205.5 c 0,8,9
 475 184 475 184 471 171 c 1,0,-1
471 343 m 1,10,-1
 59 343 l 1,11,12
 55 356 55 356 55 377 c 128,-1,13
 55 398 55 398 59 413 c 1,14,-1
 471 413 l 1,15,16
 475 398 475 398 475 377 c 128,-1,17
 475 356 475 356 471 343 c 1,10,-1
EndSplineSet
EndChar

StartChar: multiply
Encoding: 215 215 105
Width: 530
Flags: HMW
HStem: 105 371<130 130 130 400>
VStem: 80 370<156 156 156 425>
LayerCount: 2
Fore
SplineSet
265 242 m 1,0,-1
 130 105 l 1,1,2
 115 111 115 111 100.5 125.5 c 128,-1,3
 86 140 86 140 80 156 c 1,4,-1
 216 290 l 1,5,6
 192 314 192 314 80 425 c 1,7,8
 95.8881118881 462.734265734 95.8881118881 462.734265734 130 476 c 1,9,-1
 242 363 l 1,10,11
 249 353 249 353 265 339 c 1,12,-1
 400 476 l 1,13,14
 437.448275862 457.275862069 437.448275862 457.275862069 450 425 c 1,15,16
 337 314 337 314 331.5 308.5 c 0,17,18
 322.25 299.25 322.25 299.25 313 290 c 1,19,-1
 450 156 l 1,20,21
 435.317073171 118.243902439 435.317073171 118.243902439 400 105 c 1,22,-1
 288 218 l 2,23,24
 280 225 280 225 265 242 c 1,0,-1
EndSplineSet
EndChar

StartChar: divide
Encoding: 247 247 106
Width: 530
Flags: HMW
HStem: 75 73<221 221 309 309> 257 69<59 471 59 471> 431 73<221 221 309 309>
VStem: 213 96
LayerCount: 2
Fore
SplineSet
221 431 m 1,0,1
 213 447 213 447 213 467.5 c 128,-1,2
 213 488 213 488 221 504 c 1,3,4
 235 515 235 515 265.5 515 c 128,-1,5
 296 515 296 515 309 504 c 1,6,7
 316 490 316 490 316 467.5 c 128,-1,8
 316 445 316 445 309 431 c 1,9,10
 296 420 296 420 265.5 420 c 128,-1,11
 235 420 235 420 221 431 c 1,0,1
221 75 m 1,12,13
 213 91 213 91 213 111.5 c 128,-1,14
 213 132 213 132 221 148 c 1,15,16
 235 159 235 159 265.5 159 c 128,-1,17
 296 159 296 159 309 148 c 1,18,19
 316 134 316 134 316 111.5 c 128,-1,20
 316 89 316 89 309 75 c 1,21,22
 298 64 298 64 266.5 64 c 128,-1,23
 235 64 235 64 221 75 c 1,12,13
471 257 m 1,24,-1
 59 257 l 1,25,26
 55 269 55 269 55 290 c 128,-1,27
 55 311 55 311 59 326 c 1,28,-1
 471 326 l 1,29,30
 475 311 475 311 475 290 c 128,-1,31
 475 269 475 269 471 257 c 1,24,-1
EndSplineSet
EndChar

StartChar: logicalnot
Encoding: 172 172 107
Width: 530
Flags: HMW
HStem: 262 69<54 359 54 463>
VStem: 396 74<110 225 225 230>
LayerCount: 2
Fore
SplineSet
397 263 m 1,0,-1
 359 262 l 1,1,-1
 54 262 l 1,2,3
 50 274 50 274 50 295 c 128,-1,4
 50 316 50 316 54 331 c 1,5,-1
 463 331 l 1,6,-1
 470 325 l 1,7,-1
 470 110 l 1,8,9
 455 107 455 107 433.5 107 c 128,-1,10
 412 107 412 107 396 110 c 1,11,-1
 396 225 l 1,12,-1
 397 263 l 1,0,-1
EndSplineSet
EndChar

StartChar: mu
Encoding: 956 956 108
Width: 555
Flags: HMW
HStem: -218 21G<113.5 136> -10 67<238 288.5> 470 20G<88 88 161 161 392 392 465 465>
VStem: 88 73<134 171 171 490> 392 73<132 138 138 490>
LayerCount: 2
Fore
SplineSet
465 490 m 1,0,-1
 465 138 l 2,1,2
 465 59 465 59 493 31 c 1,3,4
 483 4 483 4 460 -7 c 1,5,6
 412 9 412 9 398 62 c 1,7,8
 341 -10 341 -10 259 -10 c 0,9,10
 197 -10 197 -10 159 28 c 1,11,-1
 159 -169 l 2,12,13
 159 -218 159 -218 122 -218 c 0,14,15
 92 -218 92 -218 77 -203 c 1,16,17
 88 -176 88 -176 88 -118 c 2,18,-1
 88 490 l 1,19,20
 101 494 101 494 124.5 494 c 0,21,22
 148 494 148 494 161 490 c 1,23,-1
 161 171 l 2,24,25
 161 117 161 117 190.5 87 c 128,-1,26
 220 57 220 57 267 57 c 0,27,28
 341 57 341 57 392 132 c 1,29,-1
 392 490 l 1,30,31
 404 494 404 494 428.5 494 c 0,32,33
 453 494 453 494 465 490 c 1,0,-1
EndSplineSet
EndChar

StartChar: percent
Encoding: 37 37 109
Width: 861
Flags: HMW
HStem: -20 20G<205 205 205 280> -12 53<640.5 682.5> 298 53<178.5 220> 332 53<640.5 682.5 640.5 694.5> 642 53<178.5 220 178.5 232.5>
VStem: 50 68<466 527> 281 68<466 527 466 534> 512 68<156 217> 743 69<156 217 156 224>
LayerCount: 2
Fore
SplineSet
812 187 m 128,-1,1
 812 77 812 77 764 28 c 0,2,3
 724 -12 724 -12 662 -12 c 128,-1,4
 600 -12 600 -12 559 28 c 1,5,6
 512 78 512 78 512 187.5 c 128,-1,7
 512 297 512 297 559 345 c 0,8,9
 598 385 598 385 662.5 385 c 128,-1,10
 727 385 727 385 764 345 c 1,11,0
 812 297 812 297 812 187 c 128,-1,1
580 186.5 m 128,-1,13
 580 41 580 41 661.5 41 c 128,-1,14
 743 41 743 41 743 186.5 c 128,-1,15
 743 332 743 332 661.5 332 c 128,-1,12
 580 332 580 332 580 186.5 c 128,-1,13
302 655 m 1,16,17
 349 607 349 607 349 497.5 c 128,-1,18
 349 388 349 388 302 338 c 1,19,20
 262 298 262 298 199.5 298 c 128,-1,21
 137 298 137 298 97 338 c 1,22,23
 50 388 50 388 50 497.5 c 128,-1,24
 50 607 50 607 97 655 c 1,25,26
 134 695 134 695 199.5 695 c 128,-1,27
 265 695 265 695 302 655 c 1,16,17
118 496.5 m 128,-1,29
 118 351 118 351 199.5 351 c 128,-1,30
 281 351 281 351 281 496.5 c 128,-1,31
 281 642 281 642 199.5 642 c 128,-1,28
 118 642 118 642 118 496.5 c 128,-1,29
205 0 m 1,32,-1
 582 683 l 1,33,34
 594 688 594 688 619 688 c 128,-1,35
 644 688 644 688 656 683 c 1,36,-1
 280 0 l 1,37,38
 267 -5 267 -5 242 -5 c 128,-1,39
 217 -5 217 -5 205 0 c 1,32,-1
EndSplineSet
Ligature2: "'frac' Diagonal Fractions lookup 4 subtable" zero fraction zero
Ligature2: "'frac' Diagonal Fractions lookup 4 subtable" zero slash zero
EndChar

StartChar: numbersign
Encoding: 35 35 110
Width: 605
Flags: HMW
HStem: 167 65<31 137 31 152 222 337 31 207 421 532> 414 65<75 193 75 207 277 392 75 263 476 577>
VStem: 26 556
LayerCount: 2
Fore
SplineSet
406 479 m 1,0,-1
 441 632 l 1,1,2
 454 636 454 636 475.5 636 c 128,-1,3
 497 636 497 636 511 632 c 1,4,-1
 476 479 l 1,5,-1
 577 479 l 1,6,7
 588 446 588 446 577 414 c 1,8,-1
 462 414 l 1,9,-1
 421 232 l 1,10,-1
 532 232 l 1,11,12
 545 199 545 199 532 167 c 1,13,-1
 406 167 l 1,14,-1
 372 14 l 1,15,16
 360 8 360 8 337.5 8 c 128,-1,17
 315 8 315 8 303 14 c 1,18,-1
 337 167 l 1,19,-1
 207 167 l 1,20,-1
 173 14 l 1,21,22
 161 8 161 8 138 8 c 128,-1,23
 115 8 115 8 103 14 c 1,24,-1
 137 167 l 1,25,-1
 31 167 l 1,26,27
 18 200 18 200 31 232 c 1,28,-1
 152 232 l 1,29,-1
 193 414 l 1,30,-1
 75 414 l 1,31,32
 64 446 64 446 75 479 c 1,33,-1
 207 479 l 1,34,-1
 242 632 l 1,35,36
 255 636 255 636 276.5 636 c 128,-1,37
 298 636 298 636 312 632 c 1,38,-1
 277 479 l 1,39,-1
 406 479 l 1,0,-1
263 414 m 1,40,-1
 222 232 l 1,41,-1
 351 232 l 1,42,-1
 392 414 l 1,43,-1
 263 414 l 1,40,-1
EndSplineSet
EndChar

StartChar: asterisk
Encoding: 42 42 111
Width: 495
Flags: HMW
HStem: 523 214
VStem: 211 72<660.5 731>
LayerCount: 2
Fore
SplineSet
49 562 m 1,0,1
 47 576 47 576 54.5 596.5 c 128,-1,2
 62 617 62 617 72 629 c 1,3,-1
 120 614 l 2,4,5
 146 606 146 606 226 563 c 1,6,7
 211 629 211 629 211 680 c 2,8,-1
 212 731 l 1,9,10
 225 737 225 737 247.5 737 c 128,-1,11
 270 737 270 737 283 731 c 1,12,-1
 284 680 l 2,13,14
 285 648 285 648 268 562 c 1,15,16
 336 602 336 602 376 614 c 2,17,-1
 424 628 l 1,18,19
 434 618 434 618 440.5 597.5 c 128,-1,20
 447 577 447 577 446 561 c 1,21,-1
 398 545 l 2,22,23
 360 532 360 532 281 523 c 1,24,25
 338 473 338 473 364 436 c 2,26,-1
 392 395 l 1,27,28
 384 382 384 382 367 369.5 c 128,-1,29
 350 357 350 357 334 354 c 1,30,-1
 305 394 l 1,31,32
 280 424 280 424 247 498 c 1,33,34
 219 430 219 430 191 394 c 2,35,-1
 160 354 l 1,36,37
 146 357 146 357 128.5 369.5 c 128,-1,38
 111 382 111 382 103 396 c 1,39,-1
 132 436 l 2,40,41
 151 462 151 462 214 523 c 1,42,43
 139 529 139 529 97 545 c 1,44,-1
 49 562 l 1,0,1
EndSplineSet
EndChar

StartChar: endash
Encoding: 8211 8211 112
Width: 517
Flags: HMW
HStem: 232 65<67 450 67 450>
VStem: 64 390<256.5 270>
LayerCount: 2
Fore
SplineSet
450 232 m 1,0,-1
 67 232 l 1,1,2
 64 245 64 245 64 262.5 c 0,3,4
 64 280 64 280 67 297 c 1,5,-1
 450 297 l 1,6,7
 454 282 454 282 454 263 c 128,-1,8
 454 244 454 244 450 232 c 1,0,-1
EndSplineSet
EndChar

StartChar: emdash
Encoding: 8212 8212 113
Width: 789
Flags: HMW
HStem: 232 65<82 707 82 707>
VStem: 79 631<256.5 270>
LayerCount: 2
Fore
SplineSet
707 232 m 1,0,-1
 82 232 l 1,1,2
 79 245 79 245 79 262.5 c 0,3,4
 79 280 79 280 82 297 c 1,5,-1
 707 297 l 1,6,7
 710 280 710 280 710 263 c 128,-1,8
 710 246 710 246 707 232 c 1,0,-1
EndSplineSet
EndChar

StartChar: slash
Encoding: 47 47 114
Width: 407
Flags: HMW
HStem: -106 864<65.5 327>
VStem: 10 383
LayerCount: 2
Fore
SplineSet
10 -81 m 1,0,-1
 327 758 l 1,1,2
 366 754 366 754 393 733 c 1,3,-1
 76 -106 l 1,4,5
 43 -106 43 -106 10 -81 c 1,0,-1
EndSplineSet
EndChar

StartChar: backslash
Encoding: 92 92 115
Width: 407
Flags: HMW
HStem: -106 864<79 330>
VStem: 13 383
LayerCount: 2
Fore
SplineSet
330 -106 m 1,0,-1
 13 733 l 1,1,2
 42 756 42 756 79 758 c 1,3,-1
 396 -81 l 1,4,5
 366 -104 366 -104 330 -106 c 1,0,-1
EndSplineSet
EndChar

StartChar: bar
Encoding: 124 124 116
Width: 247
Flags: HMW
HStem: -143 921<117 129.5>
VStem: 88 71<-140 775 -140 775>
LayerCount: 2
Fore
SplineSet
88 -140 m 1,0,-1
 88 775 l 1,1,2
 103 778 103 778 122.75 778 c 0,3,4
 142.5 778 142.5 778 159 775 c 1,5,-1
 159 -140 l 1,6,7
 142.5 -143 142.5 -143 122.75 -143 c 0,8,9
 103 -143 103 -143 88 -140 c 1,0,-1
EndSplineSet
EndChar

StartChar: brokenbar
Encoding: 166 166 117
Width: 241
Flags: HMW
HStem: -143 921<114 126.5>
VStem: 86 70<-140 247 -140 247 388 775>
LayerCount: 2
Fore
SplineSet
86 -140 m 1,0,-1
 86 247 l 1,1,2
 100 250 100 250 119.75 250 c 0,3,4
 139.5 250 139.5 250 156 247 c 1,5,-1
 156 -140 l 1,6,7
 139.5 -143 139.5 -143 119.75 -143 c 0,8,9
 100 -143 100 -143 86 -140 c 1,0,-1
86 388 m 1,10,-1
 86 775 l 1,11,12
 99 778 99 778 119.25 778 c 0,13,14
 139.5 778 139.5 778 156 775 c 1,15,-1
 156 388 l 1,16,17
 139.5 385 139.5 385 119.75 385 c 0,18,19
 100 385 100 385 86 388 c 1,10,-1
EndSplineSet
EndChar

StartChar: paragraph
Encoding: 182 182 118
Width: 627
Flags: HMW
HStem: -153 62<178.5 211 178.5 224> 615 68<541 547 547 594>
VStem: 293 77<58 68 68 260 260 260> 437 77<-134 616 -134 677 -134 677>
LayerCount: 2
Fore
SplineSet
293 58 m 2,0,-1
 293 260 l 1,1,-1
 271 260 l 2,2,3
 171 260 171 260 111 315.5 c 128,-1,4
 51 371 51 371 51 474.5 c 0,5,6
 51 578 51 578 111 632.5 c 128,-1,7
 171 687 171 687 271 687 c 0,8,9
 308 687 308 687 364 684 c 1,10,-1
 370 678 l 1,11,-1
 370 68 l 2,12,13
 370 5 370 5 361.5 -35.5 c 128,-1,14
 353 -76 353 -76 328 -104 c 0,15,16
 285 -153 285 -153 209 -153 c 0,17,18
 133 -153 133 -153 79 -130 c 1,19,20
 79 -96 79 -96 100 -69 c 1,21,22
 150 -91 150 -91 199.5 -91 c 0,23,24
 249 -91 249 -91 271 -59.5 c 0,25,26
 293 -28 293 -28 293 58 c 2,0,-1
437 -134 m 1,27,-1
 437 677 l 1,28,-1
 443 683 l 1,29,-1
 594 683 l 1,30,31
 598 671 598 671 598 649 c 128,-1,32
 598 627 598 627 594 615 c 1,33,-1
 547 615 l 2,34,35
 524 615 524 615 514 616 c 1,36,-1
 514 -134 l 1,37,38
 497 -137 497 -137 474.5 -137 c 0,39,40
 452 -137 452 -137 437 -134 c 1,27,-1
EndSplineSet
EndChar

StartChar: braceleft
Encoding: 123 123 119
Width: 318
Flags: HMW
HStem: -162 971<296 296>
VStem: 37 81 121 77<0 1 1 175 472 474 474 646>
LayerCount: 2
Fore
SplineSet
41 350 m 1,0,1
 76 364 76 364 98.5 395 c 128,-1,2
 121 426 121 426 121 472 c 2,3,-1
 121 647 l 2,4,5
 121 713 121 713 157 752.5 c 128,-1,6
 193 792 193 792 253 802 c 2,7,-1
 296 809 l 1,8,9
 304 800 304 800 308 784 c 128,-1,10
 312 768 312 768 308 755 c 1,11,-1
 265 741 l 1,12,13
 198 722 198 722 198 646 c 2,14,-1
 198 474 l 2,15,16
 198 427 198 427 176 386.5 c 128,-1,17
 154 346 154 346 118 328 c 1,18,-1
 118 320 l 1,19,20
 154 302 154 302 176 261.5 c 128,-1,21
 198 221 198 221 198 175 c 2,22,-1
 198 1 l 2,23,24
 198 -73 198 -73 265 -94 c 2,25,-1
 308 -107 l 1,26,27
 316 -138 316 -138 296 -162 c 1,28,-1
 253 -155 l 2,29,30
 193 -145 193 -145 157 -105 c 128,-1,31
 121 -65 121 -65 121 0 c 2,32,-1
 121 177 l 2,33,34
 121 221 121 221 98.5 253 c 128,-1,35
 76 285 76 285 41 299 c 1,36,37
 37 308 37 308 37 324.5 c 128,-1,38
 37 341 37 341 41 350 c 1,0,1
EndSplineSet
EndChar

StartChar: braceright
Encoding: 125 125 120
Width: 318
Flags: HMW
HStem: -162 971<22 22>
VStem: 120 76<1 175 175 177 474 646 646 647>
LayerCount: 2
Fore
SplineSet
276 350 m 1,0,1
 280 341 280 341 280 324.5 c 128,-1,2
 280 308 280 308 276 299 c 1,3,4
 241 285 241 285 218.5 253 c 128,-1,5
 196 221 196 221 196 177 c 2,6,-1
 196 0 l 2,7,8
 196 -65 196 -65 160 -105 c 128,-1,9
 124 -145 124 -145 64 -155 c 2,10,-1
 22 -162 l 1,11,12
 2 -140 2 -140 9 -107 c 1,13,-1
 53 -94 l 1,14,15
 120 -73 120 -73 120 1 c 2,16,-1
 120 175 l 2,17,18
 120 221 120 221 142 261.5 c 128,-1,19
 164 302 164 302 200 320 c 1,20,-1
 200 328 l 1,21,22
 164 346 164 346 142 386.5 c 128,-1,23
 120 427 120 427 120 474 c 2,24,-1
 120 646 l 2,25,26
 120 722 120 722 53 741 c 1,27,-1
 9 755 l 1,28,29
 2 789 2 789 22 809 c 1,30,-1
 64 802 l 2,31,32
 124 792 124 792 160 752.5 c 128,-1,33
 196 713 196 713 196 647 c 2,34,-1
 196 472 l 2,35,36
 196 426 196 426 218.5 395 c 128,-1,37
 241 364 241 364 276 350 c 1,0,1
EndSplineSet
EndChar

StartChar: parenleft
Encoding: 40 40 121
Width: 308
Flags: HMW
HStem: -170 991<248 248>
VStem: 65 82<245.5 406.5 245.5 413>
LayerCount: 2
Fore
SplineSet
147 326 m 128,-1,1
 147 57 147 57 294 -127 c 1,2,3
 280 -160 280 -160 248 -170 c 1,4,5
 163 -85 163 -85 114 53 c 128,-1,6
 65 191 65 191 65 326 c 128,-1,7
 65 461 65 461 114 598.5 c 128,-1,8
 163 736 163 736 248 821 c 1,9,10
 280 813 280 813 294 779 c 1,11,0
 147 595 147 595 147 326 c 128,-1,1
EndSplineSet
EndChar

StartChar: parenright
Encoding: 41 41 122
Width: 308
Flags: HMW
HStem: -170 991<60 60>
VStem: 161 82<245.5 406.5>
LayerCount: 2
Fore
SplineSet
161 326 m 128,-1,1
 161 595 161 595 13 779 c 1,2,3
 28 813 28 813 60 821 c 1,4,5
 145 736 145 736 194 598.5 c 128,-1,6
 243 461 243 461 243 326 c 128,-1,7
 243 191 243 191 194 53 c 128,-1,8
 145 -85 145 -85 60 -170 c 1,9,10
 28 -160 28 -160 13 -127 c 1,11,0
 161 57 161 57 161 326 c 128,-1,1
EndSplineSet
EndChar

StartChar: bracketleft
Encoding: 91 91 123
Width: 316
Flags: HMW
HStem: -137 62 742 62
VStem: 100 76<-74 741 -74 802 -74 802>
LayerCount: 2
Fore
SplineSet
283 -134 m 1,0,-1
 106 -141 l 1,1,-1
 100 -135 l 1,2,-1
 100 802 l 1,3,-1
 106 808 l 1,4,-1
 283 801 l 1,5,6
 285 793 285 793 285 777.5 c 0,7,8
 285 762 285 762 279 744 c 1,9,-1
 176 741 l 1,10,-1
 176 -74 l 1,11,-1
 279 -77 l 1,12,13
 285 -97 285 -97 285 -111.5 c 0,14,15
 285 -126 285 -126 283 -134 c 1,0,-1
EndSplineSet
EndChar

StartChar: bracketright
Encoding: 93 93 124
Width: 316
Flags: HMW
HStem: -137 62 742 62
VStem: 139 77<-74 741 741 741>
LayerCount: 2
Fore
SplineSet
209 -141 m 1,0,-1
 32 -134 l 1,1,2
 30 -126 30 -126 30 -111.5 c 0,3,4
 30 -97 30 -97 36 -77 c 1,5,-1
 139 -74 l 1,6,-1
 139 741 l 1,7,-1
 36 744 l 1,8,9
 30 762 30 762 30 777.5 c 0,10,11
 30 793 30 793 32 801 c 1,12,-1
 209 808 l 1,13,-1
 216 802 l 1,14,-1
 216 -135 l 1,15,-1
 209 -141 l 1,0,-1
EndSplineSet
EndChar

StartChar: currency
Encoding: 164 164 125
Width: 566
Flags: HMW
HStem: 124 59<259 306.5> 488 58<259 306.5 259 324>
VStem: 71 78<311.5 358.5> 417 78<311.5 358.5 311.5 376>
LayerCount: 2
Fore
SplineSet
71 335 m 128,-1,1
 71 404 71 404 109 459 c 1,2,-1
 37 536 l 1,3,4
 54 565 54 565 81 580 c 1,5,-1
 158 508 l 1,6,7
 212 546 212 546 281.5 546 c 128,-1,8
 351 546 351 546 406 509 c 1,9,-1
 484 581 l 1,10,11
 514 565 514 565 528 537 c 1,12,-1
 456 460 l 1,13,14
 495 403 495 403 495 334.5 c 128,-1,15
 495 266 495 266 457 211 c 1,16,-1
 529 134 l 1,17,18
 516 109 516 109 485 90 c 1,19,-1
 408 162 l 1,20,21
 353 124 353 124 283 124 c 128,-1,22
 213 124 213 124 158 162 c 1,23,-1
 81 90 l 1,24,25
 54 106 54 106 37 134 c 1,26,-1
 109 211 l 1,27,0
 71 266 71 266 71 335 c 128,-1,1
186 443.5 m 128,-1,29
 149 399 149 399 149 335.5 c 128,-1,30
 149 272 149 272 186 227.5 c 128,-1,31
 223 183 223 183 283 183 c 128,-1,32
 343 183 343 183 380 227.5 c 128,-1,33
 417 272 417 272 417 335.5 c 128,-1,34
 417 399 417 399 380 443.5 c 128,-1,35
 343 488 343 488 283 488 c 128,-1,28
 223 488 223 488 186 443.5 c 128,-1,29
EndSplineSet
Substitution2: "'c2sc' Capitals to Small Capitals lookup 3 subtable" currency.smcp
Substitution2: "'aalt' Access All Alternates lookup 0 subtable" currency.smcp
EndChar

StartChar: dollar
Encoding: 36 36 126
Width: 494
Flags: HMW
HStem: 39 65<268 268> 541 146<206 269>
VStem: 62 75<441 486.5 441 492.5> 202 66<-38 39 -38 42 -38 42> 206 66<605 687 605 687 605 687> 370 77<158 207>
LayerCount: 2
Fore
SplineSet
39 101 m 1,0,1
 41 137 41 137 71 161 c 1,2,3
 168 104 168 104 254 104 c 0,4,5
 304 104 304 104 337 125 c 128,-1,6
 370 146 370 146 370 185 c 0,7,8
 370 249 370 249 282 282 c 1,9,-1
 179 319 l 2,10,11
 62 362 62 362 62 456 c 0,12,13
 62 512 62 512 100 552.5 c 128,-1,14
 138 593 138 593 206 603 c 1,15,-1
 206 687 l 1,16,17
 217 690 217 690 238.5 690 c 0,18,19
 260 690 260 690 272 687 c 1,20,-1
 272 605 l 1,21,22
 349 600 349 600 427 563 c 1,23,24
 427 526 427 526 399 503 c 1,25,26
 321 541 321 541 245 541 c 0,27,28
 196 541 196 541 166.5 520 c 128,-1,29
 137 499 137 499 137 466 c 0,30,31
 137 433 137 433 156 416.5 c 128,-1,32
 175 400 175 400 218 385 c 2,33,-1
 318 349 l 2,34,35
 375 329 375 329 411 289.5 c 128,-1,36
 447 250 447 250 447 189.5 c 0,37,38
 447 129 447 129 400 85.5 c 128,-1,39
 353 42 353 42 268 39 c 1,40,-1
 268 -38 l 1,41,42
 252 -40 252 -40 234 -40 c 0,43,44
 216 -40 216 -40 202 -38 c 1,45,-1
 202 42 l 1,46,47
 107 54 107 54 39 101 c 1,0,1
EndSplineSet
Substitution2: "'c2sc' Capitals to Small Capitals lookup 3 subtable" dollar.smcp
Substitution2: "'aalt' Access All Alternates lookup 0 subtable" dollar.smcp
EndChar

StartChar: cent
Encoding: 162 162 127
Width: 471
Flags: HMW
HStem: -30 163<216 281.5 217 283> 524 156<219 219 219 286 219 292.5>
VStem: 51 80<265.5 389 259 403.5> 216 67<-30 70 -30 70>
LayerCount: 2
Fore
SplineSet
216 -30 m 1,0,-1
 216 70 l 1,1,2
 131 82 131 82 91 154 c 128,-1,3
 51 226 51 226 51 331.5 c 0,4,5
 51 437 51 437 98 502.5 c 128,-1,6
 145 568 145 568 219 581 c 1,7,-1
 219 680 l 1,8,9
 231 683 231 683 251.5 683 c 0,10,11
 272 683 272 683 286 680 c 1,12,-1
 286 582 l 1,13,14
 355 573 355 573 390.5 529 c 128,-1,15
 426 485 426 485 426 440 c 0,16,17
 426 395 426 395 386 395 c 0,18,19
 372 395 372 395 355 398 c 1,20,21
 358 449 358 449 333 486.5 c 128,-1,22
 308 524 308 524 251.5 524 c 0,23,24
 195 524 195 524 163 472 c 128,-1,25
 131 420 131 420 131 323 c 0,26,27
 131 133 131 133 257 133 c 0,28,29
 320 133 320 133 383 190 c 1,30,31
 395 184 395 184 406.5 171.5 c 128,-1,32
 418 159 418 159 422 147 c 1,33,34
 368 84 368 84 283 70 c 1,35,-1
 283 -30 l 1,36,37
 265 -32 265 -32 248.5 -32 c 0,38,39
 232 -32 232 -32 216 -30 c 1,0,-1
EndSplineSet
Substitution2: "'c2sc' Capitals to Small Capitals lookup 3 subtable" cent.smcp
Substitution2: "'aalt' Access All Alternates lookup 0 subtable" cent.smcp
EndChar

StartChar: sterling
Encoding: 163 163 128
Width: 524
Flags: HMW
HStem: 0 66<262 430> 274 61<63 73 63 75.5 360 390> 595 65<242.5 295.5>
VStem: 71 73<0 62 62 89> 81 77<458 519 457.5 526.5> 140 74<228 258 217.5 260>
LayerCount: 2
Fore
SplineSet
213 275 m 1,0,-1
 214 255 l 1,1,2
 214 169 214 169 141 65 c 1,3,-1
 144 62 l 1,4,5
 260 66 260 66 262 66 c 2,6,-1
 481 66 l 1,7,8
 481 47 481 47 479 35 c 0,9,10
 472 0 472 0 430 0 c 2,11,-1
 71 0 l 1,12,13
 59 36 59 36 59 54.5 c 128,-1,14
 59 73 59 73 71 89 c 1,15,-1
 89 117 l 1,16,17
 140 192 140 192 140 257 c 1,18,19
 139 275 l 1,20,21
 113 274 113 274 63 274 c 1,22,23
 57 301 57 301 63 335 c 1,24,25
 104 335 104 335 124 334 c 1,26,27
 120 346 120 346 110.5 369.5 c 128,-1,28
 101 393 101 393 95.5 408 c 0,29,30
 81 447.545454545 81 447.545454545 81 486 c 0,31,32
 81 555 81 555 129.5 607.5 c 128,-1,33
 178 660 178 660 270 660 c 0,34,35
 381 660 381 660 460 590 c 1,36,37
 459 574 459 574 447 557.5 c 128,-1,38
 435 541 435 541 420 536 c 1,39,40
 387 564 387 564 347 579.5 c 128,-1,41
 307 595 307 595 266 595 c 128,-1,42
 225 595 225 595 191.5 565 c 128,-1,43
 158 535 158 535 158 484 c 0,44,45
 158 445.16 158 445.16 176.5 395.58 c 128,-1,46
 195 346 195 346 199 334 c 1,47,-1
 390 335 l 1,48,49
 398 304 398 304 390 274 c 1,50,-1
 213 275 l 1,0,-1
EndSplineSet
Substitution2: "'c2sc' Capitals to Small Capitals lookup 3 subtable" sterling.smcp
Substitution2: "'aalt' Access All Alternates lookup 0 subtable" sterling.smcp
EndChar

StartChar: Euro
Encoding: 8364 8364 129
Width: 569
Flags: HMW
HStem: -12 67<299.5 366 299.5 367.5> 222 57<33 104 33 110 33 104 188 416 188 188> 365 57<33 104 33 109 187 416> 593 67<299 366>
VStem: 104 78<279 279>
LayerCount: 2
Fore
SplineSet
499 533 m 1,0,1
 418 593 418 593 343 593 c 0,2,3
 213 593 213 593 187 422 c 1,4,-1
 416 422 l 1,5,6
 419 406 419 406 419 393 c 128,-1,7
 419 380 419 380 416 365 c 1,8,-1
 182 365 l 1,9,10
 181 352 181 352 181 322.5 c 0,11,12
 181 293 181 293 182 279 c 1,13,-1
 416 279 l 1,14,15
 419 263 419 263 419 250 c 128,-1,16
 419 237 419 237 416 222 c 1,17,-1
 188 222 l 1,18,19
 215 55 215 55 343 55 c 0,20,21
 418 55 418 55 499 115 c 1,22,23
 527 96 527 96 538 64 c 1,24,25
 446 -12 446 -12 334 -12 c 0,26,27
 143 -12 143 -12 110 222 c 1,28,-1
 33 222 l 1,29,30
 30 237 30 237 30 249.5 c 0,31,32
 30 262 30 262 33 279 c 1,33,-1
 104 279 l 1,34,35
 103 294 103 294 103 322.5 c 0,36,37
 103 351 103 351 104 365 c 1,38,-1
 33 365 l 1,39,40
 30 380 30 380 30 393 c 128,-1,41
 30 406 30 406 33 422 c 1,42,-1
 109 422 l 1,43,44
 142 660 142 660 334 660 c 0,45,46
 444 660 444 660 538 583 c 1,47,48
 526 550 526 550 499 533 c 1,0,1
EndSplineSet
Substitution2: "'c2sc' Capitals to Small Capitals lookup 3 subtable" Euro.smcp
Substitution2: "'aalt' Access All Alternates lookup 0 subtable" Euro.smcp
EndChar

StartChar: yen
Encoding: 165 165 130
Width: 498
Flags: HMW
HStem: 183 56<58 207 58 211 58 207 290 439> 327 56<58 143 58 168 58 143 353 439> 637 20G<71.5 89.5>
VStem: 211 75<0 183 0 183>
LayerCount: 2
Fore
SplineSet
439 183 m 1,0,-1
 286 183 l 1,1,-1
 286 0 l 1,2,3
 269.5 -3 269.5 -3 247.75 -3 c 0,4,5
 226 -3 226 -3 211 0 c 1,6,-1
 211 183 l 1,7,-1
 58 183 l 1,8,9
 54 196 54 196 54 211 c 0,10,11
 54 226 54 226 58 239 c 1,12,-1
 207 239 l 1,13,-1
 168 327 l 1,14,-1
 58 327 l 1,15,16
 54 340 54 340 54 355 c 0,17,18
 54 370 54 370 58 383 c 1,19,-1
 143 383 l 1,20,-1
 29 642 l 1,21,22
 54 657 54 657 79.5 657 c 0,23,24
 105 657 105 657 120 625 c 1,25,-1
 209 408 l 1,26,27
 223 378 223 378 249 302 c 1,28,-1
 254 302 l 1,29,30
 289 396 289 396 294 408 c 2,31,-1
 395 651 l 1,32,33
 413 656 413 656 431.5 656 c 0,34,35
 450 656 450 656 466 652 c 1,36,-1
 469 646 l 1,37,-1
 353 383 l 1,38,-1
 439 383 l 1,39,40
 442 368 442 368 442 355 c 0,41,42
 442 342 442 342 439 327 c 1,43,-1
 328 327 l 1,44,-1
 290 239 l 1,45,-1
 439 239 l 1,46,47
 442 224 442 224 442 211 c 0,48,49
 442 198 442 198 439 183 c 1,0,-1
EndSplineSet
Substitution2: "'c2sc' Capitals to Small Capitals lookup 3 subtable" yen.smcp
Substitution2: "'aalt' Access All Alternates lookup 0 subtable" yen.smcp
EndChar

StartChar: at
Encoding: 64 64 131
Width: 932
Flags: HMW
HStem: -180 59<350.5 478> 9 62<419 466.5> 14 59<677.5 722.5 677.5 740> 421 57<439.5 498.5> 616 57<376 582>
VStem: 57 75<116 337.5 116 354> 281 75<182.5 279.5 182.5 293.5> 572 72<149 154 124.5 385> 811 74<210 387>
LayerCount: 2
Fore
SplineSet
645 413 m 1,0,-1
 644 154 l 2,1,2
 644 110 644 110 656 91.5 c 128,-1,3
 668 73 668 73 695 73 c 0,4,5
 742 73 742 73 776.5 126 c 128,-1,6
 811 179 811 179 811 290 c 0,7,8
 811 436 811 436 721 526 c 128,-1,9
 631 616 631 616 478.5 616 c 0,10,11
 326 616 326 616 229 505.5 c 128,-1,12
 132 395 132 395 132 229 c 0,13,14
 132 63 132 63 217 -29 c 128,-1,15
 302 -121 302 -121 442 -121 c 0,16,17
 562 -121 562 -121 648 -85 c 1,18,19
 670 -103 670 -103 670 -139 c 1,20,21
 558 -180 558 -180 438 -180 c 0,22,23
 268 -180 268 -180 162.5 -72 c 128,-1,24
 57 36 57 36 57 227.5 c 0,25,26
 57 419 57 419 176.5 546 c 128,-1,27
 296 673 296 673 479 673 c 0,28,29
 662 673 662 673 773.5 566.5 c 128,-1,30
 885 460 885 460 885 287 c 0,31,32
 885 162 885 162 827 88 c 128,-1,33
 769 14 769 14 688 14 c 0,34,35
 607 14 607 14 581 80 c 1,36,37
 554 49 554 49 516.5 29 c 128,-1,38
 479 9 479 9 439 9 c 0,39,40
 367 9 367 9 324 67.5 c 128,-1,41
 281 126 281 126 281 229 c 0,42,43
 281 332 281 332 334 405 c 128,-1,44
 387 478 387 478 480 478 c 0,45,46
 573 478 573 478 645 413 c 1,0,-1
453 71 m 0,47,48
 484 71 484 71 518 94 c 128,-1,49
 552 117 552 117 572 149 c 1,50,-1
 572 385 l 1,51,52
 536 421 536 421 479 421 c 128,-1,53
 422 421 422 421 389 365.5 c 128,-1,54
 356 310 356 310 356 233.5 c 0,55,56
 356 157 356 157 380 114 c 128,-1,57
 404 71 404 71 453 71 c 0,47,48
EndSplineSet
EndChar

StartChar: copyright
Encoding: 169 169 132
Width: 810
Flags: HMW
HStem: -18 57<321 487.5 321 505.5> 140 57<377 429.5 377 430.5> 488 56<374.5 438.5> 644 57<321 487.5>
VStem: 45 70<258 424 258 442.5> 231 72<294.5 389 294.5 409.5> 695 70<258 424>
LayerCount: 2
Fore
SplineSet
45 341 m 128,-1,1
 45 493 45 493 148.5 597 c 128,-1,2
 252 701 252 701 404 701 c 128,-1,3
 556 701 556 701 660.5 597 c 128,-1,4
 765 493 765 493 765 341 c 128,-1,5
 765 189 765 189 660.5 85.5 c 128,-1,6
 556 -18 556 -18 404 -18 c 128,-1,7
 252 -18 252 -18 148.5 85.5 c 128,-1,0
 45 189 45 189 45 341 c 128,-1,1
115 341 m 128,-1,9
 115 215 115 215 198 127 c 128,-1,10
 281 39 281 39 404.5 39 c 0,11,12
 528 39 528 39 611.5 127 c 128,-1,13
 695 215 695 215 695 341 c 128,-1,14
 695 467 695 467 611.5 555.5 c 128,-1,15
 528 644 528 644 404.5 644 c 0,16,17
 281 644 281 644 198 555.5 c 128,-1,8
 115 467 115 467 115 341 c 128,-1,9
491 389 m 1,18,19
 494 428 494 428 472.5 458 c 128,-1,20
 451 488 451 488 404.5 488 c 0,21,22
 358 488 358 488 330.5 450 c 128,-1,23
 303 412 303 412 303 342 c 0,24,25
 303 272 303 272 331.5 234.5 c 128,-1,26
 360 197 360 197 414.5 197 c 0,27,28
 469 197 469 197 519 242 c 1,29,30
 541 231 541 231 552 203 c 1,31,32
 525 175 525 175 484.5 157.5 c 128,-1,33
 444 140 444 140 402 140 c 0,34,35
 324 140 324 140 277.5 195 c 128,-1,36
 231 250 231 250 231 344 c 0,37,38
 231 438 231 438 283.5 491 c 128,-1,39
 336 544 336 544 407 544 c 128,-1,40
 478 544 478 544 517 505 c 128,-1,41
 556 466 556 466 556 425 c 0,42,43
 556 384 556 384 521 384 c 0,44,45
 504 384 504 384 491 389 c 1,18,19
EndSplineSet
EndChar

StartChar: registered
Encoding: 174 174 133
Width: 588
Flags: HMW
HStem: 232 52<237 350 237 364.5> 459 42<252 283 252 294> 575 41<252 329.5 285 298> 691 52<237 350>
VStem: 38 57<430.5 543.5 430.5 558.5> 200 52<364 459 364 501 501 575> 339 53<527.5 548> 493 56<430.5 543.5>
LayerCount: 2
Fore
SplineSet
38 487 m 128,-1,1
 38 594 38 594 112 668.5 c 128,-1,2
 186 743 186 743 293 743 c 128,-1,3
 400 743 400 743 474.5 668.5 c 128,-1,4
 549 594 549 594 549 487 c 128,-1,5
 549 380 549 380 474.5 306 c 128,-1,6
 400 232 400 232 293 232 c 128,-1,7
 186 232 186 232 112 306 c 128,-1,0
 38 380 38 380 38 487 c 128,-1,1
95 487 m 128,-1,9
 95 402 95 402 152 343 c 128,-1,10
 209 284 209 284 293.5 284 c 128,-1,11
 378 284 378 284 435.5 343 c 128,-1,12
 493 402 493 402 493 487 c 128,-1,13
 493 572 493 572 435.5 631.5 c 128,-1,14
 378 691 378 691 293.5 691 c 128,-1,15
 209 691 209 691 152 631.5 c 128,-1,8
 95 572 95 572 95 487 c 128,-1,9
368 596 m 128,-1,17
 392 576 392 576 392 545.5 c 0,18,19
 392 492 392 492 341 475 c 1,20,21
 355 469 355 469 374 434 c 2,22,-1
 390 406 l 2,23,24
 400 387 400 387 411 379 c 1,25,26
 400 359 400 359 378 359 c 128,-1,27
 356 359 356 359 341 389 c 2,28,-1
 315 438 l 2,29,30
 304 459 304 459 283 459 c 2,31,-1
 252 459 l 1,32,-1
 252 364 l 1,33,34
 226 356 226 356 200 364 c 1,35,-1
 200 611 l 1,36,-1
 203 614 l 1,37,38
 263 616 263 616 303.5 616 c 128,-1,16
 344 616 344 616 368 596 c 128,-1,17
252 575 m 1,39,-1
 252 501 l 1,40,-1
 294 501 l 2,41,42
 339 501 339 501 339 538 c 128,-1,43
 339 575 339 575 298 575 c 2,44,-1
 252 575 l 1,39,-1
EndSplineSet
EndChar

StartChar: asciicircum
Encoding: 94 94 134
Width: 530
Flags: HMW
HStem: 585 63<262 268 262 262> 585 67
VStem: 53 424<306 306>
LayerCount: 2
Fore
SplineSet
305 648 m 1,0,-1
 477 306 l 1,1,2
 466 302 466 302 441 302 c 128,-1,3
 416 302 416 302 401 306 c 1,4,-1
 300 513 l 2,5,6
 293 528 293 528 268 585 c 1,7,-1
 262 585 l 1,8,-1
 230 513 l 1,9,-1
 129 306 l 1,10,11
 114 302 114 302 89 302 c 128,-1,12
 64 302 64 302 53 306 c 1,13,-1
 225 648 l 1,14,15
 265 658 265 658 305 648 c 1,0,-1
EndSplineSet
EndChar

StartChar: underscore
Encoding: 95 95 135
Width: 510
Flags: HMW
HStem: -143 61<0 510 0 510>
VStem: -3 516<-119.5 -106.5>
LayerCount: 2
Fore
SplineSet
510 -143 m 1,0,-1
 0 -143 l 1,1,2
 -3 -131 -3 -131 -3 -112.5 c 0,3,4
 -3 -94 -3 -94 0 -82 c 1,5,-1
 510 -82 l 1,6,7
 513 -94 513 -94 513 -112.5 c 0,8,9
 513 -131 513 -131 510 -143 c 1,0,-1
EndSplineSet
EndChar

StartChar: section
Encoding: 167 167 136
Width: 477
Flags: HMW
HStem: -103 60<202 261 202 278> -25 20G 635 60<215 265.5> 641 20G
VStem: 35 77<275.5 325> 74 77<544 584.5 544 600.5> 328 76<7.5 48> 367 77<268 317>
LayerCount: 2
Fore
SplineSet
401.5 397 m 128,-1,1
 444 361 444 361 444 307.5 c 128,-1,2
 444 254 444 254 413 215 c 128,-1,3
 382 176 382 176 333 152 c 1,4,5
 404 107 404 107 404 39.5 c 128,-1,6
 404 -28 404 -28 354.5 -65.5 c 128,-1,7
 305 -103 305 -103 219 -103 c 128,-1,8
 133 -103 133 -103 69 -61 c 1,9,10
 68 -47 68 -47 77 -30 c 128,-1,11
 86 -13 86 -13 96 -5 c 1,12,13
 168 -43 168 -43 222 -43 c 128,-1,14
 276 -43 276 -43 302 -23.5 c 128,-1,15
 328 -4 328 -4 328 30 c 0,16,17
 328 77 328 77 253 107 c 2,18,-1
 194 130 l 2,19,20
 120 159 120 159 77.5 195.5 c 128,-1,21
 35 232 35 232 35 285.5 c 128,-1,22
 35 339 35 339 65.5 377.5 c 128,-1,23
 96 416 96 416 144 440 c 1,24,25
 74 487 74 487 74 553.5 c 128,-1,26
 74 620 74 620 123 657.5 c 128,-1,27
 172 695 172 695 246.5 695 c 128,-1,28
 321 695 321 695 393 661 c 1,29,30
 393 626 393 626 370 603 c 1,31,32
 297 635 297 635 249 635 c 128,-1,33
 201 635 201 635 176 615 c 128,-1,34
 151 595 151 595 151 562 c 0,35,36
 151 515 151 515 226 485 c 2,37,-1
 284 462 l 2,38,0
 359 433 359 433 401.5 397 c 128,-1,1
258 390 m 1,39,-1
 202 410 l 1,40,41
 112 368 112 368 112 301 c 0,42,43
 112 267 112 267 140.5 245 c 128,-1,44
 169 223 169 223 220 203 c 2,45,-1
 274 181 l 1,46,47
 367 224 367 224 367 291 c 0,48,49
 367 326 367 326 338 348 c 128,-1,50
 309 370 309 370 258 390 c 1,39,-1
EndSplineSet
EndChar

StartChar: acute
Encoding: 180 180 137
Width: 398
Flags: HMW
HStem: 536 186<169 271>
VStem: 134 198<568 666>
LayerCount: 2
Fore
SplineSet
134 568 m 1,0,-1
 271 722 l 1,1,2
 314 709 314 709 332 666 c 1,3,-1
 169 536 l 1,4,5
 145 542 145 542 134 568 c 1,0,-1
EndSplineSet
EndChar

StartChar: grave
Encoding: 96 96 138
Width: 398
Flags: HMW
HStem: 536 186<131 233>
VStem: 70 198<568 666>
LayerCount: 2
Fore
SplineSet
131 722 m 1,0,-1
 268 568 l 1,1,2
 257 542 257 542 233 536 c 1,3,-1
 70 666 l 1,4,5
 88 709 88 709 131 722 c 1,0,-1
EndSplineSet
EndChar

StartChar: tilde
Encoding: 732 732 139
Width: 398
Flags: HMW
HStem: 557 68<272 284.5 272 287.5> 610 67<113.5 127>
VStem: 29 340<592 642>
LayerCount: 2
Fore
SplineSet
216 571 m 2,0,-1
 155 601 l 2,1,2
 135 610 135 610 117.5 610 c 0,3,4
 100 610 100 610 80 584 c 2,5,-1
 67 568 l 1,6,7
 37 570 37 570 29 592 c 1,8,-1
 38 612 l 2,9,10
 67 677 67 677 128 677 c 0,11,12
 154 677 154 677 182 663 c 2,13,-1
 243 634 l 2,14,15
 261 625 261 625 279.5 625 c 0,16,17
 298 625 298 625 318 651 c 1,18,-1
 331 666 l 1,19,20
 359 664 359 664 369 642 c 1,21,-1
 360 622 l 2,22,23
 330 557 330 557 270 557 c 0,24,25
 244 557 244 557 216 571 c 2,0,-1
EndSplineSet
EndChar

StartChar: asciitilde
Encoding: 126 126 140
Width: 560
Flags: HMW
HStem: 221 71<384 406 384 409> 288 72<154 176>
VStem: 44 472<262 319>
LayerCount: 2
Fore
SplineSet
261 340 m 2,0,-1
 338 305 l 2,1,2
 369 292 369 292 393 292 c 0,3,4
 429 292 429 292 457 328 c 2,5,-1
 472 347 l 1,6,7
 485 346 485 346 498 338.5 c 128,-1,8
 511 331 511 331 516 319 c 1,9,-1
 506 301 l 1,10,11
 465 221 465 221 381 221 c 0,12,13
 342 221 342 221 299 241 c 2,14,-1
 222 276 l 2,15,16
 195 288 195 288 163 288 c 0,17,18
 131 288 131 288 104 253 c 1,19,-1
 88 234 l 1,20,21
 75 235 75 235 62 242.5 c 128,-1,22
 49 250 49 250 44 262 c 1,23,-1
 54 280 l 1,24,25
 95 360 95 360 179 360 c 0,26,27
 218 360 218 360 261 340 c 2,0,-1
EndSplineSet
EndChar

StartChar: dieresis
Encoding: 168 168 141
Width: 398
Flags: HMW
HStem: 572 68<71 71 150 150 248 248 327 327>
VStem: 64 86 241 86
LayerCount: 2
Fore
SplineSet
241 606 m 128,-1,1
 241 622 241 622 248 640 c 1,2,3
 264 649 264 649 288.5 649 c 0,4,5
 313 649 313 649 327 640 c 1,6,7
 334 622 334 622 334 605 c 0,8,9
 334 588 334 588 327 572 c 1,10,11
 314 563 314 563 288 563 c 128,-1,12
 262 563 262 563 248 572 c 1,13,0
 241 590 241 590 241 606 c 128,-1,1
64 606 m 128,-1,15
 64 622 64 622 71 640 c 1,16,17
 85 649 85 649 109.5 649 c 0,18,19
 134 649 134 649 150 640 c 1,20,21
 157 622 157 622 157 605 c 0,22,23
 157 588 157 588 150 572 c 1,24,25
 136 563 136 563 110 563 c 128,-1,26
 84 563 84 563 71 572 c 1,27,14
 64 590 64 590 64 606 c 128,-1,15
EndSplineSet
EndChar

StartChar: cedilla
Encoding: 184 184 142
Width: 398
Flags: HMW
HStem: -219 21G<179.5 226> -219 49<181 207.5 181 226> -83 43 -83 83<187 207.5>
VStem: 239 65<-137.5 -114>
LayerCount: 2
Fore
SplineSet
151 -72 m 1,0,1
 162 -32 162 -32 177 0 c 1,2,-1
 233 0 l 1,3,4
 222 -22 222 -22 216 -40 c 1,5,6
 254 -43 254 -43 279 -66 c 128,-1,7
 304 -89 304 -89 304 -128 c 0,8,9
 304 -167 304 -167 273 -193 c 128,-1,10
 242 -219 242 -219 195 -219 c 128,-1,11
 148 -219 148 -219 120 -200 c 1,12,13
 121 -178 121 -178 138 -156 c 1,14,15
 161 -170 161 -170 188 -170 c 0,16,17
 215 -170 215 -170 227 -157.5 c 128,-1,18
 239 -145 239 -145 239 -126 c 128,-1,19
 239 -107 239 -107 227 -95 c 128,-1,20
 215 -83 215 -83 196.5 -83 c 0,21,22
 178 -83 178 -83 166 -88 c 1,23,24
 155 -83 155 -83 151 -72 c 1,0,1
EndSplineSet
EndChar

StartChar: circumflex
Encoding: 710 710 143
Width: 398
Flags: HMW
HStem: 538 170
VStem: 62 272<573 579>
LayerCount: 2
Fore
SplineSet
294 543 m 1,0,-1
 199 637 l 1,1,-1
 98 538 l 1,2,3
 74 548 74 548 62 573 c 1,4,-1
 168 705 l 1,5,6
 193 712 193 712 233 706 c 1,7,-1
 334 579 l 1,8,9
 321 553 321 553 294 543 c 1,0,-1
EndSplineSet
EndChar

StartChar: macron
Encoding: 175 175 144
Width: 398
Flags: HMW
HStem: 578 66<66 332 66 332>
VStem: 66 266<578 578 578 644>
LayerCount: 2
Fore
SplineSet
332 578 m 1,0,-1
 66 578 l 1,1,2
 63 592 63 592 63 610.5 c 0,3,4
 63 629 63 629 66 644 c 1,5,-1
 332 644 l 1,6,7
 335 629 335 629 335 610.5 c 0,8,9
 335 592 335 592 332 578 c 1,0,-1
EndSplineSet
EndChar

StartChar: ae
Encoding: 230 230 145
Width: 796
Flags: HMW
HStem: -12 65<506 577> 223 57<424 662 424 734 424 662> 238 56<204.5 257> 437 64<230.5 285.5> 446 57<511.5 587.5>
VStem: 51 75<115 171 115 189.5> 348 76<223 336> 662 76<280 291 291 332.5>
LayerCount: 2
Fore
SplineSet
734 223 m 1,0,-1
 424 223 l 1,1,2
 429 53 429 53 552 53 c 0,3,4
 620 53 620 53 697 96 c 1,5,6
 720 76 720 76 724 44 c 1,7,8
 644 -12 644 -12 543 -12 c 0,9,10
 428 -12 428 -12 380 80 c 1,11,12
 347 41 347 41 299 14.5 c 128,-1,13
 251 -12 251 -12 188.5 -12 c 128,-1,14
 126 -12 126 -12 88.5 31 c 128,-1,15
 51 74 51 74 51 134 c 0,16,17
 51 214 51 214 101 254 c 128,-1,18
 151 294 151 294 238 294 c 0,19,20
 290 294 290 294 348 284 c 1,21,-1
 348 336 l 2,22,23
 348 437 348 437 258 437 c 0,24,25
 188 437 188 437 95 396 c 1,26,27
 69 418 69 418 69 454 c 1,28,29
 176 501 176 501 269.5 501 c 128,-1,30
 363 501 363 501 399 428 c 1,31,32
 454 503 454 503 546 503 c 128,-1,33
 638 503 638 503 688 442.5 c 128,-1,34
 738 382 738 382 738 289 c 0,35,36
 738 255 738 255 734 223 c 1,0,-1
147 76 m 128,-1,38
 168 51 168 51 206.5 51 c 128,-1,39
 245 51 245 51 287 73 c 128,-1,40
 329 95 329 95 359 139 c 1,41,42
 350 178 350 178 347 229 c 1,43,44
 296 238 296 238 241.5 238 c 128,-1,45
 187 238 187 238 156.5 212 c 128,-1,46
 126 186 126 186 126 143.5 c 128,-1,37
 126 101 126 101 147 76 c 128,-1,38
633.5 402.5 m 128,-1,48
 605 446 605 446 547.5 446 c 128,-1,49
 490 446 490 446 459 401.5 c 128,-1,50
 428 357 428 357 424 280 c 1,51,-1
 662 280 l 1,52,-1
 662 291 l 2,53,47
 662 359 662 359 633.5 402.5 c 128,-1,48
EndSplineSet
Substitution2: "'smcp' Lowercase to Small Capitals lookup 2 subtable" ae.smcp
Substitution2: "'aalt' Access All Alternates lookup 0 subtable" ae.smcp
EndChar

StartChar: aacute
Encoding: 225 225 147
Width: 504
Flags: HMW
HStem: -12 63<179.5 228 179.5 228> 238 56<204.5 255 182.5 257> 437 64<230.5 285.5> 536 186<212 314>
VStem: 51 75<114 170 114 188.5> 177 198<568 666> 348 72<131 231 231 231 285 334>
LayerCount: 2
Fore
SplineSet
448 31 m 1,0,1
 438 4 438 4 414 -7 c 1,2,3
 365 11 365 11 352 63 c 1,4,5
 275 -12 275 -12 201 -12 c 128,-1,6
 127 -12 127 -12 89 31.5 c 128,-1,7
 51 75 51 75 51 133 c 0,8,9
 51 214 51 214 101 254 c 128,-1,10
 151 294 151 294 226.5 294 c 128,-1,11
 302 294 302 294 348 285 c 1,12,-1
 348 335 l 2,13,14
 348 437 348 437 258 437 c 0,15,16
 188 437 188 437 95 396 c 1,17,18
 69 418 69 418 69 454 c 1,19,20
 176 501 176 501 265 501 c 0,21,22
 420 501 420 501 420 334 c 2,23,-1
 420 128 l 2,24,25
 420 58 420 58 448 31 c 1,0,1
147 75.5 m 128,-1,27
 168 51 168 51 204.5 51 c 128,-1,28
 241 51 241 51 279.5 71.5 c 128,-1,29
 318 92 318 92 348 131 c 1,30,-1
 348 231 l 1,31,32
 300 238 300 238 243.5 238 c 128,-1,33
 187 238 187 238 156.5 211.5 c 128,-1,34
 126 185 126 185 126 142.5 c 128,-1,26
 126 100 126 100 147 75.5 c 128,-1,27
177 568 m 1,35,-1
 314 722 l 1,36,37
 357 709 357 709 375 666 c 1,38,-1
 212 536 l 1,39,40
 188 542 188 542 177 568 c 1,35,-1
EndSplineSet
Substitution2: "'smcp' Lowercase to Small Capitals lookup 2 subtable" aacute.smcp
Substitution2: "'aalt' Access All Alternates lookup 0 subtable" aacute.smcp
EndChar

StartChar: adieresis
Encoding: 228 228 149
Width: 504
Flags: HMW
HStem: -12 63<179.5 228 179.5 228> 238 56<204.5 255 182.5 257> 437 64<230.5 285.5> 572 68<113 113 192 192 290 290 369 369>
VStem: 51 75<114 170 114 188.5> 106 86 283 86 348 72<131 231 231 231 285 334>
LayerCount: 2
Fore
SplineSet
448 31 m 1,0,1
 438 4 438 4 414 -7 c 1,2,3
 365 11 365 11 352 63 c 1,4,5
 275 -12 275 -12 201 -12 c 128,-1,6
 127 -12 127 -12 89 31.5 c 128,-1,7
 51 75 51 75 51 133 c 0,8,9
 51 214 51 214 101 254 c 128,-1,10
 151 294 151 294 226.5 294 c 128,-1,11
 302 294 302 294 348 285 c 1,12,-1
 348 335 l 2,13,14
 348 437 348 437 258 437 c 0,15,16
 188 437 188 437 95 396 c 1,17,18
 69 418 69 418 69 454 c 1,19,20
 176 501 176 501 265 501 c 0,21,22
 420 501 420 501 420 334 c 2,23,-1
 420 128 l 2,24,25
 420 58 420 58 448 31 c 1,0,1
147 75.5 m 128,-1,27
 168 51 168 51 204.5 51 c 128,-1,28
 241 51 241 51 279.5 71.5 c 128,-1,29
 318 92 318 92 348 131 c 1,30,-1
 348 231 l 1,31,32
 300 238 300 238 243.5 238 c 128,-1,33
 187 238 187 238 156.5 211.5 c 128,-1,34
 126 185 126 185 126 142.5 c 128,-1,26
 126 100 126 100 147 75.5 c 128,-1,27
290 572 m 1,35,36
 283 589 283 589 283 605.5 c 128,-1,37
 283 622 283 622 290 640 c 1,38,39
 306 649 306 649 330.5 649 c 128,-1,40
 355 649 355 649 369 640 c 1,41,42
 376 622 376 622 376 605 c 128,-1,43
 376 588 376 588 369 572 c 1,44,45
 356 563 356 563 330 563 c 128,-1,46
 304 563 304 563 290 572 c 1,35,36
106 606 m 128,-1,48
 106 622 106 622 113 640 c 1,49,50
 127 649 127 649 151.5 649 c 128,-1,51
 176 649 176 649 192 640 c 1,52,53
 199 622 199 622 199 605 c 128,-1,54
 199 588 199 588 192 572 c 1,55,56
 178 563 178 563 152 563 c 128,-1,57
 126 563 126 563 113 572 c 1,58,47
 106 590 106 590 106 606 c 128,-1,48
EndSplineSet
Substitution2: "'smcp' Lowercase to Small Capitals lookup 2 subtable" adieresis.smcp
Substitution2: "'aalt' Access All Alternates lookup 0 subtable" adieresis.smcp
EndChar

StartChar: aring
Encoding: 229 229 151
Width: 504
Flags: HMW
HStem: -12 63<179.5 228 179.5 228> 238 56<204.5 255 182.5 257> 437 64<230.5 285.5> 536 49<226.5 255.5 226.5 272.5> 698 49<226.5 255.5>
VStem: 51 75<114 170 114 188.5> 131 59<625.5 658 625.5 670.5> 292 59<625.5 658> 348 72<131 231 231 231 285 334>
LayerCount: 2
Fore
SplineSet
448 31 m 1,0,1
 438 4 438 4 414 -7 c 1,2,3
 365 11 365 11 352 63 c 1,4,5
 275 -12 275 -12 201 -12 c 128,-1,6
 127 -12 127 -12 89 31.5 c 128,-1,7
 51 75 51 75 51 133 c 0,8,9
 51 214 51 214 101 254 c 128,-1,10
 151 294 151 294 226.5 294 c 128,-1,11
 302 294 302 294 348 285 c 1,12,-1
 348 335 l 2,13,14
 348 437 348 437 258 437 c 0,15,16
 188 437 188 437 95 396 c 1,17,18
 69 418 69 418 69 454 c 1,19,20
 176 501 176 501 265 501 c 0,21,22
 420 501 420 501 420 334 c 2,23,-1
 420 128 l 2,24,25
 420 58 420 58 448 31 c 1,0,1
147 75.5 m 128,-1,27
 168 51 168 51 204.5 51 c 128,-1,28
 241 51 241 51 279.5 71.5 c 128,-1,29
 318 92 318 92 348 131 c 1,30,-1
 348 231 l 1,31,32
 300 238 300 238 243.5 238 c 128,-1,33
 187 238 187 238 156.5 211.5 c 128,-1,34
 126 185 126 185 126 142.5 c 128,-1,26
 126 100 126 100 147 75.5 c 128,-1,27
162.5 567 m 128,-1,36
 131 598 131 598 131 641.5 c 128,-1,37
 131 685 131 685 162.5 716 c 128,-1,38
 194 747 194 747 241 747 c 128,-1,39
 288 747 288 747 319.5 716 c 128,-1,40
 351 685 351 685 351 641.5 c 128,-1,41
 351 598 351 598 319.5 567 c 128,-1,42
 288 536 288 536 241 536 c 128,-1,35
 194 536 194 536 162.5 567 c 128,-1,36
204.5 682 m 128,-1,44
 190 666 190 666 190 641.5 c 128,-1,45
 190 617 190 617 204.5 601 c 128,-1,46
 219 585 219 585 241 585 c 128,-1,47
 263 585 263 585 277.5 601 c 128,-1,48
 292 617 292 617 292 641.5 c 128,-1,49
 292 666 292 666 277.5 682 c 128,-1,50
 263 698 263 698 241 698 c 128,-1,43
 219 698 219 698 204.5 682 c 128,-1,44
EndSplineSet
Substitution2: "'smcp' Lowercase to Small Capitals lookup 2 subtable" aring.smcp
Substitution2: "'aalt' Access All Alternates lookup 0 subtable" aring.smcp
EndChar

StartChar: ccedilla
Encoding: 231 231 152
Width: 469
Flags: HMW
HStem: -219 21G<228 274> -219 49<229 256 229 274> -83 135<235 256> 443 60<214.5 293>
VStem: 52 77<182 307.5 177.5 331.5> 287 65<-137.5 -114> 355 71
LayerCount: 2
Fore
SplineSet
199 -72 m 1,0,1
 208 -40 208 -40 220 -10 c 1,2,3
 134 0 134 0 93 71 c 128,-1,4
 52 142 52 142 52 241 c 0,5,6
 52 369 52 369 110.5 436 c 128,-1,7
 169 503 169 503 254 503 c 0,8,9
 339 503 339 503 382.5 456.5 c 128,-1,10
 426 410 426 410 426 362 c 0,11,12
 426 314 426 314 387 314 c 0,13,14
 373 314 373 314 355 317 c 1,15,16
 358 368 358 368 333.5 405.5 c 128,-1,17
 309 443 309 443 252 443 c 0,18,19
 195 443 195 443 162 391 c 128,-1,20
 129 339 129 339 129 243 c 0,21,22
 129 147 129 147 162.5 99.5 c 128,-1,23
 196 52 196 52 253 52 c 0,24,25
 310 52 310 52 385 107 c 1,26,27
 413 90 413 90 420 60 c 1,28,29
 357 0 357 0 277 -10 c 1,30,31
 270 -23 270 -23 264 -40 c 1,32,33
 303 -43 303 -43 327.5 -66 c 128,-1,34
 352 -89 352 -89 352 -128 c 0,35,36
 352 -167 352 -167 321 -193 c 128,-1,37
 290 -219 290 -219 243 -219 c 128,-1,38
 196 -219 196 -219 168 -200 c 1,39,40
 169 -177 169 -177 187 -156 c 1,41,42
 208 -170 208 -170 238 -170 c 0,43,44
 287 -170 287 -170 287 -126.5 c 0,45,46
 287 -83 287 -83 239 -83 c 0,47,48
 227 -83 227 -83 215 -88 c 1,49,50
 203 -83 203 -83 199 -72 c 1,0,1
EndSplineSet
Substitution2: "'smcp' Lowercase to Small Capitals lookup 2 subtable" ccedilla.smcp
Substitution2: "'aalt' Access All Alternates lookup 0 subtable" ccedilla.smcp
EndChar

StartChar: eacute
Encoding: 233 233 154
Width: 503
Flags: HMW
HStem: -12 65<212.5 283> 223 57<130 370 130 440 130 370> 446 57<214.5 294.5> 536 186<225 327>
VStem: 52 78<223 223 223 280 223 320> 190 198<568 666> 370 75<280 293 293 334.5>
LayerCount: 2
Fore
SplineSet
440 223 m 1,0,-1
 130 223 l 1,1,2
 135 53 135 53 259 53 c 0,3,4
 327 53 327 53 404 95 c 1,5,6
 427 75 427 75 431 44 c 1,7,8
 350 -12 350 -12 247.5 -12 c 128,-1,9
 145 -12 145 -12 98.5 60 c 128,-1,10
 52 132 52 132 52 246 c 128,-1,11
 52 360 52 360 105 431.5 c 128,-1,12
 158 503 158 503 251 503 c 128,-1,13
 344 503 344 503 394.5 442.5 c 128,-1,14
 445 382 445 382 445 289 c 0,15,16
 445 253 445 253 440 223 c 1,0,-1
341 403.5 m 128,-1,18
 312 446 312 446 254.5 446 c 128,-1,19
 197 446 197 446 165.5 401 c 128,-1,20
 134 356 134 356 130 280 c 1,21,-1
 370 280 l 1,22,-1
 370 293 l 2,23,17
 370 361 370 361 341 403.5 c 128,-1,18
190 568 m 1,24,-1
 327 722 l 1,25,26
 370 709 370 709 388 666 c 1,27,-1
 225 536 l 1,28,29
 201 542 201 542 190 568 c 1,24,-1
EndSplineSet
Substitution2: "'smcp' Lowercase to Small Capitals lookup 2 subtable" eacute.smcp
Substitution2: "'aalt' Access All Alternates lookup 0 subtable" eacute.smcp
EndChar

StartChar: edieresis
Encoding: 235 235 156
Width: 503
Flags: HMW
HStem: -12 65<212.5 283> 223 57<130 370 130 440 130 370> 446 57<214.5 294.5> 572 68<127 127 206 206 304 304 383 383>
VStem: 52 78<223 223 223 280 223 320> 120 86 297 86 370 75<280 293 293 334.5>
LayerCount: 2
Fore
SplineSet
440 223 m 1,0,-1
 130 223 l 1,1,2
 135 53 135 53 259 53 c 0,3,4
 327 53 327 53 404 95 c 1,5,6
 427 75 427 75 431 44 c 1,7,8
 350 -12 350 -12 247.5 -12 c 128,-1,9
 145 -12 145 -12 98.5 60 c 128,-1,10
 52 132 52 132 52 246 c 128,-1,11
 52 360 52 360 105 431.5 c 128,-1,12
 158 503 158 503 251 503 c 128,-1,13
 344 503 344 503 394.5 442.5 c 128,-1,14
 445 382 445 382 445 289 c 0,15,16
 445 253 445 253 440 223 c 1,0,-1
341 403.5 m 128,-1,18
 312 446 312 446 254.5 446 c 128,-1,19
 197 446 197 446 165.5 401 c 128,-1,20
 134 356 134 356 130 280 c 1,21,-1
 370 280 l 1,22,-1
 370 293 l 2,23,17
 370 361 370 361 341 403.5 c 128,-1,18
304 572 m 1,24,25
 297 589 297 589 297 605.5 c 128,-1,26
 297 622 297 622 304 640 c 1,27,28
 320 649 320 649 344.5 649 c 128,-1,29
 369 649 369 649 383 640 c 1,30,31
 390 622 390 622 390 605 c 128,-1,32
 390 588 390 588 383 572 c 1,33,34
 370 563 370 563 344 563 c 128,-1,35
 318 563 318 563 304 572 c 1,24,25
120 606 m 128,-1,37
 120 622 120 622 127 640 c 1,38,39
 141 649 141 649 165.5 649 c 128,-1,40
 190 649 190 649 206 640 c 1,41,42
 213 622 213 622 213 605 c 128,-1,43
 213 588 213 588 206 572 c 1,44,45
 192 563 192 563 166 563 c 128,-1,46
 140 563 140 563 127 572 c 1,47,36
 120 590 120 590 120 606 c 128,-1,37
EndSplineSet
Substitution2: "'smcp' Lowercase to Small Capitals lookup 2 subtable" edieresis.smcp
Substitution2: "'aalt' Access All Alternates lookup 0 subtable" edieresis.smcp
EndChar

StartChar: hbar
Encoding: 295 295 157
Width: 547
Flags: HMW
HStem: 431 68<304.5 346> 575 54<91 91>
VStem: 91 73<0 354 427 575 575 575 629 685> 391 73<78.5 95 95 319 319 342>
LayerCount: 2
Fore
SplineSet
164 685 m 2,0,-1
 164 628 l 1,1,-1
 332 630 l 1,2,3
 335 615 335 615 335 602 c 128,-1,4
 335 589 335 589 332 574 c 1,5,-1
 164 576 l 1,6,-1
 164 427 l 1,7,8
 198 459 198 459 244 479 c 128,-1,9
 290 499 290 499 336 499 c 0,10,11
 403 499 403 499 433.5 455.5 c 128,-1,12
 464 412 464 412 464 342 c 2,13,-1
 464 95 l 2,14,15
 464 39 464 39 476 10 c 1,16,17
 458 -6 458 -6 429 -6 c 0,18,19
 391 -6 391 -6 391 43 c 2,20,-1
 391 319 l 2,21,22
 391 380 391 380 375 405.5 c 128,-1,23
 359 431 359 431 319 431 c 0,24,25
 279 431 279 431 236 409.5 c 128,-1,26
 193 388 193 388 164 354 c 1,27,-1
 164 0 l 1,28,29
 149 -3 149 -3 127.5 -3 c 0,30,31
 106 -3 106 -3 91 0 c 1,32,-1
 91 575 l 1,33,-1
 23 574 l 1,34,35
 20 589 20 589 20 602 c 128,-1,36
 20 615 20 615 23 630 c 1,37,-1
 91 629 l 1,38,-1
 91 729 l 1,39,-1
 97 735 l 1,40,-1
 124 735 l 2,41,42
 148 735 148 735 156 723.5 c 128,-1,43
 164 712 164 712 164 685 c 2,0,-1
EndSplineSet
Substitution2: "'smcp' Lowercase to Small Capitals lookup 2 subtable" hbar.smcp
Substitution2: "'aalt' Access All Alternates lookup 0 subtable" hbar.smcp
EndChar

StartChar: dotlessi
Encoding: 305 305 158
Width: 256
Flags: HMW
HStem: 434 60<46 104 46 104>
VStem: 96 74<0 386 386 404.5 0 494>
LayerCount: 2
Fore
SplineSet
170 422 m 2,0,-1
 170 0 l 1,1,2
 155 -3 155 -3 133 -3 c 0,3,4
 111 -3 111 -3 96 0 c 1,5,-1
 96 386 l 2,6,7
 96 414 96 414 87 424 c 128,-1,8
 78 434 78 434 55 434 c 2,9,-1
 46 434 l 1,10,11
 42 447 42 447 42 461.5 c 0,12,13
 42 476 42 476 46 489 c 1,14,15
 83 494 83 494 96 494 c 2,16,-1
 104 494 l 2,17,18
 135 494 135 494 152.5 474.5 c 128,-1,19
 170 455 170 455 170 422 c 2,0,-1
EndSplineSet
EndChar

StartChar: ij
Encoding: 307 307 160
Width: 519
Flags: HMW
HStem: -219 21G 434 60<46 104 46 104> 588 74<72 72 162 162 335 335 425 425>
VStem: 65 97 96 74<0 386 386 404.5 0 494> 328 97 359 74<-48 13 13 386 386 404.5>
LayerCount: 2
Fore
SplineSet
170 422 m 2,0,-1
 170 0 l 1,1,2
 155 -3 155 -3 133 -3 c 128,-1,3
 111 -3 111 -3 96 0 c 1,4,-1
 96 386 l 2,5,6
 96 414 96 414 87 424 c 128,-1,7
 78 434 78 434 55 434 c 2,8,-1
 46 434 l 1,9,10
 42 447 42 447 42 461.5 c 128,-1,11
 42 476 42 476 46 489 c 1,12,13
 83 494 83 494 96 494 c 2,14,-1
 104 494 l 2,15,16
 135 494 135 494 152.5 474.5 c 128,-1,17
 170 455 170 455 170 422 c 2,0,-1
65 625 m 128,-1,19
 65 648 65 648 72 662 c 1,20,21
 89 672 89 672 118 672 c 128,-1,22
 147 672 147 672 162 662 c 1,23,24
 169 648 169 648 169 625 c 128,-1,25
 169 602 169 602 162 588 c 1,26,27
 147 577 147 577 118.5 577 c 128,-1,28
 90 577 90 577 72 588 c 1,29,18
 65 602 65 602 65 625 c 128,-1,19
433 422 m 2,30,-1
 433 13 l 2,31,32
 433 9 433 9 433 -17 c 128,-1,33
 433 -43 433 -43 432 -63.5 c 128,-1,34
 431 -84 431 -84 425.5 -114 c 128,-1,35
 420 -144 420 -144 407.5 -160 c 0,36,37
 376.834319527 -199.252071006 376.834319527 -199.252071006 314 -219 c 1,38,39
 297 -202 297 -202 291 -172 c 1,40,41
 331 -151 331 -151 345 -125 c 128,-1,42
 359 -99 359 -99 359 -48 c 2,43,-1
 359 386 l 2,44,45
 359 414 359 414 350 424 c 128,-1,46
 341 434 341 434 318 434 c 2,47,-1
 300 434 l 1,48,49
 296 454 296 454 296 461.5 c 128,-1,50
 296 469 296 469 300 489 c 1,51,52
 337 494 337 494 361 494 c 2,53,-1
 369 494 l 2,54,55
 399 494 399 494 416 474.5 c 128,-1,56
 433 455 433 455 433 422 c 2,30,-1
328 625 m 128,-1,58
 328 648 328 648 335 662 c 1,59,60
 352 672 352 672 381 672 c 128,-1,61
 410 672 410 672 425 662 c 1,62,63
 432 648 432 648 432 625 c 128,-1,64
 432 602 432 602 425 588 c 1,65,66
 410 577 410 577 381.5 577 c 128,-1,67
 353 577 353 577 335 588 c 1,68,57
 328 602 328 602 328 625 c 128,-1,58
EndSplineSet
Substitution2: "'smcp' Lowercase to Small Capitals lookup 2 subtable" ij.smcp
Substitution2: "'aalt' Access All Alternates lookup 0 subtable" ij.smcp
EndChar

StartChar: igrave
Encoding: 236 236 161
Width: 256
Flags: HMW
HStem: 434 60<46 104 46 104> 536 186<51 153>
VStem: -10 198<568 666> 96 74<0 386 386 404.5 0 494>
LayerCount: 2
Fore
SplineSet
170 422 m 2,0,-1
 170 0 l 1,1,2
 155 -3 155 -3 133 -3 c 0,3,4
 111 -3 111 -3 96 0 c 1,5,-1
 96 386 l 2,6,7
 96 414 96 414 87 424 c 128,-1,8
 78 434 78 434 55 434 c 2,9,-1
 46 434 l 1,10,11
 42 447 42 447 42 461.5 c 0,12,13
 42 476 42 476 46 489 c 1,14,15
 83 494 83 494 96 494 c 2,16,-1
 104 494 l 2,17,18
 135 494 135 494 152.5 474.5 c 128,-1,19
 170 455 170 455 170 422 c 2,0,-1
51 722 m 1,20,-1
 188 568 l 1,21,22
 177 542 177 542 153 536 c 1,23,-1
 -10 666 l 1,24,25
 8 709 8 709 51 722 c 1,20,-1
EndSplineSet
Substitution2: "'smcp' Lowercase to Small Capitals lookup 2 subtable" igrave.smcp
Substitution2: "'aalt' Access All Alternates lookup 0 subtable" igrave.smcp
EndChar

StartChar: icircumflex
Encoding: 238 238 163
Width: 256
Flags: HMW
HStem: 434 60<46 104 46 104> 538 170
VStem: -22 272<573 579> 96 74<0 386 386 404.5 0 494>
LayerCount: 2
Fore
SplineSet
170 422 m 2,0,-1
 170 0 l 1,1,2
 155 -3 155 -3 133 -3 c 0,3,4
 111 -3 111 -3 96 0 c 1,5,-1
 96 386 l 2,6,7
 96 414 96 414 87 424 c 128,-1,8
 78 434 78 434 55 434 c 2,9,-1
 46 434 l 1,10,11
 42 447 42 447 42 461.5 c 0,12,13
 42 476 42 476 46 489 c 1,14,15
 83 494 83 494 96 494 c 2,16,-1
 104 494 l 2,17,18
 135 494 135 494 152.5 474.5 c 128,-1,19
 170 455 170 455 170 422 c 2,0,-1
210 543 m 1,20,-1
 115 637 l 1,21,-1
 14 538 l 1,22,23
 -10 548 -10 548 -22 573 c 1,24,-1
 84 705 l 1,25,26
 109 712 109 712 149 706 c 1,27,-1
 250 579 l 1,28,29
 237 553 237 553 210 543 c 1,20,-1
EndSplineSet
Substitution2: "'smcp' Lowercase to Small Capitals lookup 2 subtable" icircumflex.smcp
Substitution2: "'aalt' Access All Alternates lookup 0 subtable" icircumflex.smcp
EndChar

StartChar: jcircumflex
Encoding: 309 309 165
Width: 263
Flags: HMW
HStem: -219 21G 434 60<43 112> 538 170
VStem: -15 272<573 579> 102 74<-48 13 13 386 386 404.5>
LayerCount: 2
Fore
SplineSet
176 422 m 2,0,-1
 176 13 l 2,1,2
 176 9 176 9 176 -17 c 128,-1,3
 176 -43 176 -43 175 -63.5 c 128,-1,4
 174 -84 174 -84 168.5 -114 c 128,-1,5
 163 -144 163 -144 150.5 -160 c 0,6,7
 119.834319527 -199.252071006 119.834319527 -199.252071006 57 -219 c 1,8,9
 40 -202 40 -202 34 -172 c 1,10,11
 74 -151 74 -151 88 -125 c 128,-1,12
 102 -99 102 -99 102 -48 c 2,13,-1
 102 386 l 2,14,15
 102 414 102 414 93 424 c 128,-1,16
 84 434 84 434 61 434 c 2,17,-1
 43 434 l 1,18,19
 39 454 39 454 39 461.5 c 128,-1,20
 39 469 39 469 43 489 c 1,21,22
 80 494 80 494 104 494 c 2,23,-1
 112 494 l 2,24,25
 142 494 142 494 159 474.5 c 128,-1,26
 176 455 176 455 176 422 c 2,0,-1
217 543 m 1,27,-1
 122 637 l 1,28,-1
 21 538 l 1,29,30
 -3 548 -3 548 -15 573 c 1,31,-1
 91 705 l 1,32,33
 116 712 116 712 156 706 c 1,34,-1
 257 579 l 1,35,36
 244 553 244 553 217 543 c 1,27,-1
EndSplineSet
Substitution2: "'smcp' Lowercase to Small Capitals lookup 2 subtable" jcircumflex.smcp
Substitution2: "'aalt' Access All Alternates lookup 0 subtable" jcircumflex.smcp
EndChar

StartChar: kcommaaccent
Encoding: 311 311 166
Width: 490
Flags: HMW
HStem: -248 21G -214 21G -68 13 224 61<208.5 209 204 243> 484 10
VStem: 88 73<0 220 0 283 283 685> 241 78<-134.5 -111>
LayerCount: 2
Fore
SplineSet
381 179 m 2,0,-1
 420 91 l 2,1,2
 446 32 446 32 468 16 c 1,3,4
 452 -6 452 -6 424 -6 c 0,5,6
 396 -6 396 -6 384.5 6 c 128,-1,7
 373 18 373 18 361 46 c 2,8,-1
 315 150 l 2,9,10
 296 194 296 194 276 209 c 128,-1,11
 256 224 256 224 223 224 c 0,12,13
 190 224 190 224 161 220 c 1,14,-1
 161 0 l 1,15,16
 146 -3 146 -3 124.5 -3 c 0,17,18
 103 -3 103 -3 88 0 c 1,19,-1
 88 729 l 1,20,-1
 94 735 l 1,21,-1
 121 735 l 2,22,23
 145 735 145 735 153 723.5 c 128,-1,24
 161 712 161 712 161 685 c 2,25,-1
 161 283 l 1,26,-1
 204 285 l 2,27,28
 218 285 218 285 227 299 c 2,29,-1
 334 457 l 2,30,31
 347 477 347 477 358 485.5 c 128,-1,32
 369 494 369 494 384 494 c 0,33,34
 399 494 399 494 427 492 c 1,35,-1
 433 484 l 1,36,-1
 306 299 l 2,37,38
 293 280 293 280 282 271 c 1,39,40
 316 264 316 264 339 242.5 c 128,-1,41
 362 221 362 221 381 179 c 2,0,-1
311 -58 m 1,42,43
 319 -76 319 -76 319 -112.5 c 0,44,45
 319 -149 319 -149 290 -187 c 128,-1,46
 261 -225 261 -225 211 -248 c 1,47,48
 190 -240 190 -240 185 -214 c 1,49,50
 241 -174 241 -174 241 -120 c 0,51,52
 241 -92 241 -92 228 -68 c 1,53,54
 265 -45 265 -45 311 -58 c 1,42,43
EndSplineSet
Substitution2: "'smcp' Lowercase to Small Capitals lookup 2 subtable" kcommaaccent.smcp
Substitution2: "'aalt' Access All Alternates lookup 0 subtable" kcommaaccent.smcp
EndChar

StartChar: kgreenlandic
Encoding: 312 312 167
Width: 490
Flags: HMW
HStem: 224 61<208.5 209 204 243> 484 10
VStem: 88 73<0 220 0 283 283 443>
LayerCount: 2
Fore
SplineSet
381 179 m 2,0,-1
 420 91 l 2,1,2
 446 32 446 32 468 16 c 1,3,4
 452 -6 452 -6 424 -6 c 0,5,6
 396 -6 396 -6 384.5 6 c 128,-1,7
 373 18 373 18 361 46 c 2,8,-1
 315 150 l 2,9,10
 296 194 296 194 276 209 c 128,-1,11
 256 224 256 224 223 224 c 0,12,13
 190 224 190 224 161 220 c 1,14,-1
 161 0 l 1,15,16
 146 -3 146 -3 124.5 -3 c 0,17,18
 103 -3 103 -3 88 0 c 1,19,-1
 88 488 l 1,20,-1
 94 494 l 1,21,-1
 121 494 l 2,22,23
 145 494 145 494 153 482 c 128,-1,24
 161 470 161 470 161 443 c 2,25,-1
 161 283 l 1,26,-1
 204 285 l 2,27,28
 218 285 218 285 227 299 c 2,29,-1
 334 457 l 2,30,31
 347 477 347 477 358 485.5 c 128,-1,32
 369 494 369 494 384 494 c 0,33,34
 399 494 399 494 427 492 c 1,35,-1
 433 484 l 1,36,-1
 306 299 l 2,37,38
 293 280 293 280 282 271 c 1,39,40
 316 264 316 264 339 242.5 c 128,-1,41
 362 221 362 221 381 179 c 2,0,-1
EndSplineSet
Substitution2: "'smcp' Lowercase to Small Capitals lookup 2 subtable" kgreenlandic.smcp
Substitution2: "'aalt' Access All Alternates lookup 0 subtable" kgreenlandic.smcp
EndChar

StartChar: ldot
Encoding: 320 320 168
Width: 321
Flags: HMW
HStem: -4 61<145.5 238> 308 82<237 237 325 325>
VStem: 86 73<85.5 100 100 685> 231 94
LayerCount: 2
Fore
SplineSet
196 57 m 2,0,-1
 238 57 l 1,1,2
 245 43 245 43 245 24.5 c 0,3,4
 245 6 245 6 244 2 c 1,5,6
 204 -4 204 -4 168 -4 c 0,7,8
 132 -4 132 -4 109 17.5 c 128,-1,9
 86 39 86 39 86 79 c 2,10,-1
 86 729 l 1,11,-1
 92 735 l 1,12,-1
 119 735 l 2,13,14
 143 735 143 735 151 723.5 c 128,-1,15
 159 712 159 712 159 685 c 2,16,-1
 159 100 l 2,17,18
 159 57 159 57 196 57 c 2,0,-1
231 349 m 128,-1,20
 231 378 231 378 237 390 c 1,21,22
 260 400 260 400 282.5 400 c 0,23,24
 305 400 305 400 325 390 c 1,25,26
 332 376 332 376 332 349 c 128,-1,27
 332 322 332 322 325 308 c 1,28,29
 311 298 311 298 283 298 c 0,30,31
 255 298 255 298 237 308 c 1,32,19
 231 320 231 320 231 349 c 128,-1,20
EndSplineSet
Substitution2: "'smcp' Lowercase to Small Capitals lookup 2 subtable" ldot.smcp
Substitution2: "'aalt' Access All Alternates lookup 0 subtable" ldot.smcp
EndChar

StartChar: lslash
Encoding: 322 322 169
Width: 312
Flags: HMW
HStem: -4 61<170 263>
VStem: 111 73<85.5 100 100 329 329 329 435 685>
LayerCount: 2
Fore
SplineSet
221 57 m 2,0,-1
 263 57 l 1,1,2
 269 42 269 42 269 24 c 0,3,4
 269 6 269 6 268 2 c 1,5,6
 230 -4 230 -4 193.5 -4 c 0,7,8
 157 -4 157 -4 134 17.5 c 128,-1,9
 111 39 111 39 111 79 c 2,10,-1
 111 329 l 1,11,-1
 40 291 l 1,12,-1
 35 294 l 1,13,14
 27 321 27 321 34 353 c 1,15,-1
 111 395 l 1,16,-1
 111 729 l 1,17,-1
 117 735 l 1,18,-1
 144 735 l 2,19,20
 168 735 168 735 176 723.5 c 128,-1,21
 184 712 184 712 184 685 c 2,22,-1
 184 435 l 1,23,-1
 265 479 l 1,24,-1
 271 476 l 1,25,26
 279 447 279 447 272 417 c 1,27,-1
 184 369 l 1,28,-1
 184 100 l 2,29,30
 184 57 184 57 221 57 c 2,0,-1
EndSplineSet
Substitution2: "'smcp' Lowercase to Small Capitals lookup 2 subtable" lslash.smcp
Substitution2: "'aalt' Access All Alternates lookup 0 subtable" lslash.smcp
EndChar

StartChar: ntilde
Encoding: 241 241 171
Width: 545
Flags: HMW
HStem: 432 67<302.5 344.5> 474 20G<94 122 122 139> 557 68<350 362.5 350 365.5>
VStem: 88 74<0 355 0 428 428 442> 107 340<592 642> 389 74<78.5 95 95 320 320 343>
LayerCount: 2
Fore
SplineSet
463 343 m 2,0,-1
 463 95 l 2,1,2
 463 37 463 37 474 10 c 1,3,4
 458 -6 458 -6 427 -6 c 0,5,6
 389 -6 389 -6 389 43 c 2,7,-1
 389 320 l 2,8,9
 389 381 389 381 373.5 406.5 c 128,-1,10
 358 432 358 432 317.5 432 c 0,11,12
 277 432 277 432 234 410.5 c 128,-1,13
 191 389 191 389 162 355 c 1,14,-1
 162 0 l 1,15,16
 147 -3 147 -3 125 -3 c 0,17,18
 103 -3 103 -3 88 0 c 1,19,-1
 88 488 l 1,20,-1
 94 494 l 1,21,-1
 122 494 l 2,22,23
 146 494 146 494 154 481.5 c 128,-1,24
 162 469 162 469 162 442 c 2,25,-1
 162 428 l 1,26,27
 196 460 196 460 242 479.5 c 128,-1,28
 288 499 288 499 334 499 c 0,29,30
 401 499 401 499 432 456 c 128,-1,31
 463 413 463 413 463 343 c 2,0,-1
294 571 m 2,32,-1
 233 601 l 2,33,34
 213 610 213 610 195.5 610 c 0,35,36
 178 610 178 610 158 584 c 2,37,-1
 145 568 l 1,38,39
 115 570 115 570 107 592 c 1,40,-1
 116 612 l 2,41,42
 145 677 145 677 206 677 c 0,43,44
 232 677 232 677 260 663 c 2,45,-1
 321 634 l 2,46,47
 339 625 339 625 357.5 625 c 0,48,49
 376 625 376 625 396 651 c 1,50,-1
 409 666 l 1,51,52
 437 664 437 664 447 642 c 1,53,-1
 438 622 l 2,54,55
 408 557 408 557 348 557 c 0,56,57
 322 557 322 557 294 571 c 2,32,-1
EndSplineSet
Substitution2: "'smcp' Lowercase to Small Capitals lookup 2 subtable" ntilde.smcp
Substitution2: "'aalt' Access All Alternates lookup 0 subtable" ntilde.smcp
EndChar

StartChar: oe
Encoding: 339 339 172
Width: 844
Flags: HMW
HStem: -12 58<231 303> -12 65<554.5 625> 223 57<472 711 472 783 472 711> 446 57<557 636.5>
VStem: 52 77<205.5 285> 391 81<223 223 223 280 223 294> 711 76<280 291 291 333.5>
LayerCount: 2
Fore
SplineSet
783 223 m 1,0,-1
 472 223 l 1,1,2
 477 53 477 53 601 53 c 0,3,4
 669 53 669 53 746 95 c 1,5,6
 769 75 769 75 773 44 c 1,7,8
 692 -12 692 -12 591 -12 c 0,9,10
 473 -12 473 -12 428 87 c 1,11,12
 378 -12 378 -12 259 -12 c 0,13,14
 175 -12 175 -12 122 41 c 0,15,16
 52 111 52 111 52 245 c 128,-1,17
 52 379 52 379 122 449 c 1,18,19
 174 503 174 503 259 503 c 0,20,21
 381 503 381 503 430 399 c 1,22,23
 480 503 480 503 594 503 c 0,24,25
 686 503 686 503 736.5 442.5 c 128,-1,26
 787 382 787 382 787 289 c 0,27,28
 787 255 787 255 783 223 c 1,0,-1
160 387.5 m 128,-1,30
 129 330 129 330 129 245.5 c 128,-1,31
 129 161 129 161 160 103.5 c 128,-1,32
 191 46 191 46 260 46 c 0,33,34
 307 46 307 46 337.5 76.5 c 0,35,36
 391 130 391 130 391 245 c 0,37,38
 391 329 391 329 359.5 387 c 128,-1,39
 328 445 328 445 259.5 445 c 128,-1,29
 191 445 191 445 160 387.5 c 128,-1,30
682.5 403 m 128,-1,41
 654 446 654 446 597 446 c 128,-1,42
 540 446 540 446 508.5 401.5 c 128,-1,43
 477 357 477 357 472 280 c 1,44,-1
 711 280 l 1,45,-1
 711 291 l 2,46,40
 711 360 711 360 682.5 403 c 128,-1,41
EndSplineSet
Substitution2: "'smcp' Lowercase to Small Capitals lookup 2 subtable" oe.smcp
Substitution2: "'aalt' Access All Alternates lookup 0 subtable" oe.smcp
EndChar

StartChar: oacute
Encoding: 243 243 174
Width: 519
Flags: HMW
HStem: -12 58<231 287.5> 445 58<231 287.5 231 309.5> 536 186<229 331>
VStem: 52 77<205 285> 194 198<568 666> 391 76<205 285 205 294>
LayerCount: 2
Fore
SplineSet
467 245 m 128,-1,1
 467 112 467 112 397 41 c 0,2,3
 344 -12 344 -12 259.5 -12 c 128,-1,4
 175 -12 175 -12 122 41 c 0,5,6
 52 112 52 112 52 245 c 128,-1,7
 52 378 52 378 122 449 c 0,8,9
 174 503 174 503 259.25 503 c 128,-1,10
 344.5 503 344.5 503 397 449 c 0,11,0
 467 378 467 378 467 245 c 128,-1,1
129 245 m 128,-1,13
 129 160 129 160 160 103 c 128,-1,14
 191 46 191 46 260 46 c 0,15,16
 307 46 307 46 337.5 76 c 0,17,18
 391 128.62295082 391 128.62295082 391 245 c 0,19,20
 391 329 391 329 359.5 387 c 128,-1,21
 328 445 328 445 259.5 445 c 128,-1,22
 191 445 191 445 160 387.5 c 128,-1,12
 129 330 129 330 129 245 c 128,-1,13
194 568 m 1,23,-1
 331 722 l 1,24,25
 374 709 374 709 392 666 c 1,26,-1
 229 536 l 1,27,28
 205 542 205 542 194 568 c 1,23,-1
EndSplineSet
Substitution2: "'smcp' Lowercase to Small Capitals lookup 2 subtable" oacute.smcp
Substitution2: "'aalt' Access All Alternates lookup 0 subtable" oacute.smcp
EndChar

StartChar: otilde
Encoding: 245 245 176
Width: 519
Flags: HMW
HStem: -12 58<231 287.5> 445 58<231 287.5 231 309.5> 557 68<332 344.5 332 347.5>
VStem: 52 77<205 285> 89 340<592 642> 391 76<205 285 205 294>
LayerCount: 2
Fore
SplineSet
467 245 m 128,-1,1
 467 112 467 112 397 41 c 0,2,3
 344 -12 344 -12 259.5 -12 c 128,-1,4
 175 -12 175 -12 122 41 c 0,5,6
 52 112 52 112 52 245 c 128,-1,7
 52 378 52 378 122 449 c 0,8,9
 174 503 174 503 259.25 503 c 128,-1,10
 344.5 503 344.5 503 397 449 c 0,11,0
 467 378 467 378 467 245 c 128,-1,1
129 245 m 128,-1,13
 129 160 129 160 160 103 c 128,-1,14
 191 46 191 46 260 46 c 0,15,16
 307 46 307 46 337.5 76 c 0,17,18
 391 128.62295082 391 128.62295082 391 245 c 0,19,20
 391 329 391 329 359.5 387 c 128,-1,21
 328 445 328 445 259.5 445 c 128,-1,22
 191 445 191 445 160 387.5 c 128,-1,12
 129 330 129 330 129 245 c 128,-1,13
276 571 m 2,23,-1
 215 601 l 2,24,25
 195 610 195 610 177.5 610 c 128,-1,26
 160 610 160 610 140 584 c 2,27,-1
 127 568 l 1,28,29
 97 570 97 570 89 592 c 1,30,-1
 98 612 l 2,31,32
 127 677 127 677 188 677 c 0,33,34
 214 677 214 677 242 663 c 2,35,-1
 303 634 l 2,36,37
 321 625 321 625 339.5 625 c 128,-1,38
 358 625 358 625 378 651 c 1,39,-1
 391 666 l 1,40,41
 419 664 419 664 429 642 c 1,42,-1
 420 622 l 2,43,44
 390 557 390 557 330 557 c 0,45,46
 304 557 304 557 276 571 c 2,23,-1
EndSplineSet
Substitution2: "'smcp' Lowercase to Small Capitals lookup 2 subtable" otilde.smcp
Substitution2: "'aalt' Access All Alternates lookup 0 subtable" otilde.smcp
EndChar

StartChar: oslash
Encoding: 248 248 178
Width: 519
Flags: HMW
HStem: -12 57<246.5 288> 447 56<231 272.5> 525 20G<389 389>
VStem: 52 73<220.5 284.5> 394 73<205.5 270>
LayerCount: 2
Fore
SplineSet
398 447 m 1,0,1
 467 378 467 378 467 244 c 128,-1,2
 467 110 467 110 397 41 c 0,3,4
 344 -12 344 -12 259 -12 c 0,5,6
 204 -12 204 -12 164 9 c 1,7,-1
 128 -53 l 1,8,9
 115 -52 115 -52 100 -44 c 128,-1,10
 85 -36 85 -36 78 -26 c 1,11,-1
 118 45 l 1,12,13
 52 114 52 114 52 246.5 c 128,-1,14
 52 379 52 379 122 449 c 1,15,16
 174 503 174 503 259 503 c 0,17,18
 312 503 312 503 352 482 c 1,19,-1
 389 545 l 1,20,21
 401 544 401 544 416 535.5 c 128,-1,22
 431 527 431 527 438 517 c 1,23,-1
 398 447 l 1,0,1
362 103 m 128,-1,25
 394 161 394 161 394 247 c 128,-1,26
 394 333 394 333 364 385 c 1,27,-1
 194 63 l 1,28,29
 223 45 223 45 260 45 c 0,30,24
 330 45 330 45 362 103 c 128,-1,25
157.5 388 m 128,-1,32
 125 329 125 329 125 245.5 c 128,-1,33
 125 162 125 162 153 109 c 1,34,-1
 322 430 l 1,35,36
 293 447 293 447 260 447 c 0,37,31
 190 447 190 447 157.5 388 c 128,-1,32
EndSplineSet
Substitution2: "'smcp' Lowercase to Small Capitals lookup 2 subtable" oslash.smcp
Substitution2: "'aalt' Access All Alternates lookup 0 subtable" oslash.smcp
EndChar

StartChar: rcommaaccent
Encoding: 343 343 180
Width: 353
Flags: HMW
HStem: -248 21G -214 21G -68 13 424 73<265 298.5>
VStem: 97 74<0 333 0 354 0 379> 111 78<-134.5 -111>
LayerCount: 2
Fore
SplineSet
61 456 m 1,0,1
 68 482 68 482 93 498 c 1,2,3
 149 477 149 477 165 409 c 1,4,5
 206 497 206 497 299 497 c 0,6,7
 320 497 320 497 345 493 c 1,8,9
 345 450 345 450 328 423 c 1,10,11
 316 424 316 424 293 424 c 0,12,13
 212 424 212 424 171 333 c 1,14,-1
 171 0 l 1,15,16
 156 -3 156 -3 134 -3 c 0,17,18
 112 -3 112 -3 97 0 c 1,19,-1
 97 354 l 2,20,21
 97 422 97 422 61 456 c 1,0,1
181 -58 m 1,22,23
 189 -76 189 -76 189 -112.5 c 0,24,25
 189 -149 189 -149 160 -187 c 128,-1,26
 131 -225 131 -225 81 -248 c 1,27,28
 60 -240 60 -240 55 -214 c 1,29,30
 111 -174 111 -174 111 -120 c 0,31,32
 111 -92 111 -92 98 -68 c 1,33,34
 135 -45 135 -45 181 -58 c 1,22,23
EndSplineSet
Substitution2: "'smcp' Lowercase to Small Capitals lookup 2 subtable" rcommaaccent.smcp
Substitution2: "'aalt' Access All Alternates lookup 0 subtable" rcommaaccent.smcp
EndChar

StartChar: germandbls
Encoding: 223 223 181
Width: 611
Flags: HMW
HStem: -12 60<384.5 426 384.5 452.5> 406 62 641 57<270 360>
VStem: 110 75<0 407 407 407 468 502 0 510 0 570.5> 338 77<333.5 357.5 333.5 364> 447 74<493 537>
LayerCount: 2
Fore
SplineSet
110 0 m 1,0,-1
 110 407 l 1,1,-1
 24 406 l 1,2,3
 21 421 21 421 21 438 c 0,4,5
 21 455 21 455 24 470 c 1,6,-1
 110 468 l 1,7,-1
 110 510 l 2,8,9
 110 599 110 599 167 648.5 c 128,-1,10
 224 698 224 698 317 698 c 128,-1,11
 410 698 410 698 465.5 645 c 128,-1,12
 521 592 521 592 521 504 c 0,13,14
 521 468 521 468 506 426 c 1,15,-1
 504 426 l 1,16,-1
 506 425 l 1,17,18
 460 413 460 413 437.5 390 c 128,-1,19
 415 367 415 367 415 340.5 c 0,20,21
 415 314 415 314 460 276 c 1,22,-1
 497 246 l 1,23,24
 572 181 572 181 572 122.5 c 0,25,26
 572 64 572 64 524.5 26 c 128,-1,27
 477 -12 477 -12 404 -12 c 0,28,29
 331 -12 331 -12 276 17 c 1,30,31
 277 30 277 30 285.5 46.5 c 128,-1,32
 294 63 294 63 306 72 c 1,33,34
 351 48 351 48 395.5 48 c 0,35,36
 440 48 440 48 466.5 67.5 c 128,-1,37
 493 87 493 87 493 120.5 c 0,38,39
 493 154 493 154 447 194 c 1,40,-1
 406 228 l 2,41,42
 338 285 338 285 338 338 c 0,43,44
 338 377 338 377 366 408.5 c 128,-1,45
 394 440 394 440 441 457 c 1,46,47
 447 478 447 478 447 498 c 0,48,49
 447 560 447 560 413 600.5 c 128,-1,50
 379 641 379 641 314.5 641 c 0,51,52
 250 641 250 641 217.5 604 c 128,-1,53
 185 567 185 567 185 502 c 2,54,-1
 185 0 l 1,55,56
 169 -3 169 -3 147.5 -3 c 0,57,58
 126 -3 126 -3 110 0 c 1,0,-1
EndSplineSet
Substitution2: "'smcp' Lowercase to Small Capitals lookup 2 subtable" germandbls.smcp
Substitution2: "'aalt' Access All Alternates lookup 0 subtable" germandbls.smcp
EndChar

StartChar: uacute
Encoding: 250 250 183
Width: 546
Flags: HMW
HStem: -9 67<201 243.5> 470 20G<383 383 457 457> 477 20G<109 132> 536 186<239 341>
VStem: 83 73<147 171 171 396 396 412> 204 198<568 666> 383 74<135 138 138 490>
LayerCount: 2
Fore
SplineSet
83 147 m 2,0,-1
 83 396 l 2,1,2
 83 450 83 450 71 481 c 1,3,4
 89 497 89 497 118 497 c 0,5,6
 156 497 156 497 156 448 c 2,7,-1
 156 171 l 2,8,9
 156 109 156 109 172 83.5 c 128,-1,10
 188 58 188 58 228 58 c 0,11,12
 268 58 268 58 311 79.5 c 128,-1,13
 354 101 354 101 383 135 c 1,14,-1
 383 490 l 1,15,16
 396 494 396 494 420 494 c 0,17,18
 444 494 444 494 457 490 c 1,19,-1
 457 138 l 2,20,21
 457 58 457 58 485 31 c 1,22,23
 476 4 476 4 451 -7 c 1,24,25
 402 10 402 10 388 67 c 1,26,27
 354 33 354 33 306.5 12 c 128,-1,28
 259 -9 259 -9 211 -9 c 0,29,30
 144 -9 144 -9 113.5 34 c 128,-1,31
 83 77 83 77 83 147 c 2,0,-1
204 568 m 1,32,-1
 341 722 l 1,33,34
 384 709 384 709 402 666 c 1,35,-1
 239 536 l 1,36,37
 215 542 215 542 204 568 c 1,32,-1
EndSplineSet
Substitution2: "'smcp' Lowercase to Small Capitals lookup 2 subtable" uacute.smcp
Substitution2: "'aalt' Access All Alternates lookup 0 subtable" uacute.smcp
EndChar

StartChar: udieresis
Encoding: 252 252 185
Width: 546
Flags: HMW
HStem: -9 67<201 243.5> 470 20G<383 383 457 457> 477 20G<109 132> 572 68<141 141 220 220 318 318 397 397>
VStem: 83 73<147 171 171 396 396 412> 134 86 311 86 383 74<135 138 138 490>
LayerCount: 2
Fore
SplineSet
83 147 m 2,0,-1
 83 396 l 2,1,2
 83 450 83 450 71 481 c 1,3,4
 89 497 89 497 118 497 c 0,5,6
 156 497 156 497 156 448 c 2,7,-1
 156 171 l 2,8,9
 156 109 156 109 172 83.5 c 128,-1,10
 188 58 188 58 228 58 c 128,-1,11
 268 58 268 58 311 79.5 c 128,-1,12
 354 101 354 101 383 135 c 1,13,-1
 383 490 l 1,14,15
 396 494 396 494 420 494 c 128,-1,16
 444 494 444 494 457 490 c 1,17,-1
 457 138 l 2,18,19
 457 58 457 58 485 31 c 1,20,21
 476 4 476 4 451 -7 c 1,22,23
 402 10 402 10 388 67 c 1,24,25
 354 33 354 33 306.5 12 c 128,-1,26
 259 -9 259 -9 211 -9 c 0,27,28
 144 -9 144 -9 113.5 34 c 128,-1,29
 83 77 83 77 83 147 c 2,0,-1
318 572 m 1,30,31
 311 589 311 589 311 605.5 c 128,-1,32
 311 622 311 622 318 640 c 1,33,34
 334 649 334 649 358.5 649 c 128,-1,35
 383 649 383 649 397 640 c 1,36,37
 404 622 404 622 404 605 c 128,-1,38
 404 588 404 588 397 572 c 1,39,40
 384 563 384 563 358 563 c 128,-1,41
 332 563 332 563 318 572 c 1,30,31
134 606 m 128,-1,43
 134 622 134 622 141 640 c 1,44,45
 155 649 155 649 179.5 649 c 128,-1,46
 204 649 204 649 220 640 c 1,47,48
 227 622 227 622 227 605 c 128,-1,49
 227 588 227 588 220 572 c 1,50,51
 206 563 206 563 180 563 c 128,-1,52
 154 563 154 563 141 572 c 1,53,42
 134 590 134 590 134 606 c 128,-1,43
EndSplineSet
Substitution2: "'smcp' Lowercase to Small Capitals lookup 2 subtable" udieresis.smcp
Substitution2: "'aalt' Access All Alternates lookup 0 subtable" udieresis.smcp
EndChar

StartChar: ydieresis
Encoding: 255 255 187
Width: 452
Flags: HMW
HStem: -218 56<78.5 128 78.5 149> -4 53<225 241> 478 20G<61 75.5> 486 9 572 68<97 97 176 176 274 274 353 353>
VStem: 8 428 90 86 267 86
LayerCount: 2
Fore
SplineSet
436 486 m 1,0,-1
 299 17 l 2,1,2
 261 -112 261 -112 218 -165 c 128,-1,3
 175 -218 175 -218 89 -218 c 0,4,5
 45 -218 45 -218 8 -205 c 1,6,7
 5 -177 5 -177 24 -151 c 1,8,9
 55 -162 55 -162 90 -162 c 0,10,11
 143 -162 143 -162 171 -126 c 128,-1,12
 199 -90 199 -90 222 -14 c 2,13,-1
 225 -4 l 1,14,15
 199 -2 199 -2 185.5 8 c 128,-1,16
 172 18 172 18 163 45 c 2,17,-1
 23 485 l 1,18,19
 54 498 54 498 67 498 c 0,20,21
 96 498 96 498 106 463 c 2,22,-1
 185 212 l 2,23,24
 189 200 189 200 231 56 c 0,25,26
 233 49 233 49 241 49 c 1,27,-1
 363 491 l 1,28,29
 376 495 376 495 397.5 495 c 0,30,31
 419 495 419 495 434 489 c 1,32,-1
 436 486 l 1,0,-1
267 606 m 128,-1,34
 267 622 267 622 274 640 c 1,35,36
 290 649 290 649 314.5 649 c 0,37,38
 339 649 339 649 353 640 c 1,39,40
 360 622 360 622 360 605 c 0,41,42
 360 588 360 588 353 572 c 1,43,44
 340 563 340 563 314 563 c 128,-1,45
 288 563 288 563 274 572 c 1,46,33
 267 590 267 590 267 606 c 128,-1,34
90 606 m 128,-1,48
 90 622 90 622 97 640 c 1,49,50
 111 649 111 649 135.5 649 c 0,51,52
 160 649 160 649 176 640 c 1,53,54
 183 622 183 622 183 605 c 0,55,56
 183 588 183 588 176 572 c 1,57,58
 162 563 162 563 136 563 c 128,-1,59
 110 563 110 563 97 572 c 1,60,47
 90 590 90 590 90 606 c 128,-1,48
EndSplineSet
Substitution2: "'smcp' Lowercase to Small Capitals lookup 2 subtable" ydieresis.smcp
Substitution2: "'aalt' Access All Alternates lookup 0 subtable" ydieresis.smcp
EndChar

StartChar: eth
Encoding: 240 240 188
Width: 516
Flags: HMW
HStem: -12 58<229 285.5> 428 59<228 272 228 280.5>
VStem: 50 77<200.5 279.5> 389 76<203 273.5>
LayerCount: 2
Fore
SplineSet
127 572 m 1,0,-1
 221 637 l 1,1,2
 181 671 181 671 130 695 c 1,3,4
 138 732 138 732 161 744 c 1,5,6
 226 714 226 714 276 675 c 1,7,-1
 364 736 l 1,8,9
 374 729 374 729 384 715.5 c 128,-1,10
 394 702 394 702 395 691 c 1,11,-1
 317 637 l 1,12,13
 465 486 465 486 465 242 c 0,14,15
 465 112 465 112 395 41 c 0,16,17
 342 -12 342 -12 257.5 -12 c 128,-1,18
 173 -12 173 -12 120 41 c 0,19,20
 50 112 50 112 50 238 c 128,-1,21
 50 364 50 364 120 434 c 0,22,23
 173 487 173 487 256 487 c 0,24,25
 303 487 303 487 349 464 c 1,26,27
 324 535 324 535 262 599 c 1,28,-1
 158 527 l 1,29,30
 148 533 148 533 138 547 c 128,-1,31
 128 561 128 561 127 572 c 1,0,-1
377.5 147.5 m 128,-1,33
 389 189 389 189 389 255.5 c 128,-1,34
 389 322 389 322 371 390 c 1,35,36
 321 428 321 428 255 428 c 128,-1,37
 189 428 189 428 158 375 c 128,-1,38
 127 322 127 322 127 239.5 c 128,-1,39
 127 157 127 157 158 101.5 c 128,-1,40
 189 46 189 46 258 46 c 0,41,42
 305 46 305 46 335.5 76 c 128,-1,32
 366 106 366 106 377.5 147.5 c 128,-1,33
EndSplineSet
Substitution2: "'smcp' Lowercase to Small Capitals lookup 2 subtable" eth.smcp
Substitution2: "'aalt' Access All Alternates lookup 0 subtable" eth.smcp
EndChar

StartChar: thorn
Encoding: 254 254 189
Width: 525
Flags: HMW
HStem: -215 21G<94 120 94 94> -209 21G<88 88> -8 64<264 310 257 330.5> 434 65<275.5 319>
VStem: 88 72<-181.5 -165 -165 33 101 354 432 685> 399 75<181 316>
LayerCount: 2
Fore
SplineSet
430 431 m 128,-1,1
 474 363 474 363 474 243 c 128,-1,2
 474 123 474 123 417.5 57.5 c 128,-1,3
 361 -8 361 -8 291.5 -8 c 128,-1,4
 222 -8 222 -8 160 33 c 1,5,-1
 160 -165 l 2,6,7
 160 -192 160 -192 152 -203.5 c 128,-1,8
 144 -215 144 -215 120 -215 c 2,9,-1
 94 -215 l 1,10,-1
 88 -209 l 1,11,-1
 88 729 l 1,12,-1
 94 735 l 1,13,-1
 120 735 l 2,14,15
 144 735 144 735 152 723.5 c 128,-1,16
 160 712 160 712 160 685 c 2,17,-1
 160 432 l 1,18,19
 220 499 220 499 303 499 c 128,-1,0
 386 499 386 499 430 431 c 128,-1,1
368 388.5 m 128,-1,21
 337 434 337 434 296.5 434 c 128,-1,22
 256 434 256 434 220 412.5 c 128,-1,23
 184 391 184 391 160 354 c 1,24,-1
 160 101 l 1,25,26
 225 56 225 56 277.5 56 c 128,-1,27
 330 56 330 56 364.5 104.5 c 128,-1,28
 399 153 399 153 399 248 c 128,-1,20
 399 343 399 343 368 388.5 c 128,-1,21
EndSplineSet
Substitution2: "'smcp' Lowercase to Small Capitals lookup 2 subtable" thorn.smcp
Substitution2: "'aalt' Access All Alternates lookup 0 subtable" thorn.smcp
EndChar

StartChar: AE
Encoding: 198 198 190
Width: 871
Flags: HMW
HStem: 0 67<542 765> 177 67<249 343 271 342> 313 66<533 748 541 748> 617 66<481 541 541 796>
VStem: 407 75<96 103 103 178 178 178 243 314 378 555>
LayerCount: 2
Fore
SplineSet
407 178 m 1,0,-1
 342 177 l 1,1,-1
 252 177 l 1,2,-1
 191 178 l 1,3,-1
 100 -1 l 1,4,5
 84 -4 84 -4 63.5 -4 c 128,-1,6
 43 -4 43 -4 23 1 c 1,7,-1
 21 4 l 1,8,-1
 367 675 l 1,9,10
 384 683 384 683 413 683 c 2,11,-1
 800 683 l 1,12,13
 802 671 802 671 802 651 c 128,-1,14
 802 631 802 631 796 617 c 1,15,-1
 481 617 l 1,16,-1
 482 555 l 1,17,-1
 482 378 l 1,18,-1
 541 379 l 1,19,-1
 748 379 l 1,20,21
 751 361 751 361 751 345.5 c 128,-1,22
 751 330 751 330 748 313 c 1,23,-1
 541 313 l 2,24,25
 503 313 503 313 482 314 c 1,26,-1
 482 103 l 1,27,-1
 481 65 l 1,28,29
 517 67 517 67 542 67 c 2,30,-1
 816 67 l 1,31,32
 816 46 816 46 814 35 c 0,33,34
 808 0 808 0 765 0 c 2,35,-1
 451 0 l 2,36,37
 431 0 431 0 419 13.5 c 128,-1,38
 407 27 407 27 407 50 c 2,39,-1
 407 178 l 1,0,-1
343 244 m 1,40,-1
 407 243 l 1,41,-1
 407 601 l 1,42,-1
 406 600 l 1,43,-1
 401 600 l 1,44,45
 394 583 394 583 346 481 c 1,46,-1
 224 243 l 1,47,-1
 271 244 l 1,48,-1
 343 244 l 1,40,-1
EndSplineSet
Substitution2: "'c2sc' Capitals to Small Capitals lookup 3 subtable" ae.smcp
Substitution2: "'aalt' Access All Alternates lookup 0 subtable" ae.smcp
EndChar

StartChar: Agrave
Encoding: 192 192 191
Width: 596
Flags: HMW
HStem: -4 8 177 67<223.5 352 237 352 352 354.5 237 361> 600 83<255 296 255 291> 729 153
VStem: 26 544<4 4> 172 229<771 815>
LayerCount: 2
Fore
SplineSet
431 178 m 1,0,-1
 361 177 l 1,1,-1
 227 177 l 1,2,-1
 157 178 l 1,3,-1
 99 -1 l 1,4,5
 86 -4 86 -4 67 -4 c 128,-1,6
 48 -4 48 -4 28 1 c 1,7,-1
 26 4 l 1,8,-1
 255 683 l 1,9,10
 272 686 272 686 300 686 c 128,-1,11
 328 686 328 686 341 683 c 1,12,-1
 570 4 l 1,13,14
 554 -6 554 -6 530 -6 c 128,-1,15
 506 -6 506 -6 496 2 c 128,-1,16
 486 10 486 10 479 34 c 2,17,-1
 431 178 l 1,0,-1
179 243 m 1,18,-1
 237 244 l 1,19,-1
 352 244 l 2,20,21
 353 244 353 244 376.5 243.5 c 128,-1,22
 400 243 400 243 410 243 c 1,23,-1
 347 433 l 2,24,25
 309 550 309 550 296 600 c 1,26,-1
 291 600 l 1,27,28
 272 526 272 526 257 481 c 2,29,-1
 179 243 l 1,18,-1
210 882 m 1,30,-1
 401 771 l 1,31,32
 395 741 395 741 377 729 c 1,33,-1
 172 815 l 1,34,35
 179 863 179 863 210 882 c 1,30,-1
EndSplineSet
Substitution2: "'c2sc' Capitals to Small Capitals lookup 3 subtable" agrave.smcp
Substitution2: "'aalt' Access All Alternates lookup 0 subtable" agrave.smcp
EndChar

StartChar: Aacute
Encoding: 193 193 192
Width: 596
Flags: HMW
HStem: -4 8 177 67<223.5 352 237 352 352 354.5 237 361> 600 83<255 296 255 291> 729 153
VStem: 26 544<4 4> 210 229<771 815>
LayerCount: 2
Fore
SplineSet
431 178 m 1,0,-1
 361 177 l 1,1,-1
 227 177 l 1,2,-1
 157 178 l 1,3,-1
 99 -1 l 1,4,5
 86 -4 86 -4 67 -4 c 128,-1,6
 48 -4 48 -4 28 1 c 1,7,-1
 26 4 l 1,8,-1
 255 683 l 1,9,10
 272 686 272 686 300 686 c 128,-1,11
 328 686 328 686 341 683 c 1,12,-1
 570 4 l 1,13,14
 554 -6 554 -6 530 -6 c 128,-1,15
 506 -6 506 -6 496 2 c 128,-1,16
 486 10 486 10 479 34 c 2,17,-1
 431 178 l 1,0,-1
179 243 m 1,18,-1
 237 244 l 1,19,-1
 352 244 l 2,20,21
 353 244 353 244 376.5 243.5 c 128,-1,22
 400 243 400 243 410 243 c 1,23,-1
 347 433 l 2,24,25
 309 550 309 550 296 600 c 1,26,-1
 291 600 l 1,27,28
 272 526 272 526 257 481 c 2,29,-1
 179 243 l 1,18,-1
210 771 m 1,30,-1
 401 882 l 1,31,32
 430 864 430 864 439 815 c 1,33,-1
 234 729 l 1,34,35
 214 743 214 743 210 771 c 1,30,-1
EndSplineSet
Substitution2: "'c2sc' Capitals to Small Capitals lookup 3 subtable" aacute.smcp
Substitution2: "'aalt' Access All Alternates lookup 0 subtable" aacute.smcp
EndChar

StartChar: Acircumflex
Encoding: 194 194 193
Width: 596
Flags: HMW
HStem: -4 8 177 67<223.5 352 237 352 352 354.5 237 361> 600 83<255 296 255 291> 732 146
VStem: 26 544<4 4> 151 293<768 773>
LayerCount: 2
Fore
SplineSet
431 178 m 1,0,-1
 361 177 l 1,1,-1
 227 177 l 1,2,-1
 157 178 l 1,3,-1
 99 -1 l 1,4,5
 86 -4 86 -4 67 -4 c 128,-1,6
 48 -4 48 -4 28 1 c 1,7,-1
 26 4 l 1,8,-1
 255 683 l 1,9,10
 272 686 272 686 300 686 c 128,-1,11
 328 686 328 686 341 683 c 1,12,-1
 570 4 l 1,13,14
 554 -6 554 -6 530 -6 c 128,-1,15
 506 -6 506 -6 496 2 c 128,-1,16
 486 10 486 10 479 34 c 2,17,-1
 431 178 l 1,0,-1
179 243 m 1,18,-1
 237 244 l 1,19,-1
 352 244 l 2,20,21
 353 244 353 244 376.5 243.5 c 128,-1,22
 400 243 400 243 410 243 c 1,23,-1
 347 433 l 2,24,25
 309 550 309 550 296 600 c 1,26,-1
 291 600 l 1,27,28
 272 526 272 526 257 481 c 2,29,-1
 179 243 l 1,18,-1
407 738 m 1,30,-1
 298 813 l 1,31,-1
 185 732 l 1,32,33
 157 744 157 744 151 768 c 1,34,-1
 262 876 l 1,35,36
 297 882 297 882 333 876 c 1,37,-1
 444 773 l 1,38,39
 435 746 435 746 407 738 c 1,30,-1
EndSplineSet
Substitution2: "'c2sc' Capitals to Small Capitals lookup 3 subtable" acircumflex.smcp
Substitution2: "'aalt' Access All Alternates lookup 0 subtable" acircumflex.smcp
EndChar

StartChar: Atilde
Encoding: 195 195 194
Width: 596
Flags: HMW
HStem: -4 8 177 67<223.5 352 237 352 352 354.5 237 361> 600 83<255 296 255 291> 741 67<371 384 371 386.5>
VStem: 26 544<4 4> 128 340<775 824>
LayerCount: 2
Fore
SplineSet
431 178 m 1,0,-1
 361 177 l 1,1,-1
 227 177 l 1,2,-1
 157 178 l 1,3,-1
 99 -1 l 1,4,5
 86 -4 86 -4 67 -4 c 128,-1,6
 48 -4 48 -4 28 1 c 1,7,-1
 26 4 l 1,8,-1
 255 683 l 1,9,10
 272 686 272 686 300 686 c 128,-1,11
 328 686 328 686 341 683 c 1,12,-1
 570 4 l 1,13,14
 554 -6 554 -6 530 -6 c 128,-1,15
 506 -6 506 -6 496 2 c 128,-1,16
 486 10 486 10 479 34 c 2,17,-1
 431 178 l 1,0,-1
179 243 m 1,18,-1
 237 244 l 1,19,-1
 352 244 l 2,20,21
 353 244 353 244 376.5 243.5 c 128,-1,22
 400 243 400 243 410 243 c 1,23,-1
 347 433 l 2,24,25
 309 550 309 550 296 600 c 1,26,-1
 291 600 l 1,27,28
 272 526 272 526 257 481 c 2,29,-1
 179 243 l 1,18,-1
315 755 m 2,30,-1
 254 784 l 2,31,32
 234 793 234 793 216.5 793 c 128,-1,33
 199 793 199 793 178 768 c 1,34,-1
 166 752 l 1,35,36
 139 754 139 754 128 775 c 1,37,-1
 136 795 l 2,38,39
 149 825 149 825 173.5 842.5 c 128,-1,40
 198 860 198 860 225.5 860 c 128,-1,41
 253 860 253 860 281 846 c 2,42,-1
 342 817 l 2,43,44
 360 808 360 808 378.5 808 c 128,-1,45
 397 808 397 808 418 833 c 1,46,-1
 430 849 l 1,47,48
 455 847 455 847 468 824 c 1,49,-1
 460 805 l 1,50,51
 431 741 431 741 369 741 c 0,52,53
 343 741 343 741 315 755 c 2,30,-1
EndSplineSet
Substitution2: "'c2sc' Capitals to Small Capitals lookup 3 subtable" atilde.smcp
Substitution2: "'aalt' Access All Alternates lookup 0 subtable" atilde.smcp
EndChar

StartChar: Adieresis
Encoding: 196 196 195
Width: 596
Flags: HMW
HStem: -4 8 177 67<223.5 352 237 352 352 354.5 237 361> 600 83<255 296 255 291> 745 81
VStem: 26 544<4 4> 157 83<745 745 818 818> 356 83<745 745 818 818>
LayerCount: 2
Fore
SplineSet
431 178 m 1,0,-1
 361 177 l 1,1,-1
 227 177 l 1,2,-1
 157 178 l 1,3,-1
 99 -1 l 1,4,5
 86 -4 86 -4 67 -4 c 128,-1,6
 48 -4 48 -4 28 1 c 1,7,-1
 26 4 l 1,8,-1
 255 683 l 1,9,10
 272 686 272 686 300 686 c 128,-1,11
 328 686 328 686 341 683 c 1,12,-1
 570 4 l 1,13,14
 554 -6 554 -6 530 -6 c 128,-1,15
 506 -6 506 -6 496 2 c 128,-1,16
 486 10 486 10 479 34 c 2,17,-1
 431 178 l 1,0,-1
179 243 m 1,18,-1
 237 244 l 1,19,-1
 352 244 l 2,20,21
 353 244 353 244 376.5 243.5 c 128,-1,22
 400 243 400 243 410 243 c 1,23,-1
 347 433 l 2,24,25
 309 550 309 550 296 600 c 1,26,-1
 291 600 l 1,27,28
 272 526 272 526 257 481 c 2,29,-1
 179 243 l 1,18,-1
356 818 m 1,30,31
 369 826 369 826 396 826 c 128,-1,32
 423 826 423 826 439 818 c 1,33,34
 445 799 445 799 445 781.5 c 128,-1,35
 445 764 445 764 439 745 c 1,36,37
 426 737 426 737 396.5 737 c 128,-1,38
 367 737 367 737 356 745 c 1,39,40
 348 762 348 762 348 781.5 c 128,-1,41
 348 801 348 801 356 818 c 1,30,31
157 818 m 1,42,43
 173 826 173 826 200 826 c 128,-1,44
 227 826 227 826 240 818 c 1,45,46
 247 800 247 800 247 781.5 c 128,-1,47
 247 763 247 763 240 745 c 1,48,49
 229 737 229 737 199.5 737 c 128,-1,50
 170 737 170 737 157 745 c 1,51,52
 151 765 151 765 151 781.5 c 128,-1,53
 151 798 151 798 157 818 c 1,42,43
EndSplineSet
Substitution2: "'c2sc' Capitals to Small Capitals lookup 3 subtable" adieresis.smcp
Substitution2: "'aalt' Access All Alternates lookup 0 subtable" adieresis.smcp
EndChar

StartChar: Aring
Encoding: 197 197 196
Width: 596
Flags: HMW
HStem: -4 8 177 67<223.5 352 237 352 352 354.5 237 361> 833 49<283.5 312.5>
VStem: 189 58<760.5 793 760.5 805.5> 349 59<760.5 793>
LayerCount: 2
Fore
SplineSet
431 178 m 1,0,-1
 361 177 l 1,1,-1
 227 177 l 1,2,-1
 157 178 l 1,3,-1
 99 -1 l 1,4,5
 86 -4 86 -4 67 -4 c 128,-1,6
 48 -4 48 -4 28 1 c 1,7,-1
 26 4 l 1,8,-1
 254 679 l 1,9,10
 224 692 224 692 206.5 718 c 128,-1,11
 189 744 189 744 189 782 c 128,-1,12
 189 820 189 820 220 851 c 128,-1,13
 251 882 251 882 298 882 c 128,-1,14
 345 882 345 882 376.5 851 c 128,-1,15
 408 820 408 820 408 782 c 128,-1,16
 408 744 408 744 390 717.5 c 128,-1,17
 372 691 372 691 342 679 c 1,18,-1
 570 4 l 1,19,20
 554 -6 554 -6 530 -6 c 128,-1,21
 506 -6 506 -6 496 2 c 128,-1,22
 486 10 486 10 479 34 c 2,23,-1
 431 178 l 1,0,-1
179 243 m 1,24,-1
 237 244 l 1,25,-1
 352 244 l 2,26,27
 353 244 353 244 376.5 243.5 c 128,-1,28
 400 243 400 243 410 243 c 1,29,-1
 347 433 l 2,30,31
 309 550 309 550 296 600 c 1,32,-1
 291 600 l 1,33,34
 272 526 272 526 257 481 c 2,35,-1
 179 243 l 1,24,-1
261.5 817 m 128,-1,37
 247 801 247 801 247 776.5 c 128,-1,38
 247 752 247 752 261.5 736 c 128,-1,39
 276 720 276 720 298 720 c 128,-1,40
 320 720 320 720 334.5 736 c 128,-1,41
 349 752 349 752 349 776.5 c 128,-1,42
 349 801 349 801 334.5 817 c 128,-1,43
 320 833 320 833 298 833 c 128,-1,36
 276 833 276 833 261.5 817 c 128,-1,37
EndSplineSet
Substitution2: "'c2sc' Capitals to Small Capitals lookup 3 subtable" aring.smcp
Substitution2: "'aalt' Access All Alternates lookup 0 subtable" aring.smcp
EndChar

StartChar: Ccedilla
Encoding: 199 199 197
Width: 600
Flags: HMW
HStem: -219 21G<295 341> -219 49<296 323 296 341> -83 43 -11 66 631 64<262 379>
VStem: 57 81<251.5 434 249 461.5> 355 65<-137.5 -114>
LayerCount: 2
Fore
SplineSet
266 -72 m 1,0,1
 276 -35 276 -35 287 -11 c 1,2,3
 227 -7 227 -7 181.5 23.5 c 128,-1,4
 136 54 136 54 109.5 103.5 c 0,5,6
 57 201.566037736 57 201.566037736 57 338 c 0,7,8
 57 514 57 514 131.5 604.5 c 128,-1,9
 206 695 206 695 315 695 c 128,-1,10
 424 695 424 695 488.5 638 c 128,-1,11
 553 581 553 581 553 507 c 0,12,13
 553 462 553 462 510 462 c 0,14,15
 494 462 494 462 476 467 c 1,16,17
 478 530 478 530 439.5 580.5 c 128,-1,18
 401 631 401 631 316.5 631 c 128,-1,19
 232 631 232 631 185 556 c 128,-1,20
 138 481 138 481 138 343 c 128,-1,21
 138 205 138 205 186.5 130 c 128,-1,22
 235 55 235 55 322.5 55 c 128,-1,23
 410 55 410 55 502 134 c 1,24,25
 533 116 533 116 544 84 c 1,26,27
 465 3 465 3 344 -10 c 1,28,29
 335 -28 335 -28 331 -40 c 1,30,31
 370 -43 370 -43 395 -66 c 128,-1,32
 420 -89 420 -89 420 -128 c 128,-1,33
 420 -167 420 -167 388.5 -193 c 128,-1,34
 357 -219 357 -219 310 -219 c 128,-1,35
 263 -219 263 -219 235 -200 c 1,36,37
 236 -177 236 -177 254 -156 c 1,38,39
 275 -170 275 -170 302.5 -170 c 128,-1,40
 330 -170 330 -170 342.5 -157.5 c 128,-1,41
 355 -145 355 -145 355 -126 c 128,-1,42
 355 -107 355 -107 342.5 -95 c 128,-1,43
 330 -83 330 -83 312 -83 c 128,-1,44
 294 -83 294 -83 282 -88 c 1,45,46
 270 -83 270 -83 266 -72 c 1,0,1
EndSplineSet
Substitution2: "'c2sc' Capitals to Small Capitals lookup 3 subtable" ccedilla.smcp
Substitution2: "'aalt' Access All Alternates lookup 0 subtable" ccedilla.smcp
EndChar

StartChar: Egrave
Encoding: 200 200 198
Width: 563
Flags: HMW
HStem: 0 67<234 457> 313 66<225 440 233 440> 617 66<172 233 233 488> 729 153
VStem: 99 74<96 103 103 314 378 555> 173 229<378 771 771 815>
LayerCount: 2
Fore
SplineSet
173 103 m 1,0,-1
 172 65 l 1,1,2
 206 67 206 67 234 67 c 2,3,-1
 508 67 l 1,4,5
 508 46 508 46 506 35 c 0,6,7
 499 0 499 0 457 0 c 2,8,-1
 142 0 l 2,9,10
 122 0 122 0 110.5 13.5 c 128,-1,11
 99 27 99 27 99 50 c 2,12,-1
 99 677 l 1,13,-1
 105 683 l 1,14,-1
 491 683 l 1,15,16
 493 671 493 671 493 651.5 c 128,-1,17
 493 632 493 632 488 617 c 1,18,-1
 172 617 l 1,19,-1
 173 555 l 1,20,-1
 173 378 l 1,21,22
 233 379 l 1,23,-1
 440 379 l 1,24,25
 443 361 443 361 443 345.5 c 128,-1,26
 443 330 443 330 440 313 c 1,27,-1
 233 313 l 2,28,29
 195 313 195 313 173 314 c 1,30,-1
 173 103 l 1,0,-1
211 882 m 1,31,-1
 402 771 l 1,32,33
 396 741 396 741 378 729 c 1,34,-1
 173 815 l 1,35,36
 180 863 180 863 211 882 c 1,31,-1
EndSplineSet
Substitution2: "'c2sc' Capitals to Small Capitals lookup 3 subtable" egrave.smcp
Substitution2: "'aalt' Access All Alternates lookup 0 subtable" egrave.smcp
EndChar

StartChar: Eacute
Encoding: 201 201 199
Width: 563
Flags: HMW
HStem: 0 67<234 457> 313 66<225 440 233 440> 617 66<172 233 233 488> 729 153
VStem: 99 74<96 103 103 314 378 555> 211 229
LayerCount: 2
Fore
SplineSet
173 103 m 1,0,-1
 172 65 l 1,1,2
 206 67 206 67 234 67 c 2,3,-1
 508 67 l 1,4,5
 508 46 508 46 506 35 c 0,6,7
 499 0 499 0 457 0 c 2,8,-1
 142 0 l 2,9,10
 122 0 122 0 110.5 13.5 c 128,-1,11
 99 27 99 27 99 50 c 2,12,-1
 99 677 l 1,13,-1
 105 683 l 1,14,-1
 491 683 l 1,15,16
 493 671 493 671 493 651.5 c 128,-1,17
 493 632 493 632 488 617 c 1,18,-1
 172 617 l 1,19,-1
 173 555 l 1,20,-1
 173 378 l 1,21,22
 233 379 l 1,23,-1
 440 379 l 1,24,25
 443 361 443 361 443 345.5 c 128,-1,26
 443 330 443 330 440 313 c 1,27,-1
 233 313 l 2,28,29
 195 313 195 313 173 314 c 1,30,-1
 173 103 l 1,0,-1
211 771 m 1,31,-1
 402 882 l 1,32,33
 431 864 431 864 440 815 c 1,34,-1
 235 729 l 1,35,36
 215 743 215 743 211 771 c 1,31,-1
EndSplineSet
Substitution2: "'c2sc' Capitals to Small Capitals lookup 3 subtable" eacute.smcp
Substitution2: "'aalt' Access All Alternates lookup 0 subtable" eacute.smcp
EndChar

StartChar: Ecircumflex
Encoding: 202 202 200
Width: 563
Flags: HMW
HStem: 0 67<234 457> 313 66<225 440 233 440> 617 66<172 233 233 488> 732 146
VStem: 99 74<96 103 103 314 378 555> 152 293<768 773>
LayerCount: 2
Fore
SplineSet
173 103 m 1,0,-1
 172 65 l 1,1,2
 206 67 206 67 234 67 c 2,3,-1
 508 67 l 1,4,5
 508 46 508 46 506 35 c 0,6,7
 499 0 499 0 457 0 c 2,8,-1
 142 0 l 2,9,10
 122 0 122 0 110.5 13.5 c 128,-1,11
 99 27 99 27 99 50 c 2,12,-1
 99 677 l 1,13,-1
 105 683 l 1,14,-1
 491 683 l 1,15,16
 493 671 493 671 493 651.5 c 128,-1,17
 493 632 493 632 488 617 c 1,18,-1
 172 617 l 1,19,-1
 173 555 l 1,20,-1
 173 378 l 1,21,22
 233 379 l 1,23,-1
 440 379 l 1,24,25
 443 361 443 361 443 345.5 c 128,-1,26
 443 330 443 330 440 313 c 1,27,-1
 233 313 l 2,28,29
 195 313 195 313 173 314 c 1,30,-1
 173 103 l 1,0,-1
408 738 m 1,31,-1
 299 813 l 1,32,-1
 186 732 l 1,33,34
 158 744 158 744 152 768 c 1,35,-1
 263 876 l 1,36,37
 298 882 298 882 334 876 c 1,38,-1
 445 773 l 1,39,40
 436 746 436 746 408 738 c 1,31,-1
EndSplineSet
Substitution2: "'c2sc' Capitals to Small Capitals lookup 3 subtable" ecircumflex.smcp
Substitution2: "'aalt' Access All Alternates lookup 0 subtable" ecircumflex.smcp
EndChar

StartChar: Edieresis
Encoding: 203 203 201
Width: 563
Flags: HMW
HStem: 0 67<234 457> 313 66<225 440 233 440> 617 66<172 233 233 488> 745 81
VStem: 99 74<96 103 103 314 378 555> 158 83<745 745 818 818> 357 83<745 745 818 818>
LayerCount: 2
Fore
SplineSet
173 103 m 1,0,-1
 172 65 l 1,1,2
 206 67 206 67 234 67 c 2,3,-1
 508 67 l 1,4,5
 508 46 508 46 506 35 c 0,6,7
 499 0 499 0 457 0 c 2,8,-1
 142 0 l 2,9,10
 122 0 122 0 110.5 13.5 c 128,-1,11
 99 27 99 27 99 50 c 2,12,-1
 99 677 l 1,13,-1
 105 683 l 1,14,-1
 491 683 l 1,15,16
 493 671 493 671 493 651.5 c 128,-1,17
 493 632 493 632 488 617 c 1,18,-1
 172 617 l 1,19,-1
 173 555 l 1,20,-1
 173 378 l 1,21,22
 233 379 l 1,23,-1
 440 379 l 1,24,25
 443 361 443 361 443 345.5 c 128,-1,26
 443 330 443 330 440 313 c 1,27,-1
 233 313 l 2,28,29
 195 313 195 313 173 314 c 1,30,-1
 173 103 l 1,0,-1
357 818 m 1,31,32
 370 826 370 826 397 826 c 128,-1,33
 424 826 424 826 440 818 c 1,34,35
 446 799 446 799 446 781.5 c 128,-1,36
 446 764 446 764 440 745 c 1,37,38
 427 737 427 737 397.5 737 c 128,-1,39
 368 737 368 737 357 745 c 1,40,41
 349 762 349 762 349 781.5 c 128,-1,42
 349 801 349 801 357 818 c 1,31,32
158 818 m 1,43,44
 174 826 174 826 201 826 c 128,-1,45
 228 826 228 826 241 818 c 1,46,47
 248 800 248 800 248 781.5 c 128,-1,48
 248 763 248 763 241 745 c 1,49,50
 230 737 230 737 200.5 737 c 128,-1,51
 171 737 171 737 158 745 c 1,52,53
 152 765 152 765 152 781.5 c 128,-1,54
 152 798 152 798 158 818 c 1,43,44
EndSplineSet
Substitution2: "'c2sc' Capitals to Small Capitals lookup 3 subtable" edieresis.smcp
Substitution2: "'aalt' Access All Alternates lookup 0 subtable" edieresis.smcp
EndChar

StartChar: Igrave
Encoding: 204 204 202
Width: 282
Flags: HMW
HStem: -3 689<133.5 147> 729 153
VStem: 15 229<771 815> 103 76<0 683 0 683>
LayerCount: 2
Fore
SplineSet
103 0 m 1,0,-1
 103 683 l 1,1,2
 117 686 117 686 139.5 686 c 0,3,4
 162 686 162 686 179 683 c 1,5,-1
 179 0 l 1,6,7
 162 -3 162 -3 139.5 -3 c 0,8,9
 117 -3 117 -3 103 0 c 1,0,-1
53 882 m 1,10,-1
 244 771 l 1,11,12
 238 741 238 741 220 729 c 1,13,-1
 15 815 l 1,14,15
 22 863 22 863 53 882 c 1,10,-1
EndSplineSet
Substitution2: "'c2sc' Capitals to Small Capitals lookup 3 subtable" igrave.smcp
Substitution2: "'aalt' Access All Alternates lookup 0 subtable" igrave.smcp
EndChar

StartChar: Iacute
Encoding: 205 205 203
Width: 282
Flags: HMW
HStem: -3 689<133.5 147> 729 153
VStem: 53 229<771 815> 103 76<0 683 0 683>
LayerCount: 2
Fore
SplineSet
103 0 m 1,0,-1
 103 683 l 1,1,2
 117 686 117 686 139.5 686 c 0,3,4
 162 686 162 686 179 683 c 1,5,-1
 179 0 l 1,6,7
 162 -3 162 -3 139.5 -3 c 0,8,9
 117 -3 117 -3 103 0 c 1,0,-1
53 771 m 1,10,-1
 244 882 l 1,11,12
 273 864 273 864 282 815 c 1,13,-1
 77 729 l 1,14,15
 57 743 57 743 53 771 c 1,10,-1
EndSplineSet
Substitution2: "'c2sc' Capitals to Small Capitals lookup 3 subtable" iacute.smcp
Substitution2: "'aalt' Access All Alternates lookup 0 subtable" iacute.smcp
EndChar

StartChar: Itilde
Encoding: 296 296 204
Width: 282
Flags: HMW
HStem: -3 689<133.5 147> 741 67<214 227 214 229.5>
VStem: -29 340<775 824> 103 76<0 683 0 683>
LayerCount: 2
Fore
SplineSet
103 0 m 1,0,-1
 103 683 l 1,1,2
 117 686 117 686 139.5 686 c 0,3,4
 162 686 162 686 179 683 c 1,5,-1
 179 0 l 1,6,7
 162 -3 162 -3 139.5 -3 c 0,8,9
 117 -3 117 -3 103 0 c 1,0,-1
158 755 m 2,10,-1
 97 784 l 2,11,12
 77 793 77 793 59.5 793 c 0,13,14
 42 793 42 793 21 768 c 1,15,-1
 9 752 l 1,16,17
 -18 754 -18 754 -29 775 c 1,18,-1
 -21 795 l 2,19,20
 -8 825 -8 825 16.5 842.5 c 128,-1,21
 41 860 41 860 68.5 860 c 0,22,23
 96 860 96 860 124 846 c 2,24,-1
 185 817 l 2,25,26
 203 808 203 808 221.5 808 c 0,27,28
 240 808 240 808 261 833 c 1,29,-1
 273 849 l 1,30,31
 298 847 298 847 311 824 c 1,32,-1
 303 805 l 1,33,34
 274 741 274 741 212 741 c 0,35,36
 186 741 186 741 158 755 c 2,10,-1
EndSplineSet
Substitution2: "'c2sc' Capitals to Small Capitals lookup 3 subtable" itilde.smcp
Substitution2: "'aalt' Access All Alternates lookup 0 subtable" itilde.smcp
EndChar

StartChar: Icircumflex
Encoding: 206 206 205
Width: 282
Flags: HMW
HStem: -3 689<133.5 147> 732 146
VStem: -6 293<768 773> 103 76<0 683 0 683>
LayerCount: 2
Fore
SplineSet
103 0 m 1,0,-1
 103 683 l 1,1,2
 117 686 117 686 139.5 686 c 0,3,4
 162 686 162 686 179 683 c 1,5,-1
 179 0 l 1,6,7
 162 -3 162 -3 139.5 -3 c 0,8,9
 117 -3 117 -3 103 0 c 1,0,-1
250 738 m 1,10,-1
 141 813 l 1,11,-1
 28 732 l 1,12,13
 0 744 0 744 -6 768 c 1,14,-1
 105 876 l 1,15,16
 140 882 140 882 176 876 c 1,17,-1
 287 773 l 1,18,19
 278 746 278 746 250 738 c 1,10,-1
EndSplineSet
Substitution2: "'c2sc' Capitals to Small Capitals lookup 3 subtable" icircumflex.smcp
Substitution2: "'aalt' Access All Alternates lookup 0 subtable" icircumflex.smcp
EndChar

StartChar: Idieresis
Encoding: 207 207 206
Width: 282
Flags: HMW
HStem: -3 689<133.5 147> 745 81
VStem: 0 83<745 745 818 818> 103 76<0 683 0 683> 199 83<745 745 818 818>
LayerCount: 2
Fore
SplineSet
103 0 m 1,0,-1
 103 683 l 1,1,2
 117 686 117 686 139.5 686 c 128,-1,3
 162 686 162 686 179 683 c 1,4,-1
 179 0 l 1,5,6
 162 -3 162 -3 139.5 -3 c 128,-1,7
 117 -3 117 -3 103 0 c 1,0,-1
199 818 m 1,8,9
 212 826 212 826 239 826 c 128,-1,10
 266 826 266 826 282 818 c 1,11,12
 288 799 288 799 288 781.5 c 128,-1,13
 288 764 288 764 282 745 c 1,14,15
 269 737 269 737 239.5 737 c 128,-1,16
 210 737 210 737 199 745 c 1,17,18
 191 762 191 762 191 781.5 c 128,-1,19
 191 801 191 801 199 818 c 1,8,9
0 818 m 1,20,21
 16 826 16 826 43 826 c 128,-1,22
 70 826 70 826 83 818 c 1,23,24
 90 800 90 800 90 781.5 c 128,-1,25
 90 763 90 763 83 745 c 1,26,27
 72 737 72 737 42.5 737 c 128,-1,28
 13 737 13 737 0 745 c 1,29,30
 -6 764 -6 764 -6 781 c 128,-1,31
 -6 798 -6 798 0 818 c 1,20,21
EndSplineSet
Substitution2: "'c2sc' Capitals to Small Capitals lookup 3 subtable" idieresis.smcp
Substitution2: "'aalt' Access All Alternates lookup 0 subtable" idieresis.smcp
EndChar

StartChar: IJ
Encoding: 306 306 207
Width: 718
Flags: HMW
HStem: -10 66<420 483.5 420 526.5> -3 689<133.5 147>
VStem: 103 76<0 683 0 683> 556 77<226 241 241 683>
LayerCount: 2
Fore
SplineSet
103 0 m 1,0,-1
 103 683 l 1,1,2
 117 686 117 686 139.5 686 c 128,-1,3
 162 686 162 686 179 683 c 1,4,-1
 179 0 l 1,5,6
 162 -3 162 -3 139.5 -3 c 128,-1,7
 117 -3 117 -3 103 0 c 1,0,-1
323 90 m 1,8,9
 378 56 378 56 441.5 56 c 128,-1,10
 505 56 505 56 530.5 94.5 c 128,-1,11
 556 133 556 133 556 226 c 2,12,-1
 556 683 l 1,13,14
 573 686 573 686 595.5 686 c 128,-1,15
 618 686 618 686 633 683 c 1,16,-1
 633 241 l 2,17,18
 633 146.833333333 633 146.833333333 617.5 102.916666667 c 128,-1,19
 602 59 602 59 582 37.5 c 0,20,21
 537.813953488 -10 537.813953488 -10 448.406976744 -10 c 128,-1,22
 359 -10 359 -10 292 31 c 1,23,24
 299 65 299 65 323 90 c 1,8,9
EndSplineSet
Substitution2: "'c2sc' Capitals to Small Capitals lookup 3 subtable" ij.smcp
Substitution2: "'aalt' Access All Alternates lookup 0 subtable" ij.smcp
EndChar

StartChar: Jcircumflex
Encoding: 308 308 208
Width: 436
Flags: HMW
HStem: -10 66<138 201.5 138 244.5> 732 146
VStem: 167 293<768 773> 274 77<226 241 241 683>
LayerCount: 2
Fore
SplineSet
41 90 m 1,0,1
 96 56 96 56 159.5 56 c 128,-1,2
 223 56 223 56 248.5 94.5 c 128,-1,3
 274 133 274 133 274 226 c 2,4,-1
 274 683 l 1,5,6
 291 686 291 686 313.5 686 c 128,-1,7
 336 686 336 686 351 683 c 1,8,-1
 351 241 l 2,9,10
 351 146.833333333 351 146.833333333 335.5 102.916666667 c 128,-1,11
 320 59 320 59 300 37.5 c 0,12,13
 255.813953488 -10 255.813953488 -10 166.406976744 -10 c 128,-1,14
 77 -10 77 -10 10 31 c 1,15,16
 17 65 17 65 41 90 c 1,0,1
423 738 m 1,17,-1
 314 813 l 1,18,-1
 201 732 l 1,19,20
 173 744 173 744 167 768 c 1,21,-1
 278 876 l 1,22,23
 313 882 313 882 349 876 c 1,24,-1
 460 773 l 1,25,26
 451 746 451 746 423 738 c 1,17,-1
EndSplineSet
Substitution2: "'c2sc' Capitals to Small Capitals lookup 3 subtable" jcircumflex.smcp
Substitution2: "'aalt' Access All Alternates lookup 0 subtable" jcircumflex.smcp
EndChar

StartChar: Lslash
Encoding: 321 321 209
Width: 510
Flags: HMW
HStem: 0 68<266 428>
VStem: 103 77<65 297 297 297 385 636> 368 9
LayerCount: 2
Fore
SplineSet
180 636 m 2,0,-1
 180 385 l 1,1,-1
 368 447 l 1,2,-1
 373 444 l 1,3,4
 381 414 381 414 374 382 c 1,5,-1
 180 319 l 1,6,-1
 180 65 l 1,7,8
 225 68 225 68 266 68 c 2,9,-1
 479 68 l 1,10,11
 479 46 479 46 477 35 c 0,12,13
 471 0 471 0 428 0 c 2,14,-1
 148 0 l 2,15,16
 128 0 128 0 115.5 13 c 128,-1,17
 103 26 103 26 103 51 c 2,18,-1
 103 297 l 1,19,-1
 35 274 l 1,20,-1
 30 277 l 1,21,22
 21 306 21 306 28 338 c 1,23,-1
 103 363 l 1,24,-1
 103 680 l 1,25,-1
 109 686 l 1,26,-1
 140 686 l 2,27,28
 164 686 164 686 172 674.5 c 128,-1,29
 180 663 180 663 180 636 c 2,0,-1
EndSplineSet
Substitution2: "'c2sc' Capitals to Small Capitals lookup 3 subtable" lslash.smcp
Substitution2: "'aalt' Access All Alternates lookup 0 subtable" lslash.smcp
EndChar

StartChar: Ldot
Encoding: 319 319 210
Width: 506
Flags: HMW
HStem: 0 68<262 423> 308 82<343 343 431 431>
VStem: 99 76<65 636 65 680 65 680> 337 94
LayerCount: 2
Fore
SplineSet
262 68 m 2,0,-1
 475 68 l 1,1,2
 475 46 475 46 472 35 c 1,3,4
 466 0 466 0 423 0 c 2,5,-1
 143 0 l 2,6,7
 124 0 124 0 111.5 13.5 c 128,-1,8
 99 27 99 27 99 51 c 2,9,-1
 99 680 l 1,10,-1
 105 686 l 1,11,-1
 135 686 l 2,12,13
 159 686 159 686 167 674.5 c 128,-1,14
 175 663 175 663 175 636 c 2,15,-1
 175 65 l 1,16,17
 220 68 220 68 262 68 c 2,0,-1
337 349 m 128,-1,19
 337 378 337 378 343 390 c 1,20,21
 366 400 366 400 388.5 400 c 0,22,23
 411 400 411 400 431 390 c 1,24,25
 438 376 438 376 438 349 c 128,-1,26
 438 322 438 322 431 308 c 1,27,28
 417 298 417 298 389 298 c 0,29,30
 361 298 361 298 343 308 c 1,31,18
 337 320 337 320 337 349 c 128,-1,19
EndSplineSet
Substitution2: "'c2sc' Capitals to Small Capitals lookup 3 subtable" ldot.smcp
Substitution2: "'aalt' Access All Alternates lookup 0 subtable" ldot.smcp
EndChar

StartChar: Nacute
Encoding: 323 323 211
Width: 671
Flags: HMW
HStem: 0 89<478 508 505 573> 591 92<99 167 99 164> 729 153
VStem: 99 71<0 375 0 683> 250 229<771 815> 501 72<317 636 636 653>
LayerCount: 2
Fore
SplineSet
567 686 m 1,0,-1
 573 681 l 1,1,-1
 573 0 l 1,2,3
 554 -3 554 -3 526 -3 c 128,-1,4
 498 -3 498 -3 478 0 c 1,5,-1
 235 453 l 2,6,7
 205 509 205 509 167 591 c 1,8,-1
 164 591 l 1,9,10
 170 405 170 405 170 375 c 2,11,-1
 170 0 l 1,12,13
 149 -3 149 -3 133 -3 c 128,-1,14
 117 -3 117 -3 99 0 c 1,15,-1
 99 683 l 1,16,17
 117 686 117 686 144.5 686 c 128,-1,18
 172 686 172 686 192 683 c 1,19,-1
 435 230 l 2,20,21
 458.846153846 187.076923077 458.846153846 187.076923077 505 89 c 1,22,-1
 508 89 l 1,23,24
 501 217 501 217 501 317 c 2,25,-1
 501 636 l 2,26,27
 501 663 501 663 509 674.5 c 128,-1,28
 517 686 517 686 541 686 c 2,29,-1
 567 686 l 1,0,-1
250 771 m 1,30,-1
 441 882 l 1,31,32
 470 864 470 864 479 815 c 1,33,-1
 274 729 l 1,34,35
 254 743 254 743 250 771 c 1,30,-1
EndSplineSet
Substitution2: "'c2sc' Capitals to Small Capitals lookup 3 subtable" nacute.smcp
Substitution2: "'aalt' Access All Alternates lookup 0 subtable" nacute.smcp
EndChar

StartChar: Ntilde
Encoding: 209 209 212
Width: 671
Flags: HMW
HStem: 0 89<478 508 505 573> 591 92<99 167 99 164> 741 67<411 424 411 426.5>
VStem: 99 71<0 375 0 683> 168 340 501 72<317 636 636 653>
LayerCount: 2
Fore
SplineSet
567 686 m 1,0,-1
 573 681 l 1,1,-1
 573 0 l 1,2,3
 554 -3 554 -3 526 -3 c 128,-1,4
 498 -3 498 -3 478 0 c 1,5,-1
 235 453 l 2,6,7
 205 509 205 509 167 591 c 1,8,-1
 164 591 l 1,9,10
 170 405 170 405 170 375 c 2,11,-1
 170 0 l 1,12,13
 149 -3 149 -3 133 -3 c 128,-1,14
 117 -3 117 -3 99 0 c 1,15,-1
 99 683 l 1,16,17
 117 686 117 686 144.5 686 c 128,-1,18
 172 686 172 686 192 683 c 1,19,-1
 435 230 l 2,20,21
 458.846153846 187.076923077 458.846153846 187.076923077 505 89 c 1,22,-1
 508 89 l 1,23,24
 501 217 501 217 501 317 c 2,25,-1
 501 636 l 2,26,27
 501 663 501 663 509 674.5 c 128,-1,28
 517 686 517 686 541 686 c 2,29,-1
 567 686 l 1,0,-1
355 755 m 2,30,-1
 294 784 l 2,31,32
 274 793 274 793 256.5 793 c 128,-1,33
 239 793 239 793 218 768 c 1,34,-1
 206 752 l 1,35,36
 179 754 179 754 168 775 c 1,37,-1
 176 795 l 2,38,39
 189 825 189 825 213.5 842.5 c 128,-1,40
 238 860 238 860 265.5 860 c 128,-1,41
 293 860 293 860 321 846 c 2,42,-1
 382 817 l 2,43,44
 400 808 400 808 418.5 808 c 128,-1,45
 437 808 437 808 458 833 c 1,46,-1
 470 849 l 1,47,48
 495 847 495 847 508 824 c 1,49,-1
 500 805 l 1,50,51
 471 741 471 741 409 741 c 0,52,53
 383 741 383 741 355 755 c 2,30,-1
EndSplineSet
Substitution2: "'c2sc' Capitals to Small Capitals lookup 3 subtable" ntilde.smcp
Substitution2: "'aalt' Access All Alternates lookup 0 subtable" ntilde.smcp
EndChar

StartChar: OE
Encoding: 338 338 213
Width: 885
Flags: HMW
HStem: 0 67<557 779> 313 66<548 763 556 763> 617 66<495 556 556 811>
VStem: 57 81<286 397> 422 74<96 103 103 314 378 555>
LayerCount: 2
Fore
SplineSet
496 103 m 1,0,-1
 495 65 l 1,1,2
 529 67 529 67 557 67 c 2,3,-1
 831 67 l 1,4,5
 831 46 831 46 828 35 c 1,6,7
 822 0 822 0 779 0 c 2,8,-1
 449 0 l 1,9,10
 344 -12 344 -12 327 -12 c 0,11,12
 228 -12 228 -12 163 46 c 0,13,14
 57 141 57 141 57 342 c 0,15,16
 57 431 57 431 83 510 c 128,-1,17
 109 589 109 589 163 637 c 0,18,19
 228 695 228 695 327 695 c 0,20,21
 341 695 341 695 449 683 c 1,22,-1
 814 683 l 1,23,24
 816 671 816 671 816 651.5 c 128,-1,25
 816 632 816 632 811 617 c 1,26,-1
 495 617 l 1,27,-1
 496 555 l 1,28,-1
 496 378 l 1,29,30
 556 379 l 1,31,-1
 763 379 l 1,32,33
 766 361 766 361 766 345.5 c 128,-1,34
 766 330 766 330 763 313 c 1,35,-1
 556 313 l 2,36,37
 518 313 518 313 496 314 c 1,38,-1
 496 103 l 1,0,-1
233 78 m 128,-1,40
 272 52 272 52 323 52 c 128,-1,41
 374 52 374 52 422 62 c 1,42,-1
 422 620 l 1,43,44
 367 631 367 631 325 631 c 128,-1,45
 283 631 283 631 249 613 c 128,-1,46
 215 595 215 595 194.5 567 c 128,-1,47
 174 539 174 539 161 499.5 c 0,48,49
 138 429.615384615 138 429.615384615 138 358.807692308 c 128,-1,50
 138 288 138 288 146.5 241 c 128,-1,51
 155 194 155 194 174.5 149 c 128,-1,39
 194 104 194 104 233 78 c 128,-1,40
EndSplineSet
Substitution2: "'c2sc' Capitals to Small Capitals lookup 3 subtable" oe.smcp
Substitution2: "'aalt' Access All Alternates lookup 0 subtable" oe.smcp
EndChar

